%TF.GenerationSoftware,KiCad,Pcbnew,8.0.8+1*%
%TF.CreationDate,2025-10-29T14:44:18+00:00*%
%TF.ProjectId,LoRa-V3-PCB,4c6f5261-2d56-4332-9d50-43422e6b6963,rev?*%
%TF.SameCoordinates,Original*%
%TF.FileFunction,Legend,Bot*%
%TF.FilePolarity,Positive*%
%FSLAX46Y46*%
G04 Gerber Fmt 4.6, Leading zero omitted, Abs format (unit mm)*
G04 Created by KiCad (PCBNEW 8.0.8+1) date 2025-10-29 14:44:18*
%MOMM*%
%LPD*%
G01*
G04 APERTURE LIST*
G04 Aperture macros list*
%AMRoundRect*
0 Rectangle with rounded corners*
0 $1 Rounding radius*
0 $2 $3 $4 $5 $6 $7 $8 $9 X,Y pos of 4 corners*
0 Add a 4 corners polygon primitive as box body*
4,1,4,$2,$3,$4,$5,$6,$7,$8,$9,$2,$3,0*
0 Add four circle primitives for the rounded corners*
1,1,$1+$1,$2,$3*
1,1,$1+$1,$4,$5*
1,1,$1+$1,$6,$7*
1,1,$1+$1,$8,$9*
0 Add four rect primitives between the rounded corners*
20,1,$1+$1,$2,$3,$4,$5,0*
20,1,$1+$1,$4,$5,$6,$7,0*
20,1,$1+$1,$6,$7,$8,$9,0*
20,1,$1+$1,$8,$9,$2,$3,0*%
G04 Aperture macros list end*
%TA.AperFunction,Profile*%
%ADD10C,0.050000*%
%TD*%
%TA.AperFunction,Profile*%
%ADD11C,0.100000*%
%TD*%
%ADD12C,0.100000*%
%ADD13C,0.000000*%
%ADD14C,2.000000*%
%ADD15RoundRect,0.523529X-1.078471X-1.078471X1.078471X-1.078471X1.078471X1.078471X-1.078471X1.078471X0*%
%ADD16C,3.204000*%
%ADD17RoundRect,0.250000X-0.425000X0.425000X-0.425000X-0.425000X0.425000X-0.425000X0.425000X0.425000X0*%
%ADD18O,1.350000X1.350000*%
%ADD19C,1.000000*%
%ADD20C,2.500000*%
%ADD21RoundRect,0.440000X0.660000X0.660000X-0.660000X0.660000X-0.660000X-0.660000X0.660000X-0.660000X0*%
%ADD22RoundRect,0.340000X0.510000X0.510000X-0.510000X0.510000X-0.510000X-0.510000X0.510000X-0.510000X0*%
%ADD23O,1.700000X1.700000*%
%ADD24O,1.800000X1.000000*%
%ADD25O,2.200000X1.000000*%
G04 APERTURE END LIST*
D10*
X162500000Y-73000000D02*
G75*
G02*
X162000000Y-72500000I0J500000D01*
G01*
D11*
X114000000Y-75000000D02*
X114000000Y-119000000D01*
X167550000Y-114000000D02*
X174500000Y-114000000D01*
D10*
X128500000Y-72000000D02*
X161500000Y-72000000D01*
D11*
X176000000Y-119000000D02*
G75*
G02*
X173000000Y-122000000I-3000000J0D01*
G01*
D10*
X161500000Y-72000000D02*
G75*
G02*
X162000000Y-72500000I0J-500000D01*
G01*
X122500000Y-73000000D02*
G75*
G02*
X122000000Y-72500000I0J500000D01*
G01*
X128000000Y-72500000D02*
G75*
G02*
X128500000Y-72000000I500000J0D01*
G01*
D11*
X176000000Y-115500000D02*
X176000000Y-119000000D01*
D10*
X167500000Y-73000000D02*
X162500000Y-73000000D01*
D11*
X165750000Y-104800000D02*
G75*
G02*
X167550000Y-103000000I1800000J0D01*
G01*
X139500000Y-120500000D02*
G75*
G02*
X138000000Y-122000000I-1500000J0D01*
G01*
X139500000Y-120500000D02*
G75*
G02*
X141000000Y-119000000I1500000J0D01*
G01*
D10*
X122500000Y-73000000D02*
X127500000Y-73000000D01*
X121500000Y-72000000D02*
G75*
G02*
X122000000Y-72500000I0J-500000D01*
G01*
D11*
X176000000Y-101500000D02*
G75*
G02*
X174500000Y-103000000I-1500000J0D01*
G01*
X117000000Y-122000000D02*
G75*
G02*
X114000000Y-119000000I0J3000000D01*
G01*
D10*
X128000000Y-72500000D02*
G75*
G02*
X127500000Y-73000000I-500000J0D01*
G01*
D11*
X156500000Y-119000000D02*
G75*
G02*
X158000000Y-120500000I0J-1500000D01*
G01*
X174500000Y-103000000D02*
X167550000Y-103000000D01*
X159500000Y-122000000D02*
X173000000Y-122000000D01*
X167550000Y-114000000D02*
G75*
G02*
X165750000Y-112200000I0J1800000D01*
G01*
X165750000Y-104800000D02*
X165750000Y-112200000D01*
X173000000Y-72000000D02*
G75*
G02*
X176000000Y-75000000I0J-3000000D01*
G01*
X156500000Y-119000000D02*
X141000000Y-119000000D01*
D10*
X117000000Y-72000000D02*
X121500000Y-72000000D01*
D11*
X176000000Y-75000000D02*
X176000000Y-101500000D01*
D10*
X168000000Y-72500000D02*
G75*
G02*
X167500000Y-73000000I-500000J0D01*
G01*
D11*
X114000000Y-75000000D02*
G75*
G02*
X117000000Y-72000000I3000000J0D01*
G01*
X174500000Y-114000000D02*
G75*
G02*
X176000000Y-115500000I0J-1500000D01*
G01*
X159500000Y-122000000D02*
G75*
G02*
X158000000Y-120500000I0J1500000D01*
G01*
D10*
X168500000Y-72000000D02*
X173000000Y-72000000D01*
X168000000Y-72500000D02*
G75*
G02*
X168500000Y-72000000I500000J0D01*
G01*
D11*
X117000000Y-122000000D02*
X138000000Y-122000000D01*
D12*
X172319925Y-84147942D02*
X171919925Y-85347942D01*
X171919925Y-85347942D02*
X171519925Y-84147942D01*
X171177068Y-84262228D02*
X171119925Y-84205085D01*
X171119925Y-84205085D02*
X171005640Y-84147942D01*
X171005640Y-84147942D02*
X170719925Y-84147942D01*
X170719925Y-84147942D02*
X170605640Y-84205085D01*
X170605640Y-84205085D02*
X170548497Y-84262228D01*
X170548497Y-84262228D02*
X170491354Y-84376514D01*
X170491354Y-84376514D02*
X170491354Y-84490800D01*
X170491354Y-84490800D02*
X170548497Y-84662228D01*
X170548497Y-84662228D02*
X171234211Y-85347942D01*
X171234211Y-85347942D02*
X170491354Y-85347942D01*
X169977068Y-85233657D02*
X169919925Y-85290800D01*
X169919925Y-85290800D02*
X169977068Y-85347942D01*
X169977068Y-85347942D02*
X170034211Y-85290800D01*
X170034211Y-85290800D02*
X169977068Y-85233657D01*
X169977068Y-85233657D02*
X169977068Y-85347942D01*
X168777068Y-85347942D02*
X169462782Y-85347942D01*
X169119925Y-85347942D02*
X169119925Y-84147942D01*
X169119925Y-84147942D02*
X169234211Y-84319371D01*
X169234211Y-84319371D02*
X169348496Y-84433657D01*
X169348496Y-84433657D02*
X169462782Y-84490800D01*
X167634211Y-85347942D02*
X168319925Y-85347942D01*
X167977068Y-85347942D02*
X167977068Y-84147942D01*
X167977068Y-84147942D02*
X168091354Y-84319371D01*
X168091354Y-84319371D02*
X168205639Y-84433657D01*
X168205639Y-84433657D02*
X168319925Y-84490800D01*
X166205639Y-84890800D02*
X165291354Y-84890800D01*
X163862782Y-84262228D02*
X163805639Y-84205085D01*
X163805639Y-84205085D02*
X163691354Y-84147942D01*
X163691354Y-84147942D02*
X163405639Y-84147942D01*
X163405639Y-84147942D02*
X163291354Y-84205085D01*
X163291354Y-84205085D02*
X163234211Y-84262228D01*
X163234211Y-84262228D02*
X163177068Y-84376514D01*
X163177068Y-84376514D02*
X163177068Y-84490800D01*
X163177068Y-84490800D02*
X163234211Y-84662228D01*
X163234211Y-84662228D02*
X163919925Y-85347942D01*
X163919925Y-85347942D02*
X163177068Y-85347942D01*
X162434211Y-84147942D02*
X162319925Y-84147942D01*
X162319925Y-84147942D02*
X162205639Y-84205085D01*
X162205639Y-84205085D02*
X162148497Y-84262228D01*
X162148497Y-84262228D02*
X162091354Y-84376514D01*
X162091354Y-84376514D02*
X162034211Y-84605085D01*
X162034211Y-84605085D02*
X162034211Y-84890800D01*
X162034211Y-84890800D02*
X162091354Y-85119371D01*
X162091354Y-85119371D02*
X162148497Y-85233657D01*
X162148497Y-85233657D02*
X162205639Y-85290800D01*
X162205639Y-85290800D02*
X162319925Y-85347942D01*
X162319925Y-85347942D02*
X162434211Y-85347942D01*
X162434211Y-85347942D02*
X162548497Y-85290800D01*
X162548497Y-85290800D02*
X162605639Y-85233657D01*
X162605639Y-85233657D02*
X162662782Y-85119371D01*
X162662782Y-85119371D02*
X162719925Y-84890800D01*
X162719925Y-84890800D02*
X162719925Y-84605085D01*
X162719925Y-84605085D02*
X162662782Y-84376514D01*
X162662782Y-84376514D02*
X162605639Y-84262228D01*
X162605639Y-84262228D02*
X162548497Y-84205085D01*
X162548497Y-84205085D02*
X162434211Y-84147942D01*
X161577068Y-84262228D02*
X161519925Y-84205085D01*
X161519925Y-84205085D02*
X161405640Y-84147942D01*
X161405640Y-84147942D02*
X161119925Y-84147942D01*
X161119925Y-84147942D02*
X161005640Y-84205085D01*
X161005640Y-84205085D02*
X160948497Y-84262228D01*
X160948497Y-84262228D02*
X160891354Y-84376514D01*
X160891354Y-84376514D02*
X160891354Y-84490800D01*
X160891354Y-84490800D02*
X160948497Y-84662228D01*
X160948497Y-84662228D02*
X161634211Y-85347942D01*
X161634211Y-85347942D02*
X160891354Y-85347942D01*
X159805640Y-84147942D02*
X160377068Y-84147942D01*
X160377068Y-84147942D02*
X160434211Y-84719371D01*
X160434211Y-84719371D02*
X160377068Y-84662228D01*
X160377068Y-84662228D02*
X160262783Y-84605085D01*
X160262783Y-84605085D02*
X159977068Y-84605085D01*
X159977068Y-84605085D02*
X159862783Y-84662228D01*
X159862783Y-84662228D02*
X159805640Y-84719371D01*
X159805640Y-84719371D02*
X159748497Y-84833657D01*
X159748497Y-84833657D02*
X159748497Y-85119371D01*
X159748497Y-85119371D02*
X159805640Y-85233657D01*
X159805640Y-85233657D02*
X159862783Y-85290800D01*
X159862783Y-85290800D02*
X159977068Y-85347942D01*
X159977068Y-85347942D02*
X160262783Y-85347942D01*
X160262783Y-85347942D02*
X160377068Y-85290800D01*
X160377068Y-85290800D02*
X160434211Y-85233657D01*
X159234211Y-84890800D02*
X158319926Y-84890800D01*
X157119926Y-85347942D02*
X157805640Y-85347942D01*
X157462783Y-85347942D02*
X157462783Y-84147942D01*
X157462783Y-84147942D02*
X157577069Y-84319371D01*
X157577069Y-84319371D02*
X157691354Y-84433657D01*
X157691354Y-84433657D02*
X157805640Y-84490800D01*
X156377069Y-84147942D02*
X156262783Y-84147942D01*
X156262783Y-84147942D02*
X156148497Y-84205085D01*
X156148497Y-84205085D02*
X156091355Y-84262228D01*
X156091355Y-84262228D02*
X156034212Y-84376514D01*
X156034212Y-84376514D02*
X155977069Y-84605085D01*
X155977069Y-84605085D02*
X155977069Y-84890800D01*
X155977069Y-84890800D02*
X156034212Y-85119371D01*
X156034212Y-85119371D02*
X156091355Y-85233657D01*
X156091355Y-85233657D02*
X156148497Y-85290800D01*
X156148497Y-85290800D02*
X156262783Y-85347942D01*
X156262783Y-85347942D02*
X156377069Y-85347942D01*
X156377069Y-85347942D02*
X156491355Y-85290800D01*
X156491355Y-85290800D02*
X156548497Y-85233657D01*
X156548497Y-85233657D02*
X156605640Y-85119371D01*
X156605640Y-85119371D02*
X156662783Y-84890800D01*
X156662783Y-84890800D02*
X156662783Y-84605085D01*
X156662783Y-84605085D02*
X156605640Y-84376514D01*
X156605640Y-84376514D02*
X156548497Y-84262228D01*
X156548497Y-84262228D02*
X156491355Y-84205085D01*
X156491355Y-84205085D02*
X156377069Y-84147942D01*
X155462783Y-84890800D02*
X154548498Y-84890800D01*
X154034212Y-84262228D02*
X153977069Y-84205085D01*
X153977069Y-84205085D02*
X153862784Y-84147942D01*
X153862784Y-84147942D02*
X153577069Y-84147942D01*
X153577069Y-84147942D02*
X153462784Y-84205085D01*
X153462784Y-84205085D02*
X153405641Y-84262228D01*
X153405641Y-84262228D02*
X153348498Y-84376514D01*
X153348498Y-84376514D02*
X153348498Y-84490800D01*
X153348498Y-84490800D02*
X153405641Y-84662228D01*
X153405641Y-84662228D02*
X154091355Y-85347942D01*
X154091355Y-85347942D02*
X153348498Y-85347942D01*
X152777069Y-85347942D02*
X152548498Y-85347942D01*
X152548498Y-85347942D02*
X152434212Y-85290800D01*
X152434212Y-85290800D02*
X152377069Y-85233657D01*
X152377069Y-85233657D02*
X152262784Y-85062228D01*
X152262784Y-85062228D02*
X152205641Y-84833657D01*
X152205641Y-84833657D02*
X152205641Y-84376514D01*
X152205641Y-84376514D02*
X152262784Y-84262228D01*
X152262784Y-84262228D02*
X152319927Y-84205085D01*
X152319927Y-84205085D02*
X152434212Y-84147942D01*
X152434212Y-84147942D02*
X152662784Y-84147942D01*
X152662784Y-84147942D02*
X152777069Y-84205085D01*
X152777069Y-84205085D02*
X152834212Y-84262228D01*
X152834212Y-84262228D02*
X152891355Y-84376514D01*
X152891355Y-84376514D02*
X152891355Y-84662228D01*
X152891355Y-84662228D02*
X152834212Y-84776514D01*
X152834212Y-84776514D02*
X152777069Y-84833657D01*
X152777069Y-84833657D02*
X152662784Y-84890800D01*
X152662784Y-84890800D02*
X152434212Y-84890800D01*
X152434212Y-84890800D02*
X152319927Y-84833657D01*
X152319927Y-84833657D02*
X152262784Y-84776514D01*
X152262784Y-84776514D02*
X152205641Y-84662228D01*
X172148496Y-87847942D02*
X172148496Y-86647942D01*
X171634211Y-87847942D02*
X171634211Y-87219371D01*
X171634211Y-87219371D02*
X171691353Y-87105085D01*
X171691353Y-87105085D02*
X171805639Y-87047942D01*
X171805639Y-87047942D02*
X171977068Y-87047942D01*
X171977068Y-87047942D02*
X172091353Y-87105085D01*
X172091353Y-87105085D02*
X172148496Y-87162228D01*
X171234211Y-87047942D02*
X170777068Y-87047942D01*
X171062782Y-86647942D02*
X171062782Y-87676514D01*
X171062782Y-87676514D02*
X171005639Y-87790800D01*
X171005639Y-87790800D02*
X170891354Y-87847942D01*
X170891354Y-87847942D02*
X170777068Y-87847942D01*
X170548497Y-87047942D02*
X170091354Y-87047942D01*
X170377068Y-86647942D02*
X170377068Y-87676514D01*
X170377068Y-87676514D02*
X170319925Y-87790800D01*
X170319925Y-87790800D02*
X170205640Y-87847942D01*
X170205640Y-87847942D02*
X170091354Y-87847942D01*
X169691354Y-87047942D02*
X169691354Y-88247942D01*
X169691354Y-87105085D02*
X169577069Y-87047942D01*
X169577069Y-87047942D02*
X169348497Y-87047942D01*
X169348497Y-87047942D02*
X169234211Y-87105085D01*
X169234211Y-87105085D02*
X169177069Y-87162228D01*
X169177069Y-87162228D02*
X169119926Y-87276514D01*
X169119926Y-87276514D02*
X169119926Y-87619371D01*
X169119926Y-87619371D02*
X169177069Y-87733657D01*
X169177069Y-87733657D02*
X169234211Y-87790800D01*
X169234211Y-87790800D02*
X169348497Y-87847942D01*
X169348497Y-87847942D02*
X169577069Y-87847942D01*
X169577069Y-87847942D02*
X169691354Y-87790800D01*
X168662783Y-87790800D02*
X168548497Y-87847942D01*
X168548497Y-87847942D02*
X168319926Y-87847942D01*
X168319926Y-87847942D02*
X168205640Y-87790800D01*
X168205640Y-87790800D02*
X168148497Y-87676514D01*
X168148497Y-87676514D02*
X168148497Y-87619371D01*
X168148497Y-87619371D02*
X168205640Y-87505085D01*
X168205640Y-87505085D02*
X168319926Y-87447942D01*
X168319926Y-87447942D02*
X168491355Y-87447942D01*
X168491355Y-87447942D02*
X168605640Y-87390800D01*
X168605640Y-87390800D02*
X168662783Y-87276514D01*
X168662783Y-87276514D02*
X168662783Y-87219371D01*
X168662783Y-87219371D02*
X168605640Y-87105085D01*
X168605640Y-87105085D02*
X168491355Y-87047942D01*
X168491355Y-87047942D02*
X168319926Y-87047942D01*
X168319926Y-87047942D02*
X168205640Y-87105085D01*
X167634211Y-87733657D02*
X167577068Y-87790800D01*
X167577068Y-87790800D02*
X167634211Y-87847942D01*
X167634211Y-87847942D02*
X167691354Y-87790800D01*
X167691354Y-87790800D02*
X167634211Y-87733657D01*
X167634211Y-87733657D02*
X167634211Y-87847942D01*
X167634211Y-87105085D02*
X167577068Y-87162228D01*
X167577068Y-87162228D02*
X167634211Y-87219371D01*
X167634211Y-87219371D02*
X167691354Y-87162228D01*
X167691354Y-87162228D02*
X167634211Y-87105085D01*
X167634211Y-87105085D02*
X167634211Y-87219371D01*
X166205639Y-86590800D02*
X167234211Y-88133657D01*
X164948496Y-86590800D02*
X165977068Y-88133657D01*
X164034211Y-87047942D02*
X164034211Y-88019371D01*
X164034211Y-88019371D02*
X164091353Y-88133657D01*
X164091353Y-88133657D02*
X164148496Y-88190800D01*
X164148496Y-88190800D02*
X164262782Y-88247942D01*
X164262782Y-88247942D02*
X164434211Y-88247942D01*
X164434211Y-88247942D02*
X164548496Y-88190800D01*
X164034211Y-87790800D02*
X164148496Y-87847942D01*
X164148496Y-87847942D02*
X164377068Y-87847942D01*
X164377068Y-87847942D02*
X164491353Y-87790800D01*
X164491353Y-87790800D02*
X164548496Y-87733657D01*
X164548496Y-87733657D02*
X164605639Y-87619371D01*
X164605639Y-87619371D02*
X164605639Y-87276514D01*
X164605639Y-87276514D02*
X164548496Y-87162228D01*
X164548496Y-87162228D02*
X164491353Y-87105085D01*
X164491353Y-87105085D02*
X164377068Y-87047942D01*
X164377068Y-87047942D02*
X164148496Y-87047942D01*
X164148496Y-87047942D02*
X164034211Y-87105085D01*
X163462782Y-87847942D02*
X163462782Y-87047942D01*
X163462782Y-86647942D02*
X163519925Y-86705085D01*
X163519925Y-86705085D02*
X163462782Y-86762228D01*
X163462782Y-86762228D02*
X163405639Y-86705085D01*
X163405639Y-86705085D02*
X163462782Y-86647942D01*
X163462782Y-86647942D02*
X163462782Y-86762228D01*
X163062782Y-87047942D02*
X162605639Y-87047942D01*
X162891353Y-86647942D02*
X162891353Y-87676514D01*
X162891353Y-87676514D02*
X162834210Y-87790800D01*
X162834210Y-87790800D02*
X162719925Y-87847942D01*
X162719925Y-87847942D02*
X162605639Y-87847942D01*
X162205639Y-87847942D02*
X162205639Y-86647942D01*
X161691354Y-87847942D02*
X161691354Y-87219371D01*
X161691354Y-87219371D02*
X161748496Y-87105085D01*
X161748496Y-87105085D02*
X161862782Y-87047942D01*
X161862782Y-87047942D02*
X162034211Y-87047942D01*
X162034211Y-87047942D02*
X162148496Y-87105085D01*
X162148496Y-87105085D02*
X162205639Y-87162228D01*
X160605640Y-87047942D02*
X160605640Y-87847942D01*
X161119925Y-87047942D02*
X161119925Y-87676514D01*
X161119925Y-87676514D02*
X161062782Y-87790800D01*
X161062782Y-87790800D02*
X160948497Y-87847942D01*
X160948497Y-87847942D02*
X160777068Y-87847942D01*
X160777068Y-87847942D02*
X160662782Y-87790800D01*
X160662782Y-87790800D02*
X160605640Y-87733657D01*
X160034211Y-87847942D02*
X160034211Y-86647942D01*
X160034211Y-87105085D02*
X159919926Y-87047942D01*
X159919926Y-87047942D02*
X159691354Y-87047942D01*
X159691354Y-87047942D02*
X159577068Y-87105085D01*
X159577068Y-87105085D02*
X159519926Y-87162228D01*
X159519926Y-87162228D02*
X159462783Y-87276514D01*
X159462783Y-87276514D02*
X159462783Y-87619371D01*
X159462783Y-87619371D02*
X159519926Y-87733657D01*
X159519926Y-87733657D02*
X159577068Y-87790800D01*
X159577068Y-87790800D02*
X159691354Y-87847942D01*
X159691354Y-87847942D02*
X159919926Y-87847942D01*
X159919926Y-87847942D02*
X160034211Y-87790800D01*
X158948497Y-87733657D02*
X158891354Y-87790800D01*
X158891354Y-87790800D02*
X158948497Y-87847942D01*
X158948497Y-87847942D02*
X159005640Y-87790800D01*
X159005640Y-87790800D02*
X158948497Y-87733657D01*
X158948497Y-87733657D02*
X158948497Y-87847942D01*
X157862783Y-87790800D02*
X157977068Y-87847942D01*
X157977068Y-87847942D02*
X158205640Y-87847942D01*
X158205640Y-87847942D02*
X158319925Y-87790800D01*
X158319925Y-87790800D02*
X158377068Y-87733657D01*
X158377068Y-87733657D02*
X158434211Y-87619371D01*
X158434211Y-87619371D02*
X158434211Y-87276514D01*
X158434211Y-87276514D02*
X158377068Y-87162228D01*
X158377068Y-87162228D02*
X158319925Y-87105085D01*
X158319925Y-87105085D02*
X158205640Y-87047942D01*
X158205640Y-87047942D02*
X157977068Y-87047942D01*
X157977068Y-87047942D02*
X157862783Y-87105085D01*
X157177069Y-87847942D02*
X157291354Y-87790800D01*
X157291354Y-87790800D02*
X157348497Y-87733657D01*
X157348497Y-87733657D02*
X157405640Y-87619371D01*
X157405640Y-87619371D02*
X157405640Y-87276514D01*
X157405640Y-87276514D02*
X157348497Y-87162228D01*
X157348497Y-87162228D02*
X157291354Y-87105085D01*
X157291354Y-87105085D02*
X157177069Y-87047942D01*
X157177069Y-87047942D02*
X157005640Y-87047942D01*
X157005640Y-87047942D02*
X156891354Y-87105085D01*
X156891354Y-87105085D02*
X156834212Y-87162228D01*
X156834212Y-87162228D02*
X156777069Y-87276514D01*
X156777069Y-87276514D02*
X156777069Y-87619371D01*
X156777069Y-87619371D02*
X156834212Y-87733657D01*
X156834212Y-87733657D02*
X156891354Y-87790800D01*
X156891354Y-87790800D02*
X157005640Y-87847942D01*
X157005640Y-87847942D02*
X157177069Y-87847942D01*
X156262783Y-87847942D02*
X156262783Y-87047942D01*
X156262783Y-87162228D02*
X156205640Y-87105085D01*
X156205640Y-87105085D02*
X156091355Y-87047942D01*
X156091355Y-87047942D02*
X155919926Y-87047942D01*
X155919926Y-87047942D02*
X155805640Y-87105085D01*
X155805640Y-87105085D02*
X155748498Y-87219371D01*
X155748498Y-87219371D02*
X155748498Y-87847942D01*
X155748498Y-87219371D02*
X155691355Y-87105085D01*
X155691355Y-87105085D02*
X155577069Y-87047942D01*
X155577069Y-87047942D02*
X155405640Y-87047942D01*
X155405640Y-87047942D02*
X155291355Y-87105085D01*
X155291355Y-87105085D02*
X155234212Y-87219371D01*
X155234212Y-87219371D02*
X155234212Y-87847942D01*
X153805640Y-86590800D02*
X154834212Y-88133657D01*
X153462783Y-87790800D02*
X153291355Y-87847942D01*
X153291355Y-87847942D02*
X153005640Y-87847942D01*
X153005640Y-87847942D02*
X152891355Y-87790800D01*
X152891355Y-87790800D02*
X152834212Y-87733657D01*
X152834212Y-87733657D02*
X152777069Y-87619371D01*
X152777069Y-87619371D02*
X152777069Y-87505085D01*
X152777069Y-87505085D02*
X152834212Y-87390800D01*
X152834212Y-87390800D02*
X152891355Y-87333657D01*
X152891355Y-87333657D02*
X153005640Y-87276514D01*
X153005640Y-87276514D02*
X153234212Y-87219371D01*
X153234212Y-87219371D02*
X153348497Y-87162228D01*
X153348497Y-87162228D02*
X153405640Y-87105085D01*
X153405640Y-87105085D02*
X153462783Y-86990800D01*
X153462783Y-86990800D02*
X153462783Y-86876514D01*
X153462783Y-86876514D02*
X153405640Y-86762228D01*
X153405640Y-86762228D02*
X153348497Y-86705085D01*
X153348497Y-86705085D02*
X153234212Y-86647942D01*
X153234212Y-86647942D02*
X152948497Y-86647942D01*
X152948497Y-86647942D02*
X152777069Y-86705085D01*
X152434212Y-87047942D02*
X151977069Y-87047942D01*
X152262783Y-86647942D02*
X152262783Y-87676514D01*
X152262783Y-87676514D02*
X152205640Y-87790800D01*
X152205640Y-87790800D02*
X152091355Y-87847942D01*
X152091355Y-87847942D02*
X151977069Y-87847942D01*
X151577069Y-87847942D02*
X151577069Y-87047942D01*
X151577069Y-87276514D02*
X151519926Y-87162228D01*
X151519926Y-87162228D02*
X151462784Y-87105085D01*
X151462784Y-87105085D02*
X151348498Y-87047942D01*
X151348498Y-87047942D02*
X151234212Y-87047942D01*
X150662784Y-87847942D02*
X150777069Y-87790800D01*
X150777069Y-87790800D02*
X150834212Y-87733657D01*
X150834212Y-87733657D02*
X150891355Y-87619371D01*
X150891355Y-87619371D02*
X150891355Y-87276514D01*
X150891355Y-87276514D02*
X150834212Y-87162228D01*
X150834212Y-87162228D02*
X150777069Y-87105085D01*
X150777069Y-87105085D02*
X150662784Y-87047942D01*
X150662784Y-87047942D02*
X150491355Y-87047942D01*
X150491355Y-87047942D02*
X150377069Y-87105085D01*
X150377069Y-87105085D02*
X150319927Y-87162228D01*
X150319927Y-87162228D02*
X150262784Y-87276514D01*
X150262784Y-87276514D02*
X150262784Y-87619371D01*
X150262784Y-87619371D02*
X150319927Y-87733657D01*
X150319927Y-87733657D02*
X150377069Y-87790800D01*
X150377069Y-87790800D02*
X150491355Y-87847942D01*
X150491355Y-87847942D02*
X150662784Y-87847942D01*
X149577070Y-87847942D02*
X149691355Y-87790800D01*
X149691355Y-87790800D02*
X149748498Y-87733657D01*
X149748498Y-87733657D02*
X149805641Y-87619371D01*
X149805641Y-87619371D02*
X149805641Y-87276514D01*
X149805641Y-87276514D02*
X149748498Y-87162228D01*
X149748498Y-87162228D02*
X149691355Y-87105085D01*
X149691355Y-87105085D02*
X149577070Y-87047942D01*
X149577070Y-87047942D02*
X149405641Y-87047942D01*
X149405641Y-87047942D02*
X149291355Y-87105085D01*
X149291355Y-87105085D02*
X149234213Y-87162228D01*
X149234213Y-87162228D02*
X149177070Y-87276514D01*
X149177070Y-87276514D02*
X149177070Y-87619371D01*
X149177070Y-87619371D02*
X149234213Y-87733657D01*
X149234213Y-87733657D02*
X149291355Y-87790800D01*
X149291355Y-87790800D02*
X149405641Y-87847942D01*
X149405641Y-87847942D02*
X149577070Y-87847942D01*
X148491356Y-87847942D02*
X148605641Y-87790800D01*
X148605641Y-87790800D02*
X148662784Y-87733657D01*
X148662784Y-87733657D02*
X148719927Y-87619371D01*
X148719927Y-87619371D02*
X148719927Y-87276514D01*
X148719927Y-87276514D02*
X148662784Y-87162228D01*
X148662784Y-87162228D02*
X148605641Y-87105085D01*
X148605641Y-87105085D02*
X148491356Y-87047942D01*
X148491356Y-87047942D02*
X148319927Y-87047942D01*
X148319927Y-87047942D02*
X148205641Y-87105085D01*
X148205641Y-87105085D02*
X148148499Y-87162228D01*
X148148499Y-87162228D02*
X148091356Y-87276514D01*
X148091356Y-87276514D02*
X148091356Y-87619371D01*
X148091356Y-87619371D02*
X148148499Y-87733657D01*
X148148499Y-87733657D02*
X148205641Y-87790800D01*
X148205641Y-87790800D02*
X148319927Y-87847942D01*
X148319927Y-87847942D02*
X148491356Y-87847942D01*
X147577070Y-87847942D02*
X147577070Y-87047942D01*
X147577070Y-87162228D02*
X147519927Y-87105085D01*
X147519927Y-87105085D02*
X147405642Y-87047942D01*
X147405642Y-87047942D02*
X147234213Y-87047942D01*
X147234213Y-87047942D02*
X147119927Y-87105085D01*
X147119927Y-87105085D02*
X147062785Y-87219371D01*
X147062785Y-87219371D02*
X147062785Y-87847942D01*
X147062785Y-87219371D02*
X147005642Y-87105085D01*
X147005642Y-87105085D02*
X146891356Y-87047942D01*
X146891356Y-87047942D02*
X146719927Y-87047942D01*
X146719927Y-87047942D02*
X146605642Y-87105085D01*
X146605642Y-87105085D02*
X146548499Y-87219371D01*
X146548499Y-87219371D02*
X146548499Y-87847942D01*
X145119927Y-86590800D02*
X146148499Y-88133657D01*
X144148499Y-87847942D02*
X144719927Y-87847942D01*
X144719927Y-87847942D02*
X144719927Y-86647942D01*
X143577070Y-87847942D02*
X143691355Y-87790800D01*
X143691355Y-87790800D02*
X143748498Y-87733657D01*
X143748498Y-87733657D02*
X143805641Y-87619371D01*
X143805641Y-87619371D02*
X143805641Y-87276514D01*
X143805641Y-87276514D02*
X143748498Y-87162228D01*
X143748498Y-87162228D02*
X143691355Y-87105085D01*
X143691355Y-87105085D02*
X143577070Y-87047942D01*
X143577070Y-87047942D02*
X143405641Y-87047942D01*
X143405641Y-87047942D02*
X143291355Y-87105085D01*
X143291355Y-87105085D02*
X143234213Y-87162228D01*
X143234213Y-87162228D02*
X143177070Y-87276514D01*
X143177070Y-87276514D02*
X143177070Y-87619371D01*
X143177070Y-87619371D02*
X143234213Y-87733657D01*
X143234213Y-87733657D02*
X143291355Y-87790800D01*
X143291355Y-87790800D02*
X143405641Y-87847942D01*
X143405641Y-87847942D02*
X143577070Y-87847942D01*
X141977070Y-87847942D02*
X142377070Y-87276514D01*
X142662784Y-87847942D02*
X142662784Y-86647942D01*
X142662784Y-86647942D02*
X142205641Y-86647942D01*
X142205641Y-86647942D02*
X142091356Y-86705085D01*
X142091356Y-86705085D02*
X142034213Y-86762228D01*
X142034213Y-86762228D02*
X141977070Y-86876514D01*
X141977070Y-86876514D02*
X141977070Y-87047942D01*
X141977070Y-87047942D02*
X142034213Y-87162228D01*
X142034213Y-87162228D02*
X142091356Y-87219371D01*
X142091356Y-87219371D02*
X142205641Y-87276514D01*
X142205641Y-87276514D02*
X142662784Y-87276514D01*
X140948499Y-87847942D02*
X140948499Y-87219371D01*
X140948499Y-87219371D02*
X141005641Y-87105085D01*
X141005641Y-87105085D02*
X141119927Y-87047942D01*
X141119927Y-87047942D02*
X141348499Y-87047942D01*
X141348499Y-87047942D02*
X141462784Y-87105085D01*
X140948499Y-87790800D02*
X141062784Y-87847942D01*
X141062784Y-87847942D02*
X141348499Y-87847942D01*
X141348499Y-87847942D02*
X141462784Y-87790800D01*
X141462784Y-87790800D02*
X141519927Y-87676514D01*
X141519927Y-87676514D02*
X141519927Y-87562228D01*
X141519927Y-87562228D02*
X141462784Y-87447942D01*
X141462784Y-87447942D02*
X141348499Y-87390800D01*
X141348499Y-87390800D02*
X141062784Y-87390800D01*
X141062784Y-87390800D02*
X140948499Y-87333657D01*
X140377070Y-87390800D02*
X139462785Y-87390800D01*
X139062785Y-86647942D02*
X138662785Y-87847942D01*
X138662785Y-87847942D02*
X138262785Y-86647942D01*
X137977071Y-86647942D02*
X137234214Y-86647942D01*
X137234214Y-86647942D02*
X137634214Y-87105085D01*
X137634214Y-87105085D02*
X137462785Y-87105085D01*
X137462785Y-87105085D02*
X137348500Y-87162228D01*
X137348500Y-87162228D02*
X137291357Y-87219371D01*
X137291357Y-87219371D02*
X137234214Y-87333657D01*
X137234214Y-87333657D02*
X137234214Y-87619371D01*
X137234214Y-87619371D02*
X137291357Y-87733657D01*
X137291357Y-87733657D02*
X137348500Y-87790800D01*
X137348500Y-87790800D02*
X137462785Y-87847942D01*
X137462785Y-87847942D02*
X137805642Y-87847942D01*
X137805642Y-87847942D02*
X137919928Y-87790800D01*
X137919928Y-87790800D02*
X137977071Y-87733657D01*
X136719928Y-87390800D02*
X135805643Y-87390800D01*
X135234214Y-87847942D02*
X135234214Y-86647942D01*
X135234214Y-86647942D02*
X134777071Y-86647942D01*
X134777071Y-86647942D02*
X134662786Y-86705085D01*
X134662786Y-86705085D02*
X134605643Y-86762228D01*
X134605643Y-86762228D02*
X134548500Y-86876514D01*
X134548500Y-86876514D02*
X134548500Y-87047942D01*
X134548500Y-87047942D02*
X134605643Y-87162228D01*
X134605643Y-87162228D02*
X134662786Y-87219371D01*
X134662786Y-87219371D02*
X134777071Y-87276514D01*
X134777071Y-87276514D02*
X135234214Y-87276514D01*
X133348500Y-87733657D02*
X133405643Y-87790800D01*
X133405643Y-87790800D02*
X133577071Y-87847942D01*
X133577071Y-87847942D02*
X133691357Y-87847942D01*
X133691357Y-87847942D02*
X133862786Y-87790800D01*
X133862786Y-87790800D02*
X133977071Y-87676514D01*
X133977071Y-87676514D02*
X134034214Y-87562228D01*
X134034214Y-87562228D02*
X134091357Y-87333657D01*
X134091357Y-87333657D02*
X134091357Y-87162228D01*
X134091357Y-87162228D02*
X134034214Y-86933657D01*
X134034214Y-86933657D02*
X133977071Y-86819371D01*
X133977071Y-86819371D02*
X133862786Y-86705085D01*
X133862786Y-86705085D02*
X133691357Y-86647942D01*
X133691357Y-86647942D02*
X133577071Y-86647942D01*
X133577071Y-86647942D02*
X133405643Y-86705085D01*
X133405643Y-86705085D02*
X133348500Y-86762228D01*
X132434214Y-87219371D02*
X132262786Y-87276514D01*
X132262786Y-87276514D02*
X132205643Y-87333657D01*
X132205643Y-87333657D02*
X132148500Y-87447942D01*
X132148500Y-87447942D02*
X132148500Y-87619371D01*
X132148500Y-87619371D02*
X132205643Y-87733657D01*
X132205643Y-87733657D02*
X132262786Y-87790800D01*
X132262786Y-87790800D02*
X132377071Y-87847942D01*
X132377071Y-87847942D02*
X132834214Y-87847942D01*
X132834214Y-87847942D02*
X132834214Y-86647942D01*
X132834214Y-86647942D02*
X132434214Y-86647942D01*
X132434214Y-86647942D02*
X132319929Y-86705085D01*
X132319929Y-86705085D02*
X132262786Y-86762228D01*
X132262786Y-86762228D02*
X132205643Y-86876514D01*
X132205643Y-86876514D02*
X132205643Y-86990800D01*
X132205643Y-86990800D02*
X132262786Y-87105085D01*
X132262786Y-87105085D02*
X132319929Y-87162228D01*
X132319929Y-87162228D02*
X132434214Y-87219371D01*
X132434214Y-87219371D02*
X132834214Y-87219371D01*
D13*
%TO.C,G01*%
G36*
X131157826Y-82300355D02*
G01*
X131044932Y-82300355D01*
X131032341Y-82300332D01*
X130984324Y-82299540D01*
X130948353Y-82297201D01*
X130922030Y-82292759D01*
X130902958Y-82285654D01*
X130888740Y-82275328D01*
X130876976Y-82261221D01*
X130874224Y-82256544D01*
X130867239Y-82232252D01*
X130865478Y-82202223D01*
X130868909Y-82173019D01*
X130877501Y-82151202D01*
X130888261Y-82138710D01*
X130904009Y-82128040D01*
X130925682Y-82120622D01*
X130955535Y-82115949D01*
X130995827Y-82113516D01*
X131048814Y-82112818D01*
X131157826Y-82112818D01*
X131157826Y-82300355D01*
G37*
G36*
X131157826Y-82652924D02*
G01*
X131035927Y-82652759D01*
X131006226Y-82652638D01*
X130965786Y-82651964D01*
X130936017Y-82650486D01*
X130914191Y-82647952D01*
X130897580Y-82644109D01*
X130883453Y-82638708D01*
X130859368Y-82622940D01*
X130838857Y-82596038D01*
X130828512Y-82563857D01*
X130828267Y-82529517D01*
X130838058Y-82496141D01*
X130857820Y-82466848D01*
X130887487Y-82444758D01*
X130889612Y-82443696D01*
X130903479Y-82437530D01*
X130917944Y-82433202D01*
X130935887Y-82430394D01*
X130960189Y-82428784D01*
X130993730Y-82428052D01*
X131039392Y-82427880D01*
X131157826Y-82427880D01*
X131157826Y-82652924D01*
G37*
G36*
X130539694Y-78812434D02*
G01*
X130582420Y-78820507D01*
X130625475Y-78837950D01*
X130662202Y-78862217D01*
X130679864Y-78879375D01*
X130708395Y-78920676D01*
X130725045Y-78966594D01*
X130730250Y-79014738D01*
X130724445Y-79062714D01*
X130708065Y-79108132D01*
X130681545Y-79148600D01*
X130645320Y-79181725D01*
X130599826Y-79205117D01*
X130570065Y-79213267D01*
X130518694Y-79216532D01*
X130469933Y-79206961D01*
X130425713Y-79185929D01*
X130387962Y-79154813D01*
X130358608Y-79114987D01*
X130339581Y-79067826D01*
X130332810Y-79014708D01*
X130332893Y-79008832D01*
X130341216Y-78956516D01*
X130361888Y-78909528D01*
X130393078Y-78869733D01*
X130432956Y-78838997D01*
X130479691Y-78819186D01*
X130531453Y-78812168D01*
X130539694Y-78812434D01*
G37*
G36*
X123763791Y-82186639D02*
G01*
X123771989Y-82202738D01*
X123783751Y-82230740D01*
X123798570Y-82269438D01*
X123815939Y-82317622D01*
X123819455Y-82327631D01*
X123834426Y-82370589D01*
X123847361Y-82408239D01*
X123857514Y-82438373D01*
X123864140Y-82458783D01*
X123866493Y-82467263D01*
X123866493Y-82467267D01*
X123859484Y-82469565D01*
X123840828Y-82471239D01*
X123813856Y-82472301D01*
X123781896Y-82472763D01*
X123748280Y-82472638D01*
X123716337Y-82471938D01*
X123689398Y-82470676D01*
X123670793Y-82468863D01*
X123663851Y-82466512D01*
X123664164Y-82464744D01*
X123668047Y-82451255D01*
X123675639Y-82427290D01*
X123686020Y-82395558D01*
X123698274Y-82358768D01*
X123711483Y-82319630D01*
X123724728Y-82280854D01*
X123737091Y-82245150D01*
X123747655Y-82215226D01*
X123755501Y-82193794D01*
X123759712Y-82183561D01*
X123763791Y-82186639D01*
G37*
G36*
X130559944Y-79296017D02*
G01*
X130633784Y-79296091D01*
X130694493Y-79296299D01*
X130743466Y-79296695D01*
X130782098Y-79297332D01*
X130811785Y-79298265D01*
X130833922Y-79299548D01*
X130849904Y-79301233D01*
X130861126Y-79303375D01*
X130868983Y-79306028D01*
X130874871Y-79309245D01*
X130883678Y-79315019D01*
X130893301Y-79322018D01*
X130901137Y-79329828D01*
X130907371Y-79339866D01*
X130912185Y-79353553D01*
X130915764Y-79372309D01*
X130918289Y-79397551D01*
X130919944Y-79430700D01*
X130920913Y-79473174D01*
X130921377Y-79526394D01*
X130921522Y-79591778D01*
X130921530Y-79670746D01*
X130921530Y-79978648D01*
X130752746Y-79982890D01*
X130752746Y-80687537D01*
X130310159Y-80687537D01*
X130310159Y-79982890D01*
X130225768Y-79980769D01*
X130141376Y-79978648D01*
X130141376Y-79608279D01*
X130141474Y-79539968D01*
X130141851Y-79484140D01*
X130142691Y-79439376D01*
X130144176Y-79404256D01*
X130146490Y-79377362D01*
X130149816Y-79357274D01*
X130154336Y-79342572D01*
X130160236Y-79331837D01*
X130167696Y-79323651D01*
X130176902Y-79316593D01*
X130188035Y-79309245D01*
X130189912Y-79308079D01*
X130196316Y-79305061D01*
X130205166Y-79302589D01*
X130217857Y-79300609D01*
X130235785Y-79299067D01*
X130260345Y-79297910D01*
X130292932Y-79297084D01*
X130334941Y-79296535D01*
X130387768Y-79296209D01*
X130452806Y-79296053D01*
X130531453Y-79296013D01*
X130559944Y-79296017D01*
G37*
G36*
X134988388Y-79715811D02*
G01*
X135071815Y-79728696D01*
X135148297Y-79752306D01*
X135170223Y-79761597D01*
X135229330Y-79792307D01*
X135283315Y-79830299D01*
X135337276Y-79878993D01*
X135347813Y-79889558D01*
X135374320Y-79918121D01*
X135394824Y-79944856D01*
X135413073Y-79975056D01*
X135432813Y-80014019D01*
X135457429Y-80070231D01*
X135478119Y-80133687D01*
X135491462Y-80200117D01*
X135498892Y-80275194D01*
X135499033Y-80277562D01*
X135498625Y-80376436D01*
X135486248Y-80472660D01*
X135462423Y-80563515D01*
X135427673Y-80646279D01*
X135413287Y-80670534D01*
X135383293Y-80710903D01*
X135346344Y-80752825D01*
X135305994Y-80792627D01*
X135265795Y-80826641D01*
X135229301Y-80851195D01*
X135207071Y-80862686D01*
X135147721Y-80887449D01*
X135084088Y-80907250D01*
X135023633Y-80919607D01*
X134977454Y-80923548D01*
X134922692Y-80924238D01*
X134865813Y-80921808D01*
X134812459Y-80916500D01*
X134768274Y-80908560D01*
X134714762Y-80891733D01*
X134655133Y-80865522D01*
X134599051Y-80833757D01*
X134552244Y-80799333D01*
X134537457Y-80785919D01*
X134504175Y-80752152D01*
X134470852Y-80714341D01*
X134441365Y-80677008D01*
X134419594Y-80644675D01*
X134406967Y-80623155D01*
X134522003Y-80561578D01*
X134553412Y-80544894D01*
X134587746Y-80526982D01*
X134615713Y-80512761D01*
X134635037Y-80503383D01*
X134643445Y-80500000D01*
X134644334Y-80500193D01*
X134651853Y-80508215D01*
X134660601Y-80524380D01*
X134666882Y-80536435D01*
X134689386Y-80567179D01*
X134719240Y-80598001D01*
X134752012Y-80624624D01*
X134783274Y-80642774D01*
X134819029Y-80654880D01*
X134874868Y-80663395D01*
X134931569Y-80661362D01*
X134985046Y-80649047D01*
X135031210Y-80626714D01*
X135061001Y-80602470D01*
X135095140Y-80558447D01*
X135120704Y-80502406D01*
X135137751Y-80434210D01*
X135146338Y-80353722D01*
X135146573Y-80270490D01*
X135137760Y-80193209D01*
X135119776Y-80127099D01*
X135092765Y-80072381D01*
X135056870Y-80029275D01*
X135012233Y-79998000D01*
X134959000Y-79978777D01*
X134897312Y-79971824D01*
X134868261Y-79972066D01*
X134842222Y-79974679D01*
X134819665Y-79980990D01*
X134794360Y-79992232D01*
X134791674Y-79993579D01*
X134749312Y-80021849D01*
X134712158Y-80059120D01*
X134685101Y-80100547D01*
X134683402Y-80103922D01*
X134674194Y-80118859D01*
X134667394Y-80124927D01*
X134659236Y-80121645D01*
X134639967Y-80112474D01*
X134611782Y-80098498D01*
X134576869Y-80080802D01*
X134537416Y-80060472D01*
X134413284Y-79996018D01*
X134430254Y-79964921D01*
X134431736Y-79962289D01*
X134451583Y-79934065D01*
X134480206Y-79901040D01*
X134514281Y-79866429D01*
X134550488Y-79833444D01*
X134585504Y-79805300D01*
X134616007Y-79785211D01*
X134651858Y-79767398D01*
X134729751Y-79739444D01*
X134814025Y-79721390D01*
X134901348Y-79713444D01*
X134988388Y-79715811D01*
G37*
G36*
X133840865Y-79716917D02*
G01*
X133893468Y-79719859D01*
X133938293Y-79726105D01*
X133979570Y-79736555D01*
X134021528Y-79752105D01*
X134068399Y-79773653D01*
X134080792Y-79779867D01*
X134110773Y-79796783D01*
X134137920Y-79815864D01*
X134166379Y-79840232D01*
X134200292Y-79873010D01*
X134212767Y-79885607D01*
X134242375Y-79917278D01*
X134264651Y-79944948D01*
X134282726Y-79972772D01*
X134299731Y-80004903D01*
X134306010Y-80017858D01*
X134326788Y-80064603D01*
X134342127Y-80107894D01*
X134352777Y-80151404D01*
X134359489Y-80198804D01*
X134363013Y-80253767D01*
X134364098Y-80319965D01*
X134363303Y-80380735D01*
X134359718Y-80440636D01*
X134352630Y-80492138D01*
X134341366Y-80538703D01*
X134325253Y-80583793D01*
X134303617Y-80630870D01*
X134258211Y-80705841D01*
X134201688Y-80771561D01*
X134135467Y-80826464D01*
X134060523Y-80869873D01*
X133977830Y-80901110D01*
X133888364Y-80919497D01*
X133871809Y-80921423D01*
X133773440Y-80925388D01*
X133680102Y-80916190D01*
X133592644Y-80894101D01*
X133511916Y-80859397D01*
X133438765Y-80812352D01*
X133374040Y-80753240D01*
X133355988Y-80732650D01*
X133334776Y-80706370D01*
X133314442Y-80679402D01*
X133297190Y-80654782D01*
X133285223Y-80635545D01*
X133280744Y-80624726D01*
X133280857Y-80624487D01*
X133288684Y-80619170D01*
X133306981Y-80608646D01*
X133333153Y-80594274D01*
X133364608Y-80577411D01*
X133398750Y-80559417D01*
X133432986Y-80541649D01*
X133464721Y-80525465D01*
X133491361Y-80512223D01*
X133510312Y-80503282D01*
X133518979Y-80500000D01*
X133521617Y-80501330D01*
X133530170Y-80512359D01*
X133539952Y-80530909D01*
X133548406Y-80546947D01*
X133576432Y-80584032D01*
X133612534Y-80617378D01*
X133652067Y-80642367D01*
X133656337Y-80644320D01*
X133692853Y-80655137D01*
X133737416Y-80661010D01*
X133784631Y-80661806D01*
X133829103Y-80657392D01*
X133865437Y-80647634D01*
X133913922Y-80620671D01*
X133953623Y-80582686D01*
X133984249Y-80533552D01*
X134005946Y-80472965D01*
X134018858Y-80400620D01*
X134023130Y-80316214D01*
X134019399Y-80236930D01*
X134007253Y-80165215D01*
X133986442Y-80105067D01*
X133956725Y-80055972D01*
X133917861Y-80017417D01*
X133869610Y-79988890D01*
X133837074Y-79978341D01*
X133793710Y-79971855D01*
X133748575Y-79971273D01*
X133706845Y-79976620D01*
X133673698Y-79987923D01*
X133640343Y-80008073D01*
X133602780Y-80041234D01*
X133571593Y-80084298D01*
X133559458Y-80103506D01*
X133548243Y-80118988D01*
X133541886Y-80124927D01*
X133536877Y-80123226D01*
X133520339Y-80115802D01*
X133495106Y-80103719D01*
X133463850Y-80088328D01*
X133429246Y-80070983D01*
X133393969Y-80053038D01*
X133360690Y-80035845D01*
X133332085Y-80020758D01*
X133310827Y-80009129D01*
X133299590Y-80002312D01*
X133293012Y-79996673D01*
X133290652Y-79990166D01*
X133293899Y-79980156D01*
X133303737Y-79963702D01*
X133321151Y-79937866D01*
X133324738Y-79932679D01*
X133375912Y-79870762D01*
X133435958Y-79819387D01*
X133507196Y-79776543D01*
X133520130Y-79770134D01*
X133570033Y-79748457D01*
X133618864Y-79733055D01*
X133670565Y-79723112D01*
X133729078Y-79717815D01*
X133798346Y-79716347D01*
X133840865Y-79716917D01*
G37*
G36*
X125453300Y-79862353D02*
G01*
X125435880Y-80001063D01*
X125405844Y-80136209D01*
X125363450Y-80266299D01*
X125308953Y-80389843D01*
X125242610Y-80505350D01*
X125167508Y-80611757D01*
X125070954Y-80726691D01*
X124966133Y-80830210D01*
X124853747Y-80921857D01*
X124734493Y-81001174D01*
X124609073Y-81067702D01*
X124478184Y-81120984D01*
X124342528Y-81160563D01*
X124202802Y-81185979D01*
X124144044Y-81192322D01*
X123997290Y-81197911D01*
X123850556Y-81189218D01*
X123705550Y-81166475D01*
X123563980Y-81129918D01*
X123427554Y-81079780D01*
X123332072Y-81033884D01*
X123220105Y-80967098D01*
X123111680Y-80888720D01*
X123008925Y-80800597D01*
X122913968Y-80704579D01*
X122828936Y-80602513D01*
X122755957Y-80496250D01*
X122728826Y-80449744D01*
X122670967Y-80330506D01*
X122624683Y-80203803D01*
X122590132Y-80071295D01*
X122567470Y-79934641D01*
X122556853Y-79795501D01*
X122557370Y-79749853D01*
X122822325Y-79749853D01*
X122826424Y-79860113D01*
X122842876Y-79989920D01*
X122872164Y-80112281D01*
X122914553Y-80227787D01*
X122970310Y-80337027D01*
X123039700Y-80440594D01*
X123122991Y-80539076D01*
X123220447Y-80633064D01*
X123287353Y-80688116D01*
X123397083Y-80763401D01*
X123512388Y-80824796D01*
X123633625Y-80872456D01*
X123761149Y-80906534D01*
X123895316Y-80927187D01*
X123916958Y-80929170D01*
X124044586Y-80932228D01*
X124171923Y-80920948D01*
X124297407Y-80895807D01*
X124419475Y-80857285D01*
X124536563Y-80805857D01*
X124647109Y-80742001D01*
X124749551Y-80666195D01*
X124758122Y-80658994D01*
X124860785Y-80563209D01*
X124949893Y-80461074D01*
X125025571Y-80352383D01*
X125087947Y-80236933D01*
X125137150Y-80114517D01*
X125173305Y-79984933D01*
X125179642Y-79948895D01*
X125185585Y-79894071D01*
X125189454Y-79831226D01*
X125191220Y-79764135D01*
X125190857Y-79696574D01*
X125188335Y-79632319D01*
X125183627Y-79575146D01*
X125176704Y-79528831D01*
X125147378Y-79412915D01*
X125102822Y-79291637D01*
X125044907Y-79175861D01*
X124973171Y-79064676D01*
X124887152Y-78957168D01*
X124878512Y-78947457D01*
X124783904Y-78852991D01*
X124681486Y-78771017D01*
X124572047Y-78701868D01*
X124456380Y-78645878D01*
X124335274Y-78603382D01*
X124209521Y-78574714D01*
X124079911Y-78560206D01*
X123947236Y-78560195D01*
X123813804Y-78573854D01*
X123686135Y-78600390D01*
X123565533Y-78639976D01*
X123451400Y-78692891D01*
X123343139Y-78759411D01*
X123240154Y-78839813D01*
X123141849Y-78934375D01*
X123138627Y-78937794D01*
X123052611Y-79038568D01*
X122980765Y-79142990D01*
X122922754Y-79251917D01*
X122878241Y-79366208D01*
X122846889Y-79486722D01*
X122828362Y-79614318D01*
X122822325Y-79749853D01*
X122557370Y-79749853D01*
X122558439Y-79655532D01*
X122572383Y-79516395D01*
X122598844Y-79379749D01*
X122637977Y-79247254D01*
X122644870Y-79228116D01*
X122697875Y-79105423D01*
X122764196Y-78986592D01*
X122842509Y-78873095D01*
X122931486Y-78766404D01*
X123029804Y-78667991D01*
X123136137Y-78579328D01*
X123249158Y-78501887D01*
X123367543Y-78437138D01*
X123416891Y-78414444D01*
X123525984Y-78371763D01*
X123636039Y-78339564D01*
X123750000Y-78317209D01*
X123870811Y-78304057D01*
X124001417Y-78299470D01*
X124002201Y-78299467D01*
X124150512Y-78304844D01*
X124290444Y-78322251D01*
X124423029Y-78352033D01*
X124549300Y-78394539D01*
X124670288Y-78450115D01*
X124787026Y-78519108D01*
X124900546Y-78601865D01*
X124918592Y-78616529D01*
X125024503Y-78712823D01*
X125120786Y-78818410D01*
X125206551Y-78931874D01*
X125280904Y-79051800D01*
X125342953Y-79176771D01*
X125391806Y-79305372D01*
X125426569Y-79436188D01*
X125427305Y-79439739D01*
X125449269Y-79580200D01*
X125457849Y-79721568D01*
X125456474Y-79764135D01*
X125453300Y-79862353D01*
G37*
G36*
X124091683Y-78988506D02*
G01*
X124146604Y-78995448D01*
X124198998Y-79007427D01*
X124289493Y-79039190D01*
X124371459Y-79083033D01*
X124444362Y-79138440D01*
X124507666Y-79204897D01*
X124560838Y-79281889D01*
X124603341Y-79368901D01*
X124634642Y-79465418D01*
X124652475Y-79536061D01*
X124705771Y-79538265D01*
X124708516Y-79538385D01*
X124734088Y-79540262D01*
X124752194Y-79542927D01*
X124759067Y-79545842D01*
X124754752Y-79551482D01*
X124741100Y-79566430D01*
X124719475Y-79589145D01*
X124691277Y-79618175D01*
X124657909Y-79652064D01*
X124620771Y-79689360D01*
X124578896Y-79731056D01*
X124545911Y-79763466D01*
X124520862Y-79787342D01*
X124502456Y-79803773D01*
X124489399Y-79813846D01*
X124480399Y-79818650D01*
X124474162Y-79819275D01*
X124469395Y-79816809D01*
X124464207Y-79812064D01*
X124448983Y-79797318D01*
X124425990Y-79774617D01*
X124396843Y-79745566D01*
X124363158Y-79711771D01*
X124326550Y-79674838D01*
X124196784Y-79543562D01*
X124295820Y-79539084D01*
X124291344Y-79511501D01*
X124290019Y-79504638D01*
X124277896Y-79467834D01*
X124258453Y-79428136D01*
X124234892Y-79391398D01*
X124210411Y-79363472D01*
X124208134Y-79361440D01*
X124160511Y-79328284D01*
X124103368Y-79304858D01*
X124035307Y-79290579D01*
X124007845Y-79287675D01*
X123934678Y-79288377D01*
X123868770Y-79302136D01*
X123810421Y-79328738D01*
X123759929Y-79367971D01*
X123717593Y-79419621D01*
X123683713Y-79483474D01*
X123658586Y-79559319D01*
X123657332Y-79564459D01*
X123652588Y-79588874D01*
X123649231Y-79617236D01*
X123647077Y-79652304D01*
X123645943Y-79696840D01*
X123645644Y-79753603D01*
X123645810Y-79803733D01*
X123646409Y-79842549D01*
X123647746Y-79872424D01*
X123650123Y-79896406D01*
X123653843Y-79917544D01*
X123659210Y-79938886D01*
X123666527Y-79963480D01*
X123670521Y-79976177D01*
X123690039Y-80029921D01*
X123711554Y-80073821D01*
X123737439Y-80112133D01*
X123770068Y-80149111D01*
X123811942Y-80186428D01*
X123856780Y-80213096D01*
X123906808Y-80229062D01*
X123966024Y-80236102D01*
X124008877Y-80236673D01*
X124080971Y-80229479D01*
X124143361Y-80211736D01*
X124195629Y-80183636D01*
X124237355Y-80145371D01*
X124268122Y-80097135D01*
X124275449Y-80079527D01*
X124285992Y-80045809D01*
X124291906Y-80015284D01*
X124296074Y-79974897D01*
X124478811Y-79974897D01*
X124528840Y-79974989D01*
X124575958Y-79975391D01*
X124610974Y-79976193D01*
X124635464Y-79977485D01*
X124651006Y-79979356D01*
X124659175Y-79981894D01*
X124661547Y-79985187D01*
X124660213Y-79996718D01*
X124654999Y-80021462D01*
X124646860Y-80053579D01*
X124636891Y-80089199D01*
X124626184Y-80124453D01*
X124615834Y-80155473D01*
X124606934Y-80178389D01*
X124572948Y-80243891D01*
X124519191Y-80319619D01*
X124454851Y-80385577D01*
X124380941Y-80441031D01*
X124298474Y-80485247D01*
X124208463Y-80517490D01*
X124111922Y-80537027D01*
X124067478Y-80541840D01*
X124025379Y-80543658D01*
X123981795Y-80542131D01*
X123930153Y-80537266D01*
X123892163Y-80532071D01*
X123789558Y-80508398D01*
X123693934Y-80471939D01*
X123606055Y-80423423D01*
X123526682Y-80363578D01*
X123456579Y-80293132D01*
X123396507Y-80212815D01*
X123347229Y-80123354D01*
X123309508Y-80025478D01*
X123284105Y-79919917D01*
X123277116Y-79862396D01*
X123274043Y-79794635D01*
X123274936Y-79722687D01*
X123279608Y-79651263D01*
X123287874Y-79585071D01*
X123299547Y-79528823D01*
X123317659Y-79469470D01*
X123358590Y-79371488D01*
X123410358Y-79283341D01*
X123472496Y-79205503D01*
X123544538Y-79138444D01*
X123626018Y-79082636D01*
X123716469Y-79038553D01*
X123815427Y-79006664D01*
X123833571Y-79002558D01*
X123893406Y-78993126D01*
X123959856Y-78987522D01*
X124027691Y-78985923D01*
X124091683Y-78988506D01*
G37*
G36*
X131980532Y-79808022D02*
G01*
X131968456Y-79946527D01*
X131943649Y-80082850D01*
X131906159Y-80215474D01*
X131856034Y-80342886D01*
X131793324Y-80463571D01*
X131773208Y-80496487D01*
X131698510Y-80603451D01*
X131612614Y-80706490D01*
X131517810Y-80803388D01*
X131416387Y-80891931D01*
X131310632Y-80969903D01*
X131202835Y-81035089D01*
X131136553Y-81067835D01*
X131043976Y-81106163D01*
X130947030Y-81139103D01*
X130850770Y-81164977D01*
X130760248Y-81182106D01*
X130757930Y-81182436D01*
X130727854Y-81186783D01*
X130701819Y-81190669D01*
X130685233Y-81193287D01*
X130665393Y-81195023D01*
X130633188Y-81195842D01*
X130591728Y-81195802D01*
X130543893Y-81195001D01*
X130492565Y-81193537D01*
X130440623Y-81191506D01*
X130390950Y-81189008D01*
X130346425Y-81186139D01*
X130309929Y-81182998D01*
X130284342Y-81179682D01*
X130264795Y-81176119D01*
X130121224Y-81141734D01*
X129984168Y-81093971D01*
X129853354Y-81032689D01*
X129728513Y-80957745D01*
X129609371Y-80868997D01*
X129495659Y-80766303D01*
X129410929Y-80675503D01*
X129323087Y-80561957D01*
X129248714Y-80441824D01*
X129187836Y-80315155D01*
X129140480Y-80182001D01*
X129106673Y-80042410D01*
X129094760Y-79967504D01*
X129083598Y-79841863D01*
X129082853Y-79781809D01*
X129343919Y-79781809D01*
X129353548Y-79915410D01*
X129377153Y-80043881D01*
X129414674Y-80166996D01*
X129466050Y-80284528D01*
X129531222Y-80396252D01*
X129537949Y-80406084D01*
X129570163Y-80448009D01*
X129611001Y-80495329D01*
X129657724Y-80545283D01*
X129707594Y-80595111D01*
X129757870Y-80642052D01*
X129805814Y-80683343D01*
X129848686Y-80716225D01*
X129931028Y-80769815D01*
X130044224Y-80829458D01*
X130161406Y-80875183D01*
X130284166Y-80907584D01*
X130414099Y-80927258D01*
X130498782Y-80932719D01*
X130629229Y-80929148D01*
X130757597Y-80911226D01*
X130882713Y-80879276D01*
X131003407Y-80833622D01*
X131118508Y-80774588D01*
X131226843Y-80702499D01*
X131309013Y-80634542D01*
X131390060Y-80555192D01*
X131465426Y-80469040D01*
X131532136Y-80379494D01*
X131587213Y-80289959D01*
X131626995Y-80208066D01*
X131668040Y-80095104D01*
X131697013Y-79976381D01*
X131713768Y-79853867D01*
X131718159Y-79729531D01*
X131710040Y-79605343D01*
X131689265Y-79483272D01*
X131655688Y-79365286D01*
X131617475Y-79268930D01*
X131565098Y-79167043D01*
X131501444Y-79069824D01*
X131425281Y-78975413D01*
X131335375Y-78881950D01*
X131303607Y-78852290D01*
X131203057Y-78770256D01*
X131098287Y-78702393D01*
X130988629Y-78648357D01*
X130873417Y-78607802D01*
X130751984Y-78580384D01*
X130683340Y-78570441D01*
X130545192Y-78560514D01*
X130411657Y-78564772D01*
X130282906Y-78583163D01*
X130159111Y-78615639D01*
X130040443Y-78662147D01*
X129927074Y-78722638D01*
X129819176Y-78797060D01*
X129716920Y-78885364D01*
X129700029Y-78901782D01*
X129608556Y-79000472D01*
X129531422Y-79102344D01*
X129468178Y-79208375D01*
X129418375Y-79319539D01*
X129381564Y-79436813D01*
X129357296Y-79561172D01*
X129345124Y-79693592D01*
X129343919Y-79781809D01*
X129082853Y-79781809D01*
X129081991Y-79712384D01*
X129089791Y-79583036D01*
X129106849Y-79457786D01*
X129133017Y-79340602D01*
X129175113Y-79213558D01*
X129231766Y-79087512D01*
X129300979Y-78967099D01*
X129381721Y-78853404D01*
X129472962Y-78747513D01*
X129573674Y-78650512D01*
X129682825Y-78563486D01*
X129799387Y-78487522D01*
X129922328Y-78423705D01*
X130050621Y-78373121D01*
X130115273Y-78352999D01*
X130215358Y-78328197D01*
X130316532Y-78311424D01*
X130422996Y-78302045D01*
X130538954Y-78299426D01*
X130562932Y-78299643D01*
X130657643Y-78303116D01*
X130743985Y-78311153D01*
X130826926Y-78324338D01*
X130911435Y-78343257D01*
X131015661Y-78374470D01*
X131142719Y-78426161D01*
X131264730Y-78491047D01*
X131380731Y-78568327D01*
X131489760Y-78657202D01*
X131590856Y-78756871D01*
X131683056Y-78866535D01*
X131765399Y-78985395D01*
X131836922Y-79112650D01*
X131848219Y-79135761D01*
X131900536Y-79262462D01*
X131939877Y-79394553D01*
X131966291Y-79530520D01*
X131979826Y-79668848D01*
X131980134Y-79729531D01*
X131980532Y-79808022D01*
G37*
G36*
X136339372Y-80381764D02*
G01*
X136336448Y-80456663D01*
X136332057Y-80527403D01*
X136326300Y-80590386D01*
X136319282Y-80642011D01*
X136306112Y-80712583D01*
X136267083Y-80871860D01*
X136216215Y-81023251D01*
X136153007Y-81167712D01*
X136076958Y-81306202D01*
X135987566Y-81439676D01*
X135884328Y-81569091D01*
X135766744Y-81695403D01*
X135699780Y-81760244D01*
X135612741Y-81837200D01*
X135524296Y-81906577D01*
X135430174Y-81971883D01*
X135395583Y-81994053D01*
X135262155Y-82070506D01*
X135125477Y-82134306D01*
X134983972Y-82185969D01*
X134836065Y-82226017D01*
X134680178Y-82254968D01*
X134514737Y-82273341D01*
X134487209Y-82274639D01*
X134443336Y-82275049D01*
X134391030Y-82274330D01*
X134333840Y-82272619D01*
X134275317Y-82270050D01*
X134219013Y-82266760D01*
X134168479Y-82262884D01*
X134127264Y-82258557D01*
X134027196Y-82243187D01*
X133863524Y-82206182D01*
X133705080Y-82155118D01*
X133551885Y-82090006D01*
X133403958Y-82010857D01*
X133261323Y-81917681D01*
X133123998Y-81810488D01*
X132992005Y-81689289D01*
X132984526Y-81681854D01*
X132928416Y-81624325D01*
X132880045Y-81570810D01*
X132835807Y-81516946D01*
X132792098Y-81458371D01*
X132745314Y-81390725D01*
X132682951Y-81290941D01*
X132608696Y-81147805D01*
X132547891Y-80998056D01*
X132500613Y-80841867D01*
X132472916Y-80716913D01*
X132447934Y-80548744D01*
X132436428Y-80379738D01*
X132436693Y-80355446D01*
X132790133Y-80355446D01*
X132792265Y-80431978D01*
X132796667Y-80502375D01*
X132803343Y-80562392D01*
X132829659Y-80702754D01*
X132869565Y-80844692D01*
X132922017Y-80978983D01*
X132987405Y-81106378D01*
X133066116Y-81227626D01*
X133158540Y-81343478D01*
X133265063Y-81454685D01*
X133329900Y-81514296D01*
X133452324Y-81613116D01*
X133578838Y-81697705D01*
X133709954Y-81768323D01*
X133846186Y-81825233D01*
X133988049Y-81868698D01*
X134136055Y-81898978D01*
X134147281Y-81900634D01*
X134201248Y-81906529D01*
X134264603Y-81910875D01*
X134333304Y-81913599D01*
X134403307Y-81914631D01*
X134470569Y-81913899D01*
X134531045Y-81911331D01*
X134580693Y-81906855D01*
X134583828Y-81906455D01*
X134715851Y-81884798D01*
X134838492Y-81854621D01*
X134955306Y-81814892D01*
X135069846Y-81764576D01*
X135150634Y-81722476D01*
X135253270Y-81659984D01*
X135350902Y-81589177D01*
X135446355Y-81507962D01*
X135542452Y-81414244D01*
X135543921Y-81412724D01*
X135648672Y-81294405D01*
X135739262Y-81171157D01*
X135815751Y-81042834D01*
X135878200Y-80909288D01*
X135926667Y-80770375D01*
X135961212Y-80625948D01*
X135981896Y-80475860D01*
X135988777Y-80319965D01*
X135988665Y-80299609D01*
X135980100Y-80144887D01*
X135957825Y-79995878D01*
X135921722Y-79852296D01*
X135871672Y-79713853D01*
X135807557Y-79580260D01*
X135729258Y-79451231D01*
X135636657Y-79326477D01*
X135529634Y-79205711D01*
X135507106Y-79182639D01*
X135395050Y-79078386D01*
X135279575Y-78988301D01*
X135159875Y-78911860D01*
X135035144Y-78848538D01*
X134904580Y-78797809D01*
X134876298Y-78788705D01*
X134737354Y-78752754D01*
X134593112Y-78729059D01*
X134445887Y-78717627D01*
X134297993Y-78718466D01*
X134151747Y-78731582D01*
X134009463Y-78756982D01*
X133873457Y-78794674D01*
X133753557Y-78840683D01*
X133623352Y-78905088D01*
X133497636Y-78982613D01*
X133377927Y-79072313D01*
X133265741Y-79173243D01*
X133179484Y-79264123D01*
X133083297Y-79383463D01*
X133000846Y-79508597D01*
X132931898Y-79639979D01*
X132876220Y-79778065D01*
X132833579Y-79923309D01*
X132803742Y-80076167D01*
X132797325Y-80131509D01*
X132792667Y-80200965D01*
X132790268Y-80277026D01*
X132790133Y-80355446D01*
X132436693Y-80355446D01*
X132438268Y-80211185D01*
X132453327Y-80044373D01*
X132481473Y-79880592D01*
X132522578Y-79721132D01*
X132576513Y-79567282D01*
X132643147Y-79420331D01*
X132702545Y-79312938D01*
X132789422Y-79181088D01*
X132889266Y-79054494D01*
X133002955Y-78931961D01*
X133019191Y-78915888D01*
X133148107Y-78799231D01*
X133282666Y-78696452D01*
X133422968Y-78607509D01*
X133569113Y-78532362D01*
X133721200Y-78470970D01*
X133879329Y-78423291D01*
X134043599Y-78389286D01*
X134214111Y-78368913D01*
X134390963Y-78362131D01*
X134514704Y-78365499D01*
X134685845Y-78381950D01*
X134850914Y-78412106D01*
X135009964Y-78455982D01*
X135163046Y-78513594D01*
X135310213Y-78584958D01*
X135451517Y-78670087D01*
X135475377Y-78686160D01*
X135555841Y-78744027D01*
X135631131Y-78804665D01*
X135705372Y-78871537D01*
X135782691Y-78948108D01*
X135871775Y-79045349D01*
X135979487Y-79181138D01*
X136073423Y-79322714D01*
X136153523Y-79469953D01*
X136219727Y-79622730D01*
X136271978Y-79780920D01*
X136310215Y-79944398D01*
X136334380Y-80113038D01*
X136338310Y-80168126D01*
X136340406Y-80233896D01*
X136340725Y-80306309D01*
X136340480Y-80319965D01*
X136339372Y-80381764D01*
G37*
G36*
X128605695Y-79177946D02*
G01*
X128654203Y-79306813D01*
X128688675Y-79438541D01*
X128698925Y-79494509D01*
X128714509Y-79628430D01*
X128718578Y-79762827D01*
X128718645Y-79765029D01*
X128711446Y-79901085D01*
X128693025Y-80033376D01*
X128663493Y-80158683D01*
X128662988Y-80160419D01*
X128623705Y-80273081D01*
X128571972Y-80386517D01*
X128509635Y-80497097D01*
X128438541Y-80601191D01*
X128435373Y-80605370D01*
X128401782Y-80646674D01*
X128360215Y-80693738D01*
X128313912Y-80743177D01*
X128266119Y-80791609D01*
X128220078Y-80835649D01*
X128179032Y-80871914D01*
X128121148Y-80917853D01*
X128001984Y-80998669D01*
X127876957Y-81065737D01*
X127745732Y-81119202D01*
X127607975Y-81159213D01*
X127463349Y-81185916D01*
X127462772Y-81185994D01*
X127394708Y-81192655D01*
X127317445Y-81196003D01*
X127236367Y-81196035D01*
X127156857Y-81192748D01*
X127084300Y-81186139D01*
X126979696Y-81169580D01*
X126839855Y-81134963D01*
X126705825Y-81086685D01*
X126577350Y-81024617D01*
X126454174Y-80948633D01*
X126336042Y-80858602D01*
X126222695Y-80754398D01*
X126209356Y-80740851D01*
X126113731Y-80632111D01*
X126031286Y-80516244D01*
X125962139Y-80393485D01*
X125934414Y-80329104D01*
X126229356Y-80329104D01*
X126232204Y-80335711D01*
X126242054Y-80352597D01*
X126257283Y-80376617D01*
X126276154Y-80404958D01*
X126298726Y-80435592D01*
X126335464Y-80479896D01*
X126378813Y-80527891D01*
X126425828Y-80576550D01*
X126473565Y-80622844D01*
X126519077Y-80663745D01*
X126559421Y-80696225D01*
X126592930Y-80720225D01*
X126706157Y-80789914D01*
X126824687Y-80846197D01*
X126947369Y-80888581D01*
X127073048Y-80916571D01*
X127099692Y-80920391D01*
X127157289Y-80926199D01*
X127219892Y-80929969D01*
X127282561Y-80931532D01*
X127340355Y-80930719D01*
X127388334Y-80927360D01*
X127406526Y-80925177D01*
X127539637Y-80901162D01*
X127666045Y-80863799D01*
X127785592Y-80813154D01*
X127898115Y-80749293D01*
X128003455Y-80672282D01*
X128035157Y-80644785D01*
X128076261Y-80606199D01*
X128119268Y-80563345D01*
X128160812Y-80519679D01*
X128197526Y-80478658D01*
X128226043Y-80443739D01*
X128231081Y-80437044D01*
X128301982Y-80329653D01*
X128360749Y-80214038D01*
X128406801Y-80091508D01*
X128439555Y-79963373D01*
X128443646Y-79938557D01*
X128448974Y-79887260D01*
X128452350Y-79827381D01*
X128453770Y-79762827D01*
X128453231Y-79697508D01*
X128450731Y-79635335D01*
X128446268Y-79580216D01*
X128439839Y-79536061D01*
X128436971Y-79522160D01*
X128429528Y-79489114D01*
X128420993Y-79454134D01*
X128412244Y-79420534D01*
X128404159Y-79391627D01*
X128397616Y-79370728D01*
X128393494Y-79361151D01*
X128387292Y-79363398D01*
X128368403Y-79371279D01*
X128337901Y-79384361D01*
X128296865Y-79402170D01*
X128246373Y-79424234D01*
X128187503Y-79450080D01*
X128121334Y-79479237D01*
X128048942Y-79511232D01*
X127971408Y-79545593D01*
X127889808Y-79581846D01*
X127835717Y-79605905D01*
X127749903Y-79644068D01*
X127665745Y-79681485D01*
X127584751Y-79717488D01*
X127508425Y-79751407D01*
X127438275Y-79782573D01*
X127375807Y-79810317D01*
X127322527Y-79833969D01*
X127279942Y-79852860D01*
X127249557Y-79866322D01*
X127196311Y-79890242D01*
X127155095Y-79910029D01*
X127124595Y-79926955D01*
X127103217Y-79942420D01*
X127089365Y-79957822D01*
X127081445Y-79974560D01*
X127077863Y-79994032D01*
X127077023Y-80017637D01*
X127078871Y-80044518D01*
X127091299Y-80085090D01*
X127115492Y-80116505D01*
X127151519Y-80138818D01*
X127199454Y-80152082D01*
X127259365Y-80156353D01*
X127279025Y-80156027D01*
X127348814Y-80149411D01*
X127410897Y-80133271D01*
X127469325Y-80106263D01*
X127528149Y-80067039D01*
X127577946Y-80029277D01*
X127677932Y-80129470D01*
X127693562Y-80145040D01*
X127725406Y-80176539D01*
X127747760Y-80199777D01*
X127760906Y-80216911D01*
X127765121Y-80230098D01*
X127760686Y-80241494D01*
X127747880Y-80253256D01*
X127726981Y-80267541D01*
X127698270Y-80286505D01*
X127658275Y-80311557D01*
X127572555Y-80353555D01*
X127482747Y-80383187D01*
X127392147Y-80399239D01*
X127339965Y-80404381D01*
X127337894Y-80514078D01*
X127335824Y-80623775D01*
X127251432Y-80625896D01*
X127167041Y-80628017D01*
X127167041Y-80405901D01*
X127105153Y-80393126D01*
X127057082Y-80380685D01*
X126983295Y-80350448D01*
X126918034Y-80309071D01*
X126862434Y-80257495D01*
X126817628Y-80196659D01*
X126784751Y-80127506D01*
X126767965Y-80081325D01*
X126684322Y-80118561D01*
X126652316Y-80132815D01*
X126561744Y-80173227D01*
X126483917Y-80208087D01*
X126418078Y-80237745D01*
X126363471Y-80262551D01*
X126319340Y-80282856D01*
X126284929Y-80299009D01*
X126259481Y-80311361D01*
X126242241Y-80320260D01*
X126232451Y-80326058D01*
X126229356Y-80329104D01*
X125934414Y-80329104D01*
X125906409Y-80264071D01*
X125864215Y-80128236D01*
X125835675Y-79986218D01*
X125829001Y-79936062D01*
X125818712Y-79789885D01*
X125819262Y-79763860D01*
X126083777Y-79763860D01*
X126085698Y-79834304D01*
X126090162Y-79899846D01*
X126097171Y-79956143D01*
X126102090Y-79984718D01*
X126107784Y-80014805D01*
X126112563Y-80036907D01*
X126115736Y-80047603D01*
X126116519Y-80048190D01*
X126126391Y-80047003D01*
X126147484Y-80040188D01*
X126180253Y-80027562D01*
X126225155Y-80008943D01*
X126282647Y-79984148D01*
X126353186Y-79952997D01*
X126371923Y-79944652D01*
X126428831Y-79919311D01*
X126496279Y-79889281D01*
X126571986Y-79855577D01*
X126653668Y-79819216D01*
X126739043Y-79781214D01*
X126825830Y-79742586D01*
X126911745Y-79704349D01*
X126994507Y-79667518D01*
X127064958Y-79636077D01*
X127134773Y-79604731D01*
X127199346Y-79575549D01*
X127257466Y-79549086D01*
X127307920Y-79525901D01*
X127349497Y-79506549D01*
X127380985Y-79491588D01*
X127401173Y-79481576D01*
X127408848Y-79477068D01*
X127413540Y-79466388D01*
X127415036Y-79440410D01*
X127407310Y-79411978D01*
X127391379Y-79386373D01*
X127367242Y-79365743D01*
X127327534Y-79347560D01*
X127279625Y-79338234D01*
X127225687Y-79337748D01*
X127167892Y-79346084D01*
X127108410Y-79363224D01*
X127049413Y-79389150D01*
X126995547Y-79417288D01*
X126899749Y-79321278D01*
X126871072Y-79292232D01*
X126844753Y-79264937D01*
X126824285Y-79243004D01*
X126811276Y-79228160D01*
X126807336Y-79222130D01*
X126807797Y-79221752D01*
X126817083Y-79215338D01*
X126835077Y-79203460D01*
X126858397Y-79188355D01*
X126888661Y-79170513D01*
X126950878Y-79141131D01*
X127016357Y-79118122D01*
X127078574Y-79103987D01*
X127079951Y-79103778D01*
X127109289Y-79099246D01*
X127134394Y-79095242D01*
X127149962Y-79092610D01*
X127153228Y-79091925D01*
X127158774Y-79089350D01*
X127162624Y-79083367D01*
X127165161Y-79071658D01*
X127166766Y-79051903D01*
X127167824Y-79021785D01*
X127168716Y-78978983D01*
X127170791Y-78868429D01*
X127335824Y-78868429D01*
X127337899Y-78978983D01*
X127338314Y-79000408D01*
X127339236Y-79037089D01*
X127340502Y-79062162D01*
X127342494Y-79077950D01*
X127345595Y-79086775D01*
X127350187Y-79090962D01*
X127356653Y-79092833D01*
X127369423Y-79095337D01*
X127393311Y-79099993D01*
X127421068Y-79105384D01*
X127484874Y-79124083D01*
X127547009Y-79154732D01*
X127603102Y-79194987D01*
X127650301Y-79242789D01*
X127685749Y-79296082D01*
X127687401Y-79299255D01*
X127700087Y-79322284D01*
X127710275Y-79338564D01*
X127715890Y-79344745D01*
X127721967Y-79342432D01*
X127740153Y-79334720D01*
X127768608Y-79322375D01*
X127805521Y-79306201D01*
X127849082Y-79287006D01*
X127897479Y-79265595D01*
X127948902Y-79242774D01*
X128001540Y-79219349D01*
X128053582Y-79196126D01*
X128103217Y-79173911D01*
X128148635Y-79153510D01*
X128188024Y-79135729D01*
X128219575Y-79121374D01*
X128241475Y-79111251D01*
X128251914Y-79106166D01*
X128254145Y-79104504D01*
X128255801Y-79098140D01*
X128251163Y-79086775D01*
X128239131Y-79068232D01*
X128218602Y-79040334D01*
X128176081Y-78988292D01*
X128123425Y-78931020D01*
X128065774Y-78873977D01*
X128007156Y-78821142D01*
X127951595Y-78776492D01*
X127906040Y-78745188D01*
X127841252Y-78706558D01*
X127771249Y-78669981D01*
X127701258Y-78638155D01*
X127636507Y-78613780D01*
X127628026Y-78611062D01*
X127540333Y-78588301D01*
X127444065Y-78571732D01*
X127344046Y-78561849D01*
X127245096Y-78559146D01*
X127152038Y-78564117D01*
X127066778Y-78575179D01*
X126945982Y-78600527D01*
X126833315Y-78636968D01*
X126727144Y-78685284D01*
X126625836Y-78746258D01*
X126527759Y-78820670D01*
X126431281Y-78909304D01*
X126421539Y-78919101D01*
X126336774Y-79012340D01*
X126265767Y-79106899D01*
X126207418Y-79204850D01*
X126160629Y-79308270D01*
X126124301Y-79419232D01*
X126097335Y-79539811D01*
X126093254Y-79566539D01*
X126087557Y-79625634D01*
X126084397Y-79692856D01*
X126083777Y-79763860D01*
X125819262Y-79763860D01*
X125821790Y-79644337D01*
X125838003Y-79501038D01*
X125867117Y-79361608D01*
X125908898Y-79227667D01*
X125963114Y-79100836D01*
X125966588Y-79093825D01*
X126034457Y-78973643D01*
X126114250Y-78860157D01*
X126204706Y-78754392D01*
X126304564Y-78657370D01*
X126412562Y-78570118D01*
X126527440Y-78493659D01*
X126647936Y-78429017D01*
X126772789Y-78377216D01*
X126900738Y-78339282D01*
X126924909Y-78333742D01*
X127067685Y-78309011D01*
X127211137Y-78297397D01*
X127353831Y-78298703D01*
X127494335Y-78312731D01*
X127631217Y-78339282D01*
X127763044Y-78378160D01*
X127888385Y-78429164D01*
X128005805Y-78492099D01*
X128068957Y-78532829D01*
X128183281Y-78619028D01*
X128288826Y-78715374D01*
X128384716Y-78820654D01*
X128470075Y-78933652D01*
X128544027Y-79053154D01*
X128566258Y-79098140D01*
X128605695Y-79177946D01*
G37*
G36*
X137001365Y-82795452D02*
G01*
X137001586Y-83081552D01*
X136979604Y-83103535D01*
X136957622Y-83125517D01*
X122042378Y-83125517D01*
X122020395Y-83103535D01*
X121998413Y-83081552D01*
X121998639Y-82789826D01*
X123363713Y-82789826D01*
X123363748Y-82789977D01*
X123371697Y-82792106D01*
X123391585Y-82793839D01*
X123420538Y-82795001D01*
X123455685Y-82795418D01*
X123547578Y-82795384D01*
X123577693Y-82707276D01*
X123607808Y-82619167D01*
X123922652Y-82619167D01*
X123982664Y-82791701D01*
X124075261Y-82793813D01*
X124110071Y-82794182D01*
X124140254Y-82793473D01*
X124159296Y-82791679D01*
X124165279Y-82788906D01*
X124163147Y-82783239D01*
X124156100Y-82764567D01*
X124144616Y-82734161D01*
X124129172Y-82693285D01*
X124110245Y-82643202D01*
X124088314Y-82585178D01*
X124075642Y-82551654D01*
X124193285Y-82551654D01*
X124193941Y-82585131D01*
X124196598Y-82612340D01*
X124202147Y-82634373D01*
X124211479Y-82656358D01*
X124242161Y-82703854D01*
X124285735Y-82744939D01*
X124340240Y-82776796D01*
X124375841Y-82788906D01*
X124404737Y-82798735D01*
X124414263Y-82800944D01*
X124489243Y-82812018D01*
X124564461Y-82812737D01*
X124636836Y-82803467D01*
X124703287Y-82784574D01*
X124760735Y-82756424D01*
X124802099Y-82724417D01*
X124841639Y-82677211D01*
X124869190Y-82622045D01*
X124883625Y-82560717D01*
X124888715Y-82517403D01*
X124799626Y-82519526D01*
X124710537Y-82521648D01*
X124706137Y-82547903D01*
X124698878Y-82574945D01*
X124677215Y-82612799D01*
X124644741Y-82642477D01*
X124603111Y-82662984D01*
X124553982Y-82673323D01*
X124499010Y-82672498D01*
X124465263Y-82667037D01*
X124422343Y-82653271D01*
X124392346Y-82632921D01*
X124374740Y-82605570D01*
X124368990Y-82570800D01*
X124369207Y-82562480D01*
X124372735Y-82541136D01*
X124381780Y-82523031D01*
X124397884Y-82507183D01*
X124408874Y-82500700D01*
X126522286Y-82500700D01*
X126525173Y-82517403D01*
X126525514Y-82519374D01*
X126532811Y-82546921D01*
X126536164Y-82558845D01*
X126563440Y-82627628D01*
X126601259Y-82686828D01*
X126648770Y-82735540D01*
X126705122Y-82772862D01*
X126769462Y-82797891D01*
X126797284Y-82804615D01*
X126875431Y-82814215D01*
X126950771Y-82810180D01*
X127012539Y-82795452D01*
X127414589Y-82795452D01*
X127599177Y-82795452D01*
X127767294Y-82524847D01*
X127787432Y-82492473D01*
X127822069Y-82436996D01*
X127853899Y-82386268D01*
X127882076Y-82341625D01*
X127905752Y-82304401D01*
X127924080Y-82275932D01*
X127936212Y-82257553D01*
X127941303Y-82250600D01*
X127941352Y-82250579D01*
X127942689Y-82257460D01*
X127943917Y-82277654D01*
X127945002Y-82309528D01*
X127945908Y-82351453D01*
X127946599Y-82401795D01*
X127947039Y-82458923D01*
X127947194Y-82521206D01*
X127947194Y-82795452D01*
X128119728Y-82795452D01*
X128119728Y-81978830D01*
X129827322Y-81978830D01*
X129829676Y-81984567D01*
X129829872Y-81984925D01*
X129836050Y-81995515D01*
X129849007Y-82017290D01*
X129867835Y-82048741D01*
X129891627Y-82088358D01*
X129919477Y-82134629D01*
X129950477Y-82186044D01*
X129983720Y-82241094D01*
X130130124Y-82483345D01*
X130130124Y-82795452D01*
X130310159Y-82795452D01*
X130310159Y-82556826D01*
X130648180Y-82556826D01*
X130650871Y-82601210D01*
X130659077Y-82638202D01*
X130662294Y-82646672D01*
X130688933Y-82692645D01*
X130728006Y-82731412D01*
X130778467Y-82762130D01*
X130839276Y-82783953D01*
X130839691Y-82784061D01*
X130856313Y-82787531D01*
X130877359Y-82790263D01*
X130904591Y-82792330D01*
X130939773Y-82793808D01*
X130984667Y-82794771D01*
X131041036Y-82795294D01*
X131110643Y-82795452D01*
X131337862Y-82795452D01*
X131337862Y-81970290D01*
X131113187Y-81970290D01*
X131041202Y-81970484D01*
X130975985Y-81971318D01*
X130922523Y-81973089D01*
X130879128Y-81976093D01*
X130862002Y-81978310D01*
X130844112Y-81980626D01*
X130815787Y-81986987D01*
X130792465Y-81995470D01*
X130772459Y-82006373D01*
X130754080Y-82019992D01*
X130735641Y-82036623D01*
X130726266Y-82046531D01*
X130701891Y-82085754D01*
X130688495Y-82132523D01*
X130686574Y-82184280D01*
X130696622Y-82238465D01*
X130701978Y-82253923D01*
X130717547Y-82281269D01*
X130742687Y-82307339D01*
X130759217Y-82321261D01*
X130775173Y-82333250D01*
X130783808Y-82337862D01*
X130789278Y-82338703D01*
X130790065Y-82343808D01*
X130780553Y-82351581D01*
X130762929Y-82359732D01*
X130733668Y-82375798D01*
X130703136Y-82402687D01*
X130677209Y-82435301D01*
X130660150Y-82469105D01*
X130659180Y-82472058D01*
X130650964Y-82511594D01*
X130648180Y-82556826D01*
X130310159Y-82556826D01*
X130310159Y-82473927D01*
X130452815Y-82236380D01*
X130453341Y-82235504D01*
X130486051Y-82180994D01*
X130516513Y-82130151D01*
X130543813Y-82084508D01*
X130567036Y-82045596D01*
X130585269Y-82014947D01*
X130597598Y-81994092D01*
X130603108Y-81984562D01*
X130603501Y-81983818D01*
X130605514Y-81978310D01*
X130603341Y-81974543D01*
X130594819Y-81972187D01*
X130577784Y-81970913D01*
X130550073Y-81970391D01*
X130509523Y-81970290D01*
X130408299Y-81970290D01*
X130320603Y-82118444D01*
X130307407Y-82140714D01*
X130282732Y-82182230D01*
X130260812Y-82218945D01*
X130242865Y-82248831D01*
X130230108Y-82269856D01*
X130223757Y-82279990D01*
X130221991Y-82281964D01*
X130217726Y-82282615D01*
X130211518Y-82278073D01*
X130202446Y-82267033D01*
X130189590Y-82248192D01*
X130172030Y-82220248D01*
X130148845Y-82181897D01*
X130119114Y-82131836D01*
X130023621Y-81970290D01*
X129918158Y-81970290D01*
X129879086Y-81970419D01*
X129852633Y-81971005D01*
X129836633Y-81972381D01*
X129828918Y-81974878D01*
X129827322Y-81978830D01*
X128119728Y-81978830D01*
X128119728Y-81970290D01*
X127933627Y-81970290D01*
X127762250Y-82245548D01*
X127590874Y-82520807D01*
X127588906Y-82245548D01*
X127586938Y-81970290D01*
X127414589Y-81970290D01*
X127414589Y-82373434D01*
X127414589Y-82795452D01*
X127012539Y-82795452D01*
X127021967Y-82793204D01*
X127087679Y-82763981D01*
X127146572Y-82723207D01*
X127197308Y-82671575D01*
X127238548Y-82609781D01*
X127268956Y-82538519D01*
X127279030Y-82499679D01*
X127287907Y-82438293D01*
X127290671Y-82373434D01*
X127287155Y-82310750D01*
X127277194Y-82255888D01*
X127270867Y-82234365D01*
X127240268Y-82160669D01*
X127199200Y-82096736D01*
X127148827Y-82043290D01*
X127090315Y-82001054D01*
X127024828Y-81970749D01*
X126953531Y-81953100D01*
X126877588Y-81948828D01*
X126798165Y-81958656D01*
X126796236Y-81959071D01*
X126730423Y-81979951D01*
X126671184Y-82011722D01*
X126620143Y-82052808D01*
X126578925Y-82101634D01*
X126549155Y-82156626D01*
X126532457Y-82216210D01*
X126527419Y-82248338D01*
X126704771Y-82244094D01*
X126710667Y-82221291D01*
X126722673Y-82195096D01*
X126744880Y-82166245D01*
X126772982Y-82140163D01*
X126802932Y-82121242D01*
X126816832Y-82115922D01*
X126852449Y-82108217D01*
X126892671Y-82104994D01*
X126931300Y-82106563D01*
X126962137Y-82113237D01*
X126984718Y-82123268D01*
X127028174Y-82154044D01*
X127062349Y-82196255D01*
X127087027Y-82249492D01*
X127101992Y-82313346D01*
X127107029Y-82387408D01*
X127106257Y-82420697D01*
X127099916Y-82476662D01*
X127086314Y-82523260D01*
X127064415Y-82563477D01*
X127033185Y-82600297D01*
X127024234Y-82608959D01*
X126990270Y-82635950D01*
X126955611Y-82652221D01*
X126915929Y-82659290D01*
X126866896Y-82658678D01*
X126838039Y-82654798D01*
X126791364Y-82638453D01*
X126753978Y-82610350D01*
X126726028Y-82570616D01*
X126707661Y-82519382D01*
X126698399Y-82480390D01*
X126610156Y-82480390D01*
X126590022Y-82480362D01*
X126556994Y-82480731D01*
X126536027Y-82483097D01*
X126525124Y-82489181D01*
X126522286Y-82500700D01*
X124408874Y-82500700D01*
X124422588Y-82492610D01*
X124457434Y-82478329D01*
X124503963Y-82463359D01*
X124563717Y-82446716D01*
X124606424Y-82434935D01*
X124667938Y-82415778D01*
X124717432Y-82396776D01*
X124756718Y-82376956D01*
X124787611Y-82355342D01*
X124811924Y-82330960D01*
X124831472Y-82302835D01*
X124845894Y-82267502D01*
X124854283Y-82224284D01*
X124855921Y-82179380D01*
X124850104Y-82138958D01*
X124837634Y-82104789D01*
X124808260Y-82058131D01*
X124767804Y-82018814D01*
X124717835Y-81987559D01*
X124659926Y-81965087D01*
X124595650Y-81952117D01*
X124526577Y-81949370D01*
X124454281Y-81957566D01*
X124408011Y-81968870D01*
X124347093Y-81993684D01*
X124297438Y-82027391D01*
X124259547Y-82069517D01*
X124233921Y-82119592D01*
X124221061Y-82177143D01*
X124216861Y-82217838D01*
X124390814Y-82217838D01*
X124395840Y-82191047D01*
X124407771Y-82160097D01*
X124430658Y-82130395D01*
X124460113Y-82108496D01*
X124470930Y-82103983D01*
X124502053Y-82096538D01*
X124538957Y-82092539D01*
X124575527Y-82092477D01*
X124605644Y-82096842D01*
X124620410Y-82101974D01*
X124649652Y-82120306D01*
X124669782Y-82145165D01*
X124677855Y-82173428D01*
X124678006Y-82178825D01*
X124677087Y-82199160D01*
X124672475Y-82215966D01*
X124662608Y-82230222D01*
X124645922Y-82242906D01*
X124620856Y-82254998D01*
X124585847Y-82267476D01*
X124539332Y-82281318D01*
X124479749Y-82297503D01*
X124427709Y-82311618D01*
X124382310Y-82324948D01*
X124346952Y-82336991D01*
X124319225Y-82348784D01*
X124296718Y-82361364D01*
X124277021Y-82375768D01*
X124257724Y-82393032D01*
X124241569Y-82409228D01*
X124217590Y-82439067D01*
X124202795Y-82469687D01*
X124195316Y-82505684D01*
X124193285Y-82551654D01*
X124075642Y-82551654D01*
X124063856Y-82520474D01*
X124037348Y-82450357D01*
X124009269Y-82376088D01*
X123855839Y-81970290D01*
X123667236Y-81970290D01*
X123515435Y-82377245D01*
X123492355Y-82439186D01*
X123465972Y-82510168D01*
X123441607Y-82575909D01*
X123419723Y-82635152D01*
X123400782Y-82686637D01*
X123385248Y-82729105D01*
X123373583Y-82761299D01*
X123366250Y-82781959D01*
X123363713Y-82789826D01*
X121998639Y-82789826D01*
X121999591Y-81557709D01*
X122126048Y-81557709D01*
X132446994Y-81557709D01*
X132475187Y-81604593D01*
X132549083Y-81720112D01*
X132659363Y-81869542D01*
X132779221Y-82007754D01*
X132908185Y-82134449D01*
X133045781Y-82249329D01*
X133191537Y-82352097D01*
X133344979Y-82442454D01*
X133505635Y-82520102D01*
X133673030Y-82584744D01*
X133846693Y-82636081D01*
X134026150Y-82673816D01*
X134210927Y-82697651D01*
X134300995Y-82703587D01*
X134470000Y-82703752D01*
X134640768Y-82690226D01*
X134811480Y-82663397D01*
X134980317Y-82623655D01*
X135145460Y-82571389D01*
X135305090Y-82506989D01*
X135457390Y-82430844D01*
X135603878Y-82342521D01*
X135752047Y-82236565D01*
X135890278Y-82119493D01*
X136018215Y-81991638D01*
X136135499Y-81853331D01*
X136241772Y-81704903D01*
X136254411Y-81685571D01*
X136277114Y-81650485D01*
X136296859Y-81619525D01*
X136311868Y-81595483D01*
X136320369Y-81581155D01*
X136333147Y-81557709D01*
X136873951Y-81557709D01*
X136873910Y-79849247D01*
X136873908Y-79806814D01*
X136873869Y-79602972D01*
X136873781Y-79413747D01*
X136873643Y-79238818D01*
X136873453Y-79077864D01*
X136873210Y-78930561D01*
X136872911Y-78796590D01*
X136872556Y-78675629D01*
X136872142Y-78567355D01*
X136871669Y-78471448D01*
X136871134Y-78387586D01*
X136870536Y-78315448D01*
X136869874Y-78254711D01*
X136869147Y-78205055D01*
X136868351Y-78166158D01*
X136867487Y-78137698D01*
X136866552Y-78119354D01*
X136865545Y-78110805D01*
X136865093Y-78109247D01*
X136849955Y-78078899D01*
X136825204Y-78049262D01*
X136795413Y-78024910D01*
X136765155Y-78010415D01*
X136757725Y-78010001D01*
X136735549Y-78009548D01*
X136699118Y-78009107D01*
X136648827Y-78008679D01*
X136585073Y-78008263D01*
X136508249Y-78007860D01*
X136418752Y-78007469D01*
X136316977Y-78007090D01*
X136203319Y-78006724D01*
X136078174Y-78006370D01*
X135941937Y-78006029D01*
X135795003Y-78005699D01*
X135637768Y-78005383D01*
X135470627Y-78005078D01*
X135293976Y-78004787D01*
X135108210Y-78004507D01*
X134913724Y-78004240D01*
X134710914Y-78003985D01*
X134500175Y-78003743D01*
X134281902Y-78003513D01*
X134056491Y-78003295D01*
X133824338Y-78003090D01*
X133585837Y-78002897D01*
X133341384Y-78002717D01*
X133091374Y-78002549D01*
X132836203Y-78002393D01*
X132576266Y-78002250D01*
X132311958Y-78002120D01*
X132043676Y-78002001D01*
X131771813Y-78001895D01*
X131496767Y-78001801D01*
X131218931Y-78001720D01*
X130938701Y-78001651D01*
X130656473Y-78001595D01*
X130372643Y-78001551D01*
X130087605Y-78001519D01*
X129801754Y-78001500D01*
X129515487Y-78001493D01*
X129229199Y-78001499D01*
X128943284Y-78001517D01*
X128658139Y-78001547D01*
X128374159Y-78001590D01*
X128091739Y-78001645D01*
X127811274Y-78001712D01*
X127533160Y-78001792D01*
X127257792Y-78001884D01*
X126985567Y-78001989D01*
X126716878Y-78002106D01*
X126452121Y-78002236D01*
X126191692Y-78002377D01*
X125935987Y-78002532D01*
X125685399Y-78002698D01*
X125440326Y-78002877D01*
X125201162Y-78003069D01*
X124968303Y-78003273D01*
X124742144Y-78003489D01*
X124523080Y-78003717D01*
X124311507Y-78003958D01*
X124107820Y-78004212D01*
X123912414Y-78004478D01*
X123725686Y-78004756D01*
X123548030Y-78005046D01*
X123379841Y-78005349D01*
X123221516Y-78005665D01*
X123073448Y-78005992D01*
X122936035Y-78006332D01*
X122809671Y-78006685D01*
X122694752Y-78007050D01*
X122591672Y-78007427D01*
X122500828Y-78007817D01*
X122422614Y-78008219D01*
X122357426Y-78008634D01*
X122305660Y-78009060D01*
X122267711Y-78009500D01*
X122243974Y-78009951D01*
X122234844Y-78010415D01*
X122233287Y-78010867D01*
X122202938Y-78026005D01*
X122173302Y-78050756D01*
X122148950Y-78080547D01*
X122134455Y-78110805D01*
X122134248Y-78111743D01*
X122133256Y-78122221D01*
X122132335Y-78142557D01*
X122131484Y-78173073D01*
X122130703Y-78214090D01*
X122129988Y-78265931D01*
X122129339Y-78328916D01*
X122128754Y-78403367D01*
X122128232Y-78489605D01*
X122127770Y-78587953D01*
X122127369Y-78698731D01*
X122127025Y-78822262D01*
X122126737Y-78958866D01*
X122126504Y-79108866D01*
X122126325Y-79272582D01*
X122126197Y-79450337D01*
X122126119Y-79642451D01*
X122126090Y-79849247D01*
X122126048Y-81557709D01*
X121999591Y-81557709D01*
X122000343Y-80584914D01*
X122002274Y-78088276D01*
X122025592Y-78039516D01*
X122026209Y-78038232D01*
X122061224Y-77982279D01*
X122107063Y-77936704D01*
X122163556Y-77901678D01*
X122212315Y-77878234D01*
X136787684Y-77878234D01*
X136836444Y-77901448D01*
X136838411Y-77902393D01*
X136894316Y-77937451D01*
X136939807Y-77983282D01*
X136974512Y-78039516D01*
X136997726Y-78088276D01*
X137000408Y-81557709D01*
X137001365Y-82795452D01*
G37*
%TD*%
%LPC*%
D14*
%TO.C,H3*%
X117000000Y-119000000D03*
%TD*%
%TO.C,H2*%
X173000000Y-75000000D03*
%TD*%
D15*
%TO.C,CONN2*%
X118900000Y-80500000D03*
D16*
X171100000Y-80500000D03*
%TD*%
D17*
%TO.C,CONN8*%
X169750000Y-115000000D03*
D18*
X167750000Y-115000000D03*
X165750000Y-115000000D03*
X163750000Y-115000000D03*
X161750000Y-115000000D03*
X159750000Y-115000000D03*
%TD*%
D19*
%TO.C,SW2*%
X166650000Y-118750000D03*
X162850000Y-118750000D03*
%TD*%
D20*
%TO.C,CONN5*%
X171900000Y-97000000D03*
D21*
X174440000Y-99540000D03*
X174440000Y-94460000D03*
X169360000Y-99540000D03*
X169360000Y-94460000D03*
%TD*%
D14*
%TO.C,H1*%
X117000000Y-75000000D03*
%TD*%
%TO.C,H4*%
X173000000Y-119000000D03*
%TD*%
D22*
%TO.C,CONN4*%
X115750000Y-115500000D03*
D23*
X115750000Y-112960000D03*
%TD*%
D24*
%TO.C,CONN1*%
X119580000Y-92680000D03*
X119580000Y-101320000D03*
D25*
X115580000Y-92680000D03*
X115580000Y-101320000D03*
%TD*%
%LPD*%
M02*
