%TF.GenerationSoftware,KiCad,Pcbnew,8.0.8+1*%
%TF.CreationDate,Date%
%TF.ProjectId,LoRa-V3-PCB,4c6f5261-2d56-4332-9d50-43422e6b6963,rev?*%
%TF.SameCoordinates,Original*%
%TF.FileFunction,Soldermask,Top*%
%TF.FilePolarity,Negative*%
%FSLAX46Y46*%
G04 Gerber Fmt 4.6, Leading zero omitted, Abs format (unit mm)*
G04 Created by KiCad*
%MOMM*%
%LPD*%
G01*
G04 APERTURE LIST*
G04 Aperture macros list*
%AMRoundRect*
0 Rectangle with rounded corners*
0 $1 Rounding radius*
0 $2 $3 $4 $5 $6 $7 $8 $9 X,Y pos of 4 corners*
0 Add a 4 corners polygon primitive as box body*
4,1,4,$2,$3,$4,$5,$6,$7,$8,$9,$2,$3,0*
0 Add four circle primitives for the rounded corners*
1,1,$1+$1,$2,$3*
1,1,$1+$1,$4,$5*
1,1,$1+$1,$6,$7*
1,1,$1+$1,$8,$9*
0 Add four rect primitives between the rounded corners*
20,1,$1+$1,$2,$3,$4,$5,0*
20,1,$1+$1,$4,$5,$6,$7,0*
20,1,$1+$1,$6,$7,$8,$9,0*
20,1,$1+$1,$8,$9,$2,$3,0*%
%AMFreePoly0*
4,1,6,1.000000,0.000000,0.500000,-0.750000,-0.500000,-0.750000,-0.500000,0.750000,0.500000,0.750000,1.000000,0.000000,1.000000,0.000000,$1*%
%AMFreePoly1*
4,1,6,0.500000,-0.750000,-0.650000,-0.750000,-0.150000,0.000000,-0.650000,0.750000,0.500000,0.750000,0.500000,-0.750000,0.500000,-0.750000,$1*%
G04 Aperture macros list end*
%TA.AperFunction,Profile*%
%ADD10C,0.050000*%
%TD*%
%TA.AperFunction,Profile*%
%ADD11C,0.100000*%
%TD*%
%ADD12C,1.400000*%
%ADD13RoundRect,0.070000X0.105000X-0.530000X0.105000X0.530000X-0.105000X0.530000X-0.105000X-0.530000X0*%
%ADD14R,1.000000X1.500000*%
%ADD15RoundRect,0.200000X-0.300000X0.400000X-0.300000X-0.400000X0.300000X-0.400000X0.300000X0.400000X0*%
%ADD16RoundRect,0.200000X0.550000X-0.300000X0.550000X0.300000X-0.550000X0.300000X-0.550000X-0.300000X0*%
%ADD17RoundRect,0.220000X-0.220000X-0.270000X0.220000X-0.270000X0.220000X0.270000X-0.220000X0.270000X0*%
%ADD18RoundRect,0.220000X0.220000X0.270000X-0.220000X0.270000X-0.220000X-0.270000X0.220000X-0.270000X0*%
%ADD19RoundRect,0.220000X-0.270000X0.220000X-0.270000X-0.220000X0.270000X-0.220000X0.270000X0.220000X0*%
%ADD20RoundRect,0.120000X-0.180000X-0.255000X0.180000X-0.255000X0.180000X0.255000X-0.180000X0.255000X0*%
%ADD21RoundRect,0.220000X0.270000X-0.220000X0.270000X0.220000X-0.270000X0.220000X-0.270000X-0.220000X0*%
%ADD22RoundRect,0.120000X0.180000X0.255000X-0.180000X0.255000X-0.180000X-0.255000X0.180000X-0.255000X0*%
%ADD23RoundRect,0.200000X-0.550000X0.300000X-0.550000X-0.300000X0.550000X-0.300000X0.550000X0.300000X0*%
%ADD24RoundRect,0.200000X-1.300000X0.300000X-1.300000X-0.300000X1.300000X-0.300000X1.300000X0.300000X0*%
%ADD25C,1.000000*%
%ADD26RoundRect,0.062500X-0.375000X-0.062500X0.375000X-0.062500X0.375000X0.062500X-0.375000X0.062500X0*%
%ADD27RoundRect,0.062500X-0.062500X-0.375000X0.062500X-0.375000X0.062500X0.375000X-0.062500X0.375000X0*%
%ADD28RoundRect,0.240000X-0.560000X-0.560000X0.560000X-0.560000X0.560000X0.560000X-0.560000X0.560000X0*%
%ADD29RoundRect,0.120000X0.480000X0.180000X-0.480000X0.180000X-0.480000X-0.180000X0.480000X-0.180000X0*%
%ADD30RoundRect,0.060000X-0.265000X0.090000X-0.265000X-0.090000X0.265000X-0.090000X0.265000X0.090000X0*%
%ADD31RoundRect,0.310000X-0.465000X0.930000X-0.465000X-0.930000X0.465000X-0.930000X0.465000X0.930000X0*%
%ADD32RoundRect,0.132000X0.298000X-0.198000X0.298000X0.198000X-0.298000X0.198000X-0.298000X-0.198000X0*%
%ADD33RoundRect,0.165000X0.385000X-0.735000X0.385000X0.735000X-0.385000X0.735000X-0.385000X-0.735000X0*%
%ADD34RoundRect,0.120000X0.280000X-0.280000X0.280000X0.280000X-0.280000X0.280000X-0.280000X-0.280000X0*%
%ADD35RoundRect,0.200000X1.300000X-0.300000X1.300000X0.300000X-1.300000X0.300000X-1.300000X-0.300000X0*%
%ADD36C,2.000000*%
%ADD37RoundRect,0.523529X-1.078471X-1.078471X1.078471X-1.078471X1.078471X1.078471X-1.078471X1.078471X0*%
%ADD38C,3.204000*%
%ADD39RoundRect,0.250000X-0.425000X0.425000X-0.425000X-0.425000X0.425000X-0.425000X0.425000X0.425000X0*%
%ADD40O,1.350000X1.350000*%
%ADD41RoundRect,0.060000X-0.365000X-0.090000X0.365000X-0.090000X0.365000X0.090000X-0.365000X0.090000X0*%
%ADD42RoundRect,0.060000X-0.090000X-0.365000X0.090000X-0.365000X0.090000X0.365000X-0.090000X0.365000X0*%
%ADD43RoundRect,0.235000X-0.940000X-0.940000X0.940000X-0.940000X0.940000X0.940000X-0.940000X0.940000X0*%
%ADD44RoundRect,0.150000X0.350000X0.500000X-0.350000X0.500000X-0.350000X-0.500000X0.350000X-0.500000X0*%
%ADD45RoundRect,0.127500X0.297500X1.372500X-0.297500X1.372500X-0.297500X-1.372500X0.297500X-1.372500X0*%
%ADD46RoundRect,0.120000X0.608112X0.212132X0.212132X0.608112X-0.608112X-0.212132X-0.212132X-0.608112X0*%
%ADD47RoundRect,0.120000X-0.212132X0.608112X-0.608112X0.212132X0.212132X-0.608112X0.608112X-0.212132X0*%
%ADD48RoundRect,0.120000X-0.255000X0.180000X-0.255000X-0.180000X0.255000X-0.180000X0.255000X0.180000X0*%
%ADD49C,2.500000*%
%ADD50RoundRect,0.440000X0.660000X0.660000X-0.660000X0.660000X-0.660000X-0.660000X0.660000X-0.660000X0*%
%ADD51RoundRect,0.200000X-0.300000X-0.550000X0.300000X-0.550000X0.300000X0.550000X-0.300000X0.550000X0*%
%ADD52RoundRect,0.150000X-0.150000X-0.625000X0.150000X-0.625000X0.150000X0.625000X-0.150000X0.625000X0*%
%ADD53RoundRect,0.250000X-0.350000X-0.650000X0.350000X-0.650000X0.350000X0.650000X-0.350000X0.650000X0*%
%ADD54RoundRect,0.230000X-0.920000X-1.320000X0.920000X-1.320000X0.920000X1.320000X-0.920000X1.320000X0*%
%ADD55RoundRect,0.060000X-0.090000X-0.490000X0.090000X-0.490000X0.090000X0.490000X-0.090000X0.490000X0*%
%ADD56RoundRect,0.340000X0.510000X0.510000X-0.510000X0.510000X-0.510000X-0.510000X0.510000X-0.510000X0*%
%ADD57O,1.700000X1.700000*%
%ADD58RoundRect,0.165000X-0.385000X0.735000X-0.385000X-0.735000X0.385000X-0.735000X0.385000X0.735000X0*%
%ADD59RoundRect,0.120000X-0.280000X0.280000X-0.280000X-0.280000X0.280000X-0.280000X0.280000X0.280000X0*%
%ADD60RoundRect,0.120000X-0.455000X0.180000X-0.455000X-0.180000X0.455000X-0.180000X0.455000X0.180000X0*%
%ADD61RoundRect,0.075000X-0.500000X0.075000X-0.500000X-0.075000X0.500000X-0.075000X0.500000X0.075000X0*%
%ADD62O,1.800000X1.000000*%
%ADD63O,2.200000X1.000000*%
%ADD64RoundRect,0.125000X0.425000X-0.125000X0.425000X0.125000X-0.425000X0.125000X-0.425000X-0.125000X0*%
%ADD65RoundRect,0.200000X0.950000X-0.300000X0.950000X0.300000X-0.950000X0.300000X-0.950000X-0.300000X0*%
%ADD66RoundRect,0.200000X0.300000X0.950000X-0.300000X0.950000X-0.300000X-0.950000X0.300000X-0.950000X0*%
%ADD67RoundRect,0.200000X-0.950000X0.300000X-0.950000X-0.300000X0.950000X-0.300000X0.950000X0.300000X0*%
%ADD68RoundRect,0.200000X-0.300000X-0.950000X0.300000X-0.950000X0.300000X0.950000X-0.300000X0.950000X0*%
%ADD69FreePoly0,180.000000*%
%ADD70FreePoly1,180.000000*%
G04 APERTURE END LIST*
D10*
X162500000Y-73000000D02*
G75*
G02*
X162000000Y-72500000I0J500000D01*
G01*
D11*
X114000000Y-75000000D02*
X114000000Y-119000000D01*
X167550000Y-114000000D02*
X174500000Y-114000000D01*
D10*
X128500000Y-72000000D02*
X161500000Y-72000000D01*
D11*
X176000000Y-119000000D02*
G75*
G02*
X173000000Y-122000000I-3000000J0D01*
G01*
D10*
X161500000Y-72000000D02*
G75*
G02*
X162000000Y-72500000I0J-500000D01*
G01*
X122500000Y-73000000D02*
G75*
G02*
X122000000Y-72500000I0J500000D01*
G01*
X128000000Y-72500000D02*
G75*
G02*
X128500000Y-72000000I500000J0D01*
G01*
D11*
X176000000Y-115500000D02*
X176000000Y-119000000D01*
D10*
X167500000Y-73000000D02*
X162500000Y-73000000D01*
D11*
X165750000Y-104800000D02*
G75*
G02*
X167550000Y-103000000I1800000J0D01*
G01*
X139500000Y-120500000D02*
G75*
G02*
X138000000Y-122000000I-1500000J0D01*
G01*
X139500000Y-120500000D02*
G75*
G02*
X141000000Y-119000000I1500000J0D01*
G01*
D10*
X122500000Y-73000000D02*
X127500000Y-73000000D01*
X121500000Y-72000000D02*
G75*
G02*
X122000000Y-72500000I0J-500000D01*
G01*
D11*
X176000000Y-101500000D02*
G75*
G02*
X174500000Y-103000000I-1500000J0D01*
G01*
X117000000Y-122000000D02*
G75*
G02*
X114000000Y-119000000I0J3000000D01*
G01*
D10*
X128000000Y-72500000D02*
G75*
G02*
X127500000Y-73000000I-500000J0D01*
G01*
D11*
X156500000Y-119000000D02*
G75*
G02*
X158000000Y-120500000I0J-1500000D01*
G01*
X174500000Y-103000000D02*
X167550000Y-103000000D01*
X159500000Y-122000000D02*
X173000000Y-122000000D01*
X167550000Y-114000000D02*
G75*
G02*
X165750000Y-112200000I0J1800000D01*
G01*
X165750000Y-104800000D02*
X165750000Y-112200000D01*
X173000000Y-72000000D02*
G75*
G02*
X176000000Y-75000000I0J-3000000D01*
G01*
X156500000Y-119000000D02*
X141000000Y-119000000D01*
D10*
X117000000Y-72000000D02*
X121500000Y-72000000D01*
D11*
X176000000Y-75000000D02*
X176000000Y-101500000D01*
D10*
X168000000Y-72500000D02*
G75*
G02*
X167500000Y-73000000I-500000J0D01*
G01*
D11*
X114000000Y-75000000D02*
G75*
G02*
X117000000Y-72000000I3000000J0D01*
G01*
X174500000Y-114000000D02*
G75*
G02*
X176000000Y-115500000I0J-1500000D01*
G01*
X159500000Y-122000000D02*
G75*
G02*
X158000000Y-120500000I0J1500000D01*
G01*
D10*
X168500000Y-72000000D02*
X173000000Y-72000000D01*
X168000000Y-72500000D02*
G75*
G02*
X168500000Y-72000000I500000J0D01*
G01*
D11*
X117000000Y-122000000D02*
X138000000Y-122000000D01*
D12*
X168574270Y-97001892D02*
X171898108Y-97001892D01*
X161250000Y-100250000D02*
X161251863Y-100248137D01*
X165128680Y-99371320D02*
G75*
G02*
X163175730Y-100248102I-2133880J2139620D01*
G01*
X165128680Y-99371320D02*
X166621321Y-97878679D01*
X161251863Y-100248137D02*
X163175732Y-100248137D01*
X166621321Y-97878679D02*
G75*
G02*
X168574270Y-97001898I2133879J-2139621D01*
G01*
X171898108Y-97001892D02*
X171900000Y-97000000D01*
D13*
%TO.C,IC9*%
X141525000Y-99900000D03*
X142175000Y-99900000D03*
X142825000Y-99900000D03*
X143475000Y-99900000D03*
X143475000Y-94100000D03*
X142825000Y-94100000D03*
X142175000Y-94100000D03*
X141525000Y-94100000D03*
%TD*%
D14*
%TO.C,JP1*%
X129350000Y-110250000D03*
X130650000Y-110250000D03*
%TD*%
D15*
%TO.C,SW1*%
X116600000Y-109900000D03*
X114900000Y-109900000D03*
X116600000Y-104300000D03*
X114900000Y-104300000D03*
%TD*%
D16*
%TO.C,C15*%
X144000000Y-105750000D03*
X144000000Y-103750000D03*
%TD*%
D17*
%TO.C,R19*%
X120250000Y-116500000D03*
X121750000Y-116500000D03*
%TD*%
D16*
%TO.C,C25*%
X132750000Y-108000000D03*
X132750000Y-106000000D03*
%TD*%
D18*
%TO.C,C9*%
X121750000Y-118000000D03*
X120250000Y-118000000D03*
%TD*%
D19*
%TO.C,R10*%
X139000000Y-90000000D03*
X139000000Y-91500000D03*
%TD*%
D20*
%TO.C,Q4*%
X131050000Y-92000000D03*
X132950000Y-92000000D03*
X132000000Y-90000000D03*
%TD*%
D21*
%TO.C,R14*%
X126250000Y-120500000D03*
X126250000Y-119000000D03*
%TD*%
D22*
%TO.C,Q3*%
X136450000Y-106000000D03*
X134550000Y-106000000D03*
X135500000Y-108000000D03*
%TD*%
D21*
%TO.C,R5*%
X127500000Y-107750000D03*
X127500000Y-106250000D03*
%TD*%
D19*
%TO.C,C32*%
X145750000Y-108250000D03*
X145750000Y-109750000D03*
%TD*%
%TO.C,C35*%
X147250000Y-108250000D03*
X147250000Y-109750000D03*
%TD*%
D21*
%TO.C,R13*%
X130750000Y-103000000D03*
X130750000Y-101500000D03*
%TD*%
D23*
%TO.C,C14*%
X127000000Y-101500000D03*
X127000000Y-103500000D03*
%TD*%
D18*
%TO.C,R7*%
X124750000Y-94500000D03*
X123250000Y-94500000D03*
%TD*%
D24*
%TO.C,L1*%
X148750000Y-104750000D03*
X148750000Y-106750000D03*
%TD*%
D21*
%TO.C,C6*%
X136000000Y-91500000D03*
X136000000Y-90000000D03*
%TD*%
D17*
%TO.C,R2*%
X120250000Y-115000000D03*
X121750000Y-115000000D03*
%TD*%
D13*
%TO.C,IC11*%
X134525000Y-99900000D03*
X135175000Y-99900000D03*
X135825000Y-99900000D03*
X136475000Y-99900000D03*
X136475000Y-94100000D03*
X135825000Y-94100000D03*
X135175000Y-94100000D03*
X134525000Y-94100000D03*
%TD*%
D25*
%TO.C,F2*%
X117000000Y-90500000D03*
%TD*%
D26*
%TO.C,IC4*%
X124062500Y-114750000D03*
X124062500Y-115250000D03*
X124062500Y-115750000D03*
X124062500Y-116250000D03*
D27*
X124750000Y-116937500D03*
X125250000Y-116937500D03*
X125750000Y-116937500D03*
X126250000Y-116937500D03*
D26*
X126937500Y-116250000D03*
X126937500Y-115750000D03*
X126937500Y-115250000D03*
X126937500Y-114750000D03*
D27*
X126250000Y-114062500D03*
X125750000Y-114062500D03*
X125250000Y-114062500D03*
X124750000Y-114062500D03*
D28*
X125500000Y-115500000D03*
%TD*%
D29*
%TO.C,IC3*%
X125650000Y-97950000D03*
X125650000Y-97000000D03*
X125650000Y-96050000D03*
X123350000Y-96050000D03*
X123350000Y-97000000D03*
X123350000Y-97950000D03*
%TD*%
D19*
%TO.C,C31*%
X151750000Y-108250000D03*
X151750000Y-109750000D03*
%TD*%
D30*
%TO.C,IC12*%
X122600000Y-106000000D03*
X122600000Y-106500000D03*
X122600000Y-107000000D03*
X122600000Y-107500000D03*
X122600000Y-108000000D03*
X125900000Y-108000000D03*
X125900000Y-107500000D03*
X125900000Y-107000000D03*
X125900000Y-106500000D03*
X125900000Y-106000000D03*
D31*
X124250000Y-107000000D03*
%TD*%
D19*
%TO.C,R21*%
X123250000Y-119000000D03*
X123250000Y-120500000D03*
%TD*%
D32*
%TO.C,Q1*%
X156425000Y-106650000D03*
X156425000Y-105350000D03*
X154575000Y-106000000D03*
%TD*%
D21*
%TO.C,R3*%
X125250000Y-103000000D03*
X125250000Y-101500000D03*
%TD*%
D33*
%TO.C,D3*%
X140000000Y-106100000D03*
D34*
X140000000Y-104100000D03*
%TD*%
D35*
%TO.C,L2*%
X121000000Y-113500000D03*
X121000000Y-111500000D03*
%TD*%
D16*
%TO.C,C26*%
X145250000Y-91750000D03*
X145250000Y-89750000D03*
%TD*%
D36*
%TO.C,H3*%
X117000000Y-119000000D03*
%TD*%
D13*
%TO.C,IC10*%
X138025000Y-99900000D03*
X138675000Y-99900000D03*
X139325000Y-99900000D03*
X139975000Y-99900000D03*
X139975000Y-94100000D03*
X139325000Y-94100000D03*
X138675000Y-94100000D03*
X138025000Y-94100000D03*
%TD*%
D36*
%TO.C,H2*%
X173000000Y-75000000D03*
%TD*%
D13*
%TO.C,IC8*%
X145025000Y-99900000D03*
X145675000Y-99900000D03*
X146325000Y-99900000D03*
X146975000Y-99900000D03*
X146975000Y-94100000D03*
X146325000Y-94100000D03*
X145675000Y-94100000D03*
X145025000Y-94100000D03*
%TD*%
D18*
%TO.C,R23*%
X160000000Y-111500000D03*
X158500000Y-111500000D03*
%TD*%
D19*
%TO.C,C2*%
X118750000Y-106250000D03*
X118750000Y-107750000D03*
%TD*%
D21*
%TO.C,C10*%
X126750000Y-112000000D03*
X126750000Y-110500000D03*
%TD*%
D37*
%TO.C,CONN2*%
X118900000Y-80500000D03*
D38*
X171100000Y-80500000D03*
%TD*%
D39*
%TO.C,CONN8*%
X169750000Y-115000000D03*
D40*
X167750000Y-115000000D03*
X165750000Y-115000000D03*
X163750000Y-115000000D03*
X161750000Y-115000000D03*
X159750000Y-115000000D03*
%TD*%
D19*
%TO.C,C36*%
X144000000Y-108250000D03*
X144000000Y-109750000D03*
%TD*%
D25*
%TO.C,F1*%
X135500000Y-119000000D03*
%TD*%
D41*
%TO.C,IC2*%
X127800000Y-95750000D03*
X127800000Y-96250000D03*
X127800000Y-96750000D03*
X127800000Y-97250000D03*
X127800000Y-97750000D03*
X127800000Y-98250000D03*
D42*
X128500000Y-98950000D03*
X129000000Y-98950000D03*
X129500000Y-98950000D03*
X130000000Y-98950000D03*
X130500000Y-98950000D03*
X131000000Y-98950000D03*
D41*
X131700000Y-98250000D03*
X131700000Y-97750000D03*
X131700000Y-97250000D03*
X131700000Y-96750000D03*
X131700000Y-96250000D03*
X131700000Y-95750000D03*
D42*
X131000000Y-95050000D03*
X130500000Y-95050000D03*
X130000000Y-95050000D03*
X129500000Y-95050000D03*
X129000000Y-95050000D03*
X128500000Y-95050000D03*
D43*
X129750000Y-97000000D03*
%TD*%
D25*
%TO.C,SW2*%
X166650000Y-118750000D03*
X162850000Y-118750000D03*
D44*
X167750000Y-116800000D03*
X161750000Y-116800000D03*
X165750000Y-116800000D03*
D45*
X169425000Y-118250000D03*
D46*
X168500000Y-120800000D03*
D47*
X161000000Y-120800000D03*
D45*
X160075000Y-118250000D03*
D44*
X163750000Y-116800000D03*
%TD*%
D19*
%TO.C,R20*%
X124750000Y-119000000D03*
X124750000Y-120500000D03*
%TD*%
D48*
%TO.C,Q2*%
X158250000Y-108050000D03*
X158250000Y-109950000D03*
X160250000Y-109000000D03*
%TD*%
D49*
%TO.C,CONN5*%
X171900000Y-97000000D03*
D50*
X174440000Y-99540000D03*
X174440000Y-94460000D03*
X169360000Y-99540000D03*
X169360000Y-94460000D03*
%TD*%
D33*
%TO.C,D2*%
X146000000Y-106100000D03*
D34*
X146000000Y-104100000D03*
%TD*%
D51*
%TO.C,C27*%
X162500000Y-103000000D03*
X164500000Y-103000000D03*
%TD*%
D52*
%TO.C,CONN3*%
X134000000Y-112500000D03*
X135000000Y-112500000D03*
X136000000Y-112500000D03*
X137000000Y-112500000D03*
D53*
X132700000Y-116375000D03*
X138300000Y-116375000D03*
%TD*%
D21*
%TO.C,C1*%
X147000000Y-91500000D03*
X147000000Y-90000000D03*
%TD*%
D19*
%TO.C,C34*%
X150250000Y-108250000D03*
X150250000Y-109750000D03*
%TD*%
%TO.C,C33*%
X142250000Y-108250000D03*
X142250000Y-109750000D03*
%TD*%
D36*
%TO.C,H1*%
X117000000Y-75000000D03*
%TD*%
D19*
%TO.C,R9*%
X140500000Y-90000000D03*
X140500000Y-91500000D03*
%TD*%
D21*
%TO.C,C8*%
X143500000Y-91500000D03*
X143500000Y-90000000D03*
%TD*%
D23*
%TO.C,C13*%
X129000000Y-101500000D03*
X129000000Y-103500000D03*
%TD*%
D16*
%TO.C,C11*%
X123500000Y-103500000D03*
X123500000Y-101500000D03*
%TD*%
D19*
%TO.C,C37*%
X140750000Y-108250000D03*
X140750000Y-109750000D03*
%TD*%
D36*
%TO.C,H4*%
X173000000Y-119000000D03*
%TD*%
D18*
%TO.C,R18*%
X136250000Y-104500000D03*
X134750000Y-104500000D03*
%TD*%
%TO.C,R6*%
X124750000Y-99500000D03*
X123250000Y-99500000D03*
%TD*%
D54*
%TO.C,CONN6*%
X141330000Y-113850000D03*
X156170000Y-113850000D03*
D55*
X154500000Y-112150000D03*
X154000000Y-112150000D03*
X153500000Y-112150000D03*
X153000000Y-112150000D03*
X152500000Y-112150000D03*
X152000000Y-112150000D03*
X151500000Y-112150000D03*
X151000000Y-112150000D03*
X150500000Y-112150000D03*
X150000000Y-112150000D03*
X149500000Y-112150000D03*
X149000000Y-112150000D03*
X148500000Y-112150000D03*
X148000000Y-112150000D03*
X147500000Y-112150000D03*
X147000000Y-112150000D03*
X146500000Y-112150000D03*
X146000000Y-112150000D03*
X145500000Y-112150000D03*
X145000000Y-112150000D03*
X144500000Y-112150000D03*
X144000000Y-112150000D03*
X143500000Y-112150000D03*
X143000000Y-112150000D03*
%TD*%
D56*
%TO.C,CONN4*%
X115750000Y-115500000D03*
D57*
X115750000Y-112960000D03*
%TD*%
D58*
%TO.C,D1*%
X142000000Y-104650000D03*
D59*
X142000000Y-106650000D03*
%TD*%
D16*
%TO.C,C18*%
X151500000Y-106750000D03*
X151500000Y-104750000D03*
%TD*%
D21*
%TO.C,C5*%
X142000000Y-91500000D03*
X142000000Y-90000000D03*
%TD*%
D60*
%TO.C,CONN1*%
X120505000Y-93800000D03*
X120505000Y-94600000D03*
D61*
X120505000Y-95750000D03*
X120505000Y-96750000D03*
X120505000Y-97250000D03*
X120505000Y-98250000D03*
D60*
X120505000Y-100200000D03*
X120505000Y-99400000D03*
D61*
X120505000Y-98750000D03*
X120505000Y-97750000D03*
X120505000Y-96250000D03*
X120505000Y-95250000D03*
D62*
X119930000Y-92680000D03*
X119930000Y-101320000D03*
D63*
X115930000Y-92680000D03*
X115930000Y-101320000D03*
%TD*%
D19*
%TO.C,R8*%
X137500000Y-90000000D03*
X137500000Y-91500000D03*
%TD*%
D21*
%TO.C,R11*%
X127750000Y-120500000D03*
X127750000Y-119000000D03*
%TD*%
D64*
%TO.C,CONN7*%
X162750000Y-112000000D03*
X162750000Y-111000000D03*
X162750000Y-110000000D03*
X162750000Y-109000000D03*
X162750000Y-108000000D03*
X162750000Y-107000000D03*
X162750000Y-106000000D03*
X162750000Y-105000000D03*
%TD*%
D19*
%TO.C,C30*%
X153250000Y-108250000D03*
X153250000Y-109750000D03*
%TD*%
D21*
%TO.C,C7*%
X134500000Y-91500000D03*
X134500000Y-90000000D03*
%TD*%
D23*
%TO.C,C17*%
X118250000Y-113250000D03*
X118250000Y-115250000D03*
%TD*%
D25*
%TO.C,F3*%
X173000000Y-90500000D03*
%TD*%
D65*
%TO.C,IC1*%
X149250000Y-92750000D03*
X149250000Y-94000000D03*
X149250000Y-95250000D03*
X149250000Y-96500000D03*
X149250000Y-97750000D03*
X149250000Y-99000000D03*
X149250000Y-100250000D03*
D66*
X151500000Y-102500000D03*
X152750000Y-102500000D03*
X154000000Y-102500000D03*
X155250000Y-102500000D03*
X156500000Y-102500000D03*
X157750000Y-102500000D03*
X159000000Y-102500000D03*
D67*
X161250000Y-100250000D03*
X161250000Y-99000000D03*
X161250000Y-97750000D03*
X161250000Y-96500000D03*
X161250000Y-95250000D03*
X161250000Y-94000000D03*
X161250000Y-92750000D03*
D68*
X159000000Y-90500000D03*
X157750000Y-90500000D03*
X156500000Y-90500000D03*
X155250000Y-90500000D03*
X154000000Y-90500000D03*
X152750000Y-90500000D03*
X151500000Y-90500000D03*
%TD*%
D16*
%TO.C,C16*%
X125000000Y-112250000D03*
X125000000Y-110250000D03*
%TD*%
D17*
%TO.C,R17*%
X158500000Y-106500000D03*
X160000000Y-106500000D03*
%TD*%
D21*
%TO.C,R1*%
X154750000Y-109750000D03*
X154750000Y-108250000D03*
%TD*%
D69*
%TO.C,JP2*%
X134975000Y-110250000D03*
D70*
X133525000Y-110250000D03*
%TD*%
D16*
%TO.C,C12*%
X120750000Y-108000000D03*
X120750000Y-106000000D03*
%TD*%
D19*
%TO.C,R15*%
X132250000Y-101500000D03*
X132250000Y-103000000D03*
%TD*%
D21*
%TO.C,R12*%
X156750000Y-109750000D03*
X156750000Y-108250000D03*
%TD*%
M02*
