%TF.GenerationSoftware,KiCad,Pcbnew,8.0.8+1*%
%TF.CreationDate,Date%
%TF.ProjectId,LoRa-V3-PCB,4c6f5261-2d56-4332-9d50-43422e6b6963,rev?*%
%TF.SameCoordinates,Original*%
%TF.FileFunction,Other,User*%
%FSLAX46Y46*%
G04 Gerber Fmt 4.6, Leading zero omitted, Abs format (unit mm)*
G04 Created by KiCad*
%MOMM*%
%LPD*%
G01*
G04 APERTURE LIST*
%TA.AperFunction,Profile*%
%ADD10C,0.050000*%
%TD*%
%TA.AperFunction,Profile*%
%ADD11C,0.100000*%
%TD*%
%ADD12C,0.150000*%
%ADD13C,0.100000*%
G04 APERTURE END LIST*
D10*
X162500000Y-73000000D02*
G75*
G02*
X162000000Y-72500000I0J500000D01*
G01*
D11*
X114000000Y-75000000D02*
X114000000Y-119000000D01*
X167550000Y-114000000D02*
X174500000Y-114000000D01*
D10*
X128500000Y-72000000D02*
X161500000Y-72000000D01*
D11*
X176000000Y-119000000D02*
G75*
G02*
X173000000Y-122000000I-3000000J0D01*
G01*
D10*
X161500000Y-72000000D02*
G75*
G02*
X162000000Y-72500000I0J-500000D01*
G01*
X122500000Y-73000000D02*
G75*
G02*
X122000000Y-72500000I0J500000D01*
G01*
X128000000Y-72500000D02*
G75*
G02*
X128500000Y-72000000I500000J0D01*
G01*
D11*
X176000000Y-115500000D02*
X176000000Y-119000000D01*
D10*
X167500000Y-73000000D02*
X162500000Y-73000000D01*
D11*
X165750000Y-104800000D02*
G75*
G02*
X167550000Y-103000000I1800000J0D01*
G01*
X139500000Y-120500000D02*
G75*
G02*
X138000000Y-122000000I-1500000J0D01*
G01*
X139500000Y-120500000D02*
G75*
G02*
X141000000Y-119000000I1500000J0D01*
G01*
D10*
X122500000Y-73000000D02*
X127500000Y-73000000D01*
X121500000Y-72000000D02*
G75*
G02*
X122000000Y-72500000I0J-500000D01*
G01*
D11*
X176000000Y-101500000D02*
G75*
G02*
X174500000Y-103000000I-1500000J0D01*
G01*
X117000000Y-122000000D02*
G75*
G02*
X114000000Y-119000000I0J3000000D01*
G01*
D10*
X128000000Y-72500000D02*
G75*
G02*
X127500000Y-73000000I-500000J0D01*
G01*
D11*
X156500000Y-119000000D02*
G75*
G02*
X158000000Y-120500000I0J-1500000D01*
G01*
X174500000Y-103000000D02*
X167550000Y-103000000D01*
X159500000Y-122000000D02*
X173000000Y-122000000D01*
X167550000Y-114000000D02*
G75*
G02*
X165750000Y-112200000I0J1800000D01*
G01*
X165750000Y-104800000D02*
X165750000Y-112200000D01*
X173000000Y-72000000D02*
G75*
G02*
X176000000Y-75000000I0J-3000000D01*
G01*
X156500000Y-119000000D02*
X141000000Y-119000000D01*
D10*
X117000000Y-72000000D02*
X121500000Y-72000000D01*
D11*
X176000000Y-75000000D02*
X176000000Y-101500000D01*
D10*
X168000000Y-72500000D02*
G75*
G02*
X167500000Y-73000000I-500000J0D01*
G01*
D11*
X114000000Y-75000000D02*
G75*
G02*
X117000000Y-72000000I3000000J0D01*
G01*
X174500000Y-114000000D02*
G75*
G02*
X176000000Y-115500000I0J-1500000D01*
G01*
X159500000Y-122000000D02*
G75*
G02*
X158000000Y-120500000I0J1500000D01*
G01*
D10*
X168500000Y-72000000D02*
X173000000Y-72000000D01*
X168000000Y-72500000D02*
G75*
G02*
X168500000Y-72000000I500000J0D01*
G01*
D11*
X117000000Y-122000000D02*
X138000000Y-122000000D01*
D12*
X114000000Y-72000000D02*
X176000000Y-72000000D01*
X176000000Y-122000000D01*
X114000000Y-122000000D01*
X114000000Y-72000000D01*
X148750000Y-119000000D02*
X148750000Y-72000000D01*
D13*
X176000000Y-108500000D02*
X162750000Y-108500000D01*
D12*
X140000000Y-119000000D02*
X158000000Y-119000000D01*
X176000000Y-97000000D02*
X114000000Y-97000000D01*
X140857143Y-123304819D02*
X140666667Y-123304819D01*
X140666667Y-123304819D02*
X140571429Y-123352438D01*
X140571429Y-123352438D02*
X140523810Y-123400057D01*
X140523810Y-123400057D02*
X140428572Y-123542914D01*
X140428572Y-123542914D02*
X140380953Y-123733390D01*
X140380953Y-123733390D02*
X140380953Y-124114342D01*
X140380953Y-124114342D02*
X140428572Y-124209580D01*
X140428572Y-124209580D02*
X140476191Y-124257200D01*
X140476191Y-124257200D02*
X140571429Y-124304819D01*
X140571429Y-124304819D02*
X140761905Y-124304819D01*
X140761905Y-124304819D02*
X140857143Y-124257200D01*
X140857143Y-124257200D02*
X140904762Y-124209580D01*
X140904762Y-124209580D02*
X140952381Y-124114342D01*
X140952381Y-124114342D02*
X140952381Y-123876247D01*
X140952381Y-123876247D02*
X140904762Y-123781009D01*
X140904762Y-123781009D02*
X140857143Y-123733390D01*
X140857143Y-123733390D02*
X140761905Y-123685771D01*
X140761905Y-123685771D02*
X140571429Y-123685771D01*
X140571429Y-123685771D02*
X140476191Y-123733390D01*
X140476191Y-123733390D02*
X140428572Y-123781009D01*
X140428572Y-123781009D02*
X140380953Y-123876247D01*
X141333334Y-123400057D02*
X141380953Y-123352438D01*
X141380953Y-123352438D02*
X141476191Y-123304819D01*
X141476191Y-123304819D02*
X141714286Y-123304819D01*
X141714286Y-123304819D02*
X141809524Y-123352438D01*
X141809524Y-123352438D02*
X141857143Y-123400057D01*
X141857143Y-123400057D02*
X141904762Y-123495295D01*
X141904762Y-123495295D02*
X141904762Y-123590533D01*
X141904762Y-123590533D02*
X141857143Y-123733390D01*
X141857143Y-123733390D02*
X141285715Y-124304819D01*
X141285715Y-124304819D02*
X141904762Y-124304819D01*
X142333334Y-124209580D02*
X142380953Y-124257200D01*
X142380953Y-124257200D02*
X142333334Y-124304819D01*
X142333334Y-124304819D02*
X142285715Y-124257200D01*
X142285715Y-124257200D02*
X142333334Y-124209580D01*
X142333334Y-124209580D02*
X142333334Y-124304819D01*
X143000000Y-123304819D02*
X143095238Y-123304819D01*
X143095238Y-123304819D02*
X143190476Y-123352438D01*
X143190476Y-123352438D02*
X143238095Y-123400057D01*
X143238095Y-123400057D02*
X143285714Y-123495295D01*
X143285714Y-123495295D02*
X143333333Y-123685771D01*
X143333333Y-123685771D02*
X143333333Y-123923866D01*
X143333333Y-123923866D02*
X143285714Y-124114342D01*
X143285714Y-124114342D02*
X143238095Y-124209580D01*
X143238095Y-124209580D02*
X143190476Y-124257200D01*
X143190476Y-124257200D02*
X143095238Y-124304819D01*
X143095238Y-124304819D02*
X143000000Y-124304819D01*
X143000000Y-124304819D02*
X142904762Y-124257200D01*
X142904762Y-124257200D02*
X142857143Y-124209580D01*
X142857143Y-124209580D02*
X142809524Y-124114342D01*
X142809524Y-124114342D02*
X142761905Y-123923866D01*
X142761905Y-123923866D02*
X142761905Y-123685771D01*
X142761905Y-123685771D02*
X142809524Y-123495295D01*
X142809524Y-123495295D02*
X142857143Y-123400057D01*
X142857143Y-123400057D02*
X142904762Y-123352438D01*
X142904762Y-123352438D02*
X143000000Y-123304819D01*
X143952381Y-123304819D02*
X144047619Y-123304819D01*
X144047619Y-123304819D02*
X144142857Y-123352438D01*
X144142857Y-123352438D02*
X144190476Y-123400057D01*
X144190476Y-123400057D02*
X144238095Y-123495295D01*
X144238095Y-123495295D02*
X144285714Y-123685771D01*
X144285714Y-123685771D02*
X144285714Y-123923866D01*
X144285714Y-123923866D02*
X144238095Y-124114342D01*
X144238095Y-124114342D02*
X144190476Y-124209580D01*
X144190476Y-124209580D02*
X144142857Y-124257200D01*
X144142857Y-124257200D02*
X144047619Y-124304819D01*
X144047619Y-124304819D02*
X143952381Y-124304819D01*
X143952381Y-124304819D02*
X143857143Y-124257200D01*
X143857143Y-124257200D02*
X143809524Y-124209580D01*
X143809524Y-124209580D02*
X143761905Y-124114342D01*
X143761905Y-124114342D02*
X143714286Y-123923866D01*
X143714286Y-123923866D02*
X143714286Y-123685771D01*
X143714286Y-123685771D02*
X143761905Y-123495295D01*
X143761905Y-123495295D02*
X143809524Y-123400057D01*
X143809524Y-123400057D02*
X143857143Y-123352438D01*
X143857143Y-123352438D02*
X143952381Y-123304819D01*
X144904762Y-123304819D02*
X145000000Y-123304819D01*
X145000000Y-123304819D02*
X145095238Y-123352438D01*
X145095238Y-123352438D02*
X145142857Y-123400057D01*
X145142857Y-123400057D02*
X145190476Y-123495295D01*
X145190476Y-123495295D02*
X145238095Y-123685771D01*
X145238095Y-123685771D02*
X145238095Y-123923866D01*
X145238095Y-123923866D02*
X145190476Y-124114342D01*
X145190476Y-124114342D02*
X145142857Y-124209580D01*
X145142857Y-124209580D02*
X145095238Y-124257200D01*
X145095238Y-124257200D02*
X145000000Y-124304819D01*
X145000000Y-124304819D02*
X144904762Y-124304819D01*
X144904762Y-124304819D02*
X144809524Y-124257200D01*
X144809524Y-124257200D02*
X144761905Y-124209580D01*
X144761905Y-124209580D02*
X144714286Y-124114342D01*
X144714286Y-124114342D02*
X144666667Y-123923866D01*
X144666667Y-123923866D02*
X144666667Y-123685771D01*
X144666667Y-123685771D02*
X144714286Y-123495295D01*
X144714286Y-123495295D02*
X144761905Y-123400057D01*
X144761905Y-123400057D02*
X144809524Y-123352438D01*
X144809524Y-123352438D02*
X144904762Y-123304819D01*
X145857143Y-123304819D02*
X145952381Y-123304819D01*
X145952381Y-123304819D02*
X146047619Y-123352438D01*
X146047619Y-123352438D02*
X146095238Y-123400057D01*
X146095238Y-123400057D02*
X146142857Y-123495295D01*
X146142857Y-123495295D02*
X146190476Y-123685771D01*
X146190476Y-123685771D02*
X146190476Y-123923866D01*
X146190476Y-123923866D02*
X146142857Y-124114342D01*
X146142857Y-124114342D02*
X146095238Y-124209580D01*
X146095238Y-124209580D02*
X146047619Y-124257200D01*
X146047619Y-124257200D02*
X145952381Y-124304819D01*
X145952381Y-124304819D02*
X145857143Y-124304819D01*
X145857143Y-124304819D02*
X145761905Y-124257200D01*
X145761905Y-124257200D02*
X145714286Y-124209580D01*
X145714286Y-124209580D02*
X145666667Y-124114342D01*
X145666667Y-124114342D02*
X145619048Y-123923866D01*
X145619048Y-123923866D02*
X145619048Y-123685771D01*
X145619048Y-123685771D02*
X145666667Y-123495295D01*
X145666667Y-123495295D02*
X145714286Y-123400057D01*
X145714286Y-123400057D02*
X145761905Y-123352438D01*
X145761905Y-123352438D02*
X145857143Y-123304819D01*
X147380953Y-124304819D02*
X147380953Y-123638152D01*
X147380953Y-123733390D02*
X147428572Y-123685771D01*
X147428572Y-123685771D02*
X147523810Y-123638152D01*
X147523810Y-123638152D02*
X147666667Y-123638152D01*
X147666667Y-123638152D02*
X147761905Y-123685771D01*
X147761905Y-123685771D02*
X147809524Y-123781009D01*
X147809524Y-123781009D02*
X147809524Y-124304819D01*
X147809524Y-123781009D02*
X147857143Y-123685771D01*
X147857143Y-123685771D02*
X147952381Y-123638152D01*
X147952381Y-123638152D02*
X148095238Y-123638152D01*
X148095238Y-123638152D02*
X148190477Y-123685771D01*
X148190477Y-123685771D02*
X148238096Y-123781009D01*
X148238096Y-123781009D02*
X148238096Y-124304819D01*
X148714286Y-124304819D02*
X148714286Y-123638152D01*
X148714286Y-123733390D02*
X148761905Y-123685771D01*
X148761905Y-123685771D02*
X148857143Y-123638152D01*
X148857143Y-123638152D02*
X149000000Y-123638152D01*
X149000000Y-123638152D02*
X149095238Y-123685771D01*
X149095238Y-123685771D02*
X149142857Y-123781009D01*
X149142857Y-123781009D02*
X149142857Y-124304819D01*
X149142857Y-123781009D02*
X149190476Y-123685771D01*
X149190476Y-123685771D02*
X149285714Y-123638152D01*
X149285714Y-123638152D02*
X149428571Y-123638152D01*
X149428571Y-123638152D02*
X149523810Y-123685771D01*
X149523810Y-123685771D02*
X149571429Y-123781009D01*
X149571429Y-123781009D02*
X149571429Y-124304819D01*
X176000000Y-122500000D02*
X176000000Y-125586420D01*
X114000000Y-122500000D02*
X114000000Y-125586420D01*
X176000000Y-125000000D02*
X114000000Y-125000000D01*
X176000000Y-125000000D02*
X114000000Y-125000000D01*
X176000000Y-125000000D02*
X174873496Y-125586421D01*
X176000000Y-125000000D02*
X174873496Y-124413579D01*
X114000000Y-125000000D02*
X115126504Y-124413579D01*
X114000000Y-125000000D02*
X115126504Y-125586421D01*
X109304819Y-101095237D02*
X109304819Y-101571427D01*
X109304819Y-101571427D02*
X109781009Y-101619046D01*
X109781009Y-101619046D02*
X109733390Y-101571427D01*
X109733390Y-101571427D02*
X109685771Y-101476189D01*
X109685771Y-101476189D02*
X109685771Y-101238094D01*
X109685771Y-101238094D02*
X109733390Y-101142856D01*
X109733390Y-101142856D02*
X109781009Y-101095237D01*
X109781009Y-101095237D02*
X109876247Y-101047618D01*
X109876247Y-101047618D02*
X110114342Y-101047618D01*
X110114342Y-101047618D02*
X110209580Y-101095237D01*
X110209580Y-101095237D02*
X110257200Y-101142856D01*
X110257200Y-101142856D02*
X110304819Y-101238094D01*
X110304819Y-101238094D02*
X110304819Y-101476189D01*
X110304819Y-101476189D02*
X110257200Y-101571427D01*
X110257200Y-101571427D02*
X110209580Y-101619046D01*
X109304819Y-100428570D02*
X109304819Y-100333332D01*
X109304819Y-100333332D02*
X109352438Y-100238094D01*
X109352438Y-100238094D02*
X109400057Y-100190475D01*
X109400057Y-100190475D02*
X109495295Y-100142856D01*
X109495295Y-100142856D02*
X109685771Y-100095237D01*
X109685771Y-100095237D02*
X109923866Y-100095237D01*
X109923866Y-100095237D02*
X110114342Y-100142856D01*
X110114342Y-100142856D02*
X110209580Y-100190475D01*
X110209580Y-100190475D02*
X110257200Y-100238094D01*
X110257200Y-100238094D02*
X110304819Y-100333332D01*
X110304819Y-100333332D02*
X110304819Y-100428570D01*
X110304819Y-100428570D02*
X110257200Y-100523808D01*
X110257200Y-100523808D02*
X110209580Y-100571427D01*
X110209580Y-100571427D02*
X110114342Y-100619046D01*
X110114342Y-100619046D02*
X109923866Y-100666665D01*
X109923866Y-100666665D02*
X109685771Y-100666665D01*
X109685771Y-100666665D02*
X109495295Y-100619046D01*
X109495295Y-100619046D02*
X109400057Y-100571427D01*
X109400057Y-100571427D02*
X109352438Y-100523808D01*
X109352438Y-100523808D02*
X109304819Y-100428570D01*
X110209580Y-99666665D02*
X110257200Y-99619046D01*
X110257200Y-99619046D02*
X110304819Y-99666665D01*
X110304819Y-99666665D02*
X110257200Y-99714284D01*
X110257200Y-99714284D02*
X110209580Y-99666665D01*
X110209580Y-99666665D02*
X110304819Y-99666665D01*
X109304819Y-98999999D02*
X109304819Y-98904761D01*
X109304819Y-98904761D02*
X109352438Y-98809523D01*
X109352438Y-98809523D02*
X109400057Y-98761904D01*
X109400057Y-98761904D02*
X109495295Y-98714285D01*
X109495295Y-98714285D02*
X109685771Y-98666666D01*
X109685771Y-98666666D02*
X109923866Y-98666666D01*
X109923866Y-98666666D02*
X110114342Y-98714285D01*
X110114342Y-98714285D02*
X110209580Y-98761904D01*
X110209580Y-98761904D02*
X110257200Y-98809523D01*
X110257200Y-98809523D02*
X110304819Y-98904761D01*
X110304819Y-98904761D02*
X110304819Y-98999999D01*
X110304819Y-98999999D02*
X110257200Y-99095237D01*
X110257200Y-99095237D02*
X110209580Y-99142856D01*
X110209580Y-99142856D02*
X110114342Y-99190475D01*
X110114342Y-99190475D02*
X109923866Y-99238094D01*
X109923866Y-99238094D02*
X109685771Y-99238094D01*
X109685771Y-99238094D02*
X109495295Y-99190475D01*
X109495295Y-99190475D02*
X109400057Y-99142856D01*
X109400057Y-99142856D02*
X109352438Y-99095237D01*
X109352438Y-99095237D02*
X109304819Y-98999999D01*
X109304819Y-98047618D02*
X109304819Y-97952380D01*
X109304819Y-97952380D02*
X109352438Y-97857142D01*
X109352438Y-97857142D02*
X109400057Y-97809523D01*
X109400057Y-97809523D02*
X109495295Y-97761904D01*
X109495295Y-97761904D02*
X109685771Y-97714285D01*
X109685771Y-97714285D02*
X109923866Y-97714285D01*
X109923866Y-97714285D02*
X110114342Y-97761904D01*
X110114342Y-97761904D02*
X110209580Y-97809523D01*
X110209580Y-97809523D02*
X110257200Y-97857142D01*
X110257200Y-97857142D02*
X110304819Y-97952380D01*
X110304819Y-97952380D02*
X110304819Y-98047618D01*
X110304819Y-98047618D02*
X110257200Y-98142856D01*
X110257200Y-98142856D02*
X110209580Y-98190475D01*
X110209580Y-98190475D02*
X110114342Y-98238094D01*
X110114342Y-98238094D02*
X109923866Y-98285713D01*
X109923866Y-98285713D02*
X109685771Y-98285713D01*
X109685771Y-98285713D02*
X109495295Y-98238094D01*
X109495295Y-98238094D02*
X109400057Y-98190475D01*
X109400057Y-98190475D02*
X109352438Y-98142856D01*
X109352438Y-98142856D02*
X109304819Y-98047618D01*
X109304819Y-97095237D02*
X109304819Y-96999999D01*
X109304819Y-96999999D02*
X109352438Y-96904761D01*
X109352438Y-96904761D02*
X109400057Y-96857142D01*
X109400057Y-96857142D02*
X109495295Y-96809523D01*
X109495295Y-96809523D02*
X109685771Y-96761904D01*
X109685771Y-96761904D02*
X109923866Y-96761904D01*
X109923866Y-96761904D02*
X110114342Y-96809523D01*
X110114342Y-96809523D02*
X110209580Y-96857142D01*
X110209580Y-96857142D02*
X110257200Y-96904761D01*
X110257200Y-96904761D02*
X110304819Y-96999999D01*
X110304819Y-96999999D02*
X110304819Y-97095237D01*
X110304819Y-97095237D02*
X110257200Y-97190475D01*
X110257200Y-97190475D02*
X110209580Y-97238094D01*
X110209580Y-97238094D02*
X110114342Y-97285713D01*
X110114342Y-97285713D02*
X109923866Y-97333332D01*
X109923866Y-97333332D02*
X109685771Y-97333332D01*
X109685771Y-97333332D02*
X109495295Y-97285713D01*
X109495295Y-97285713D02*
X109400057Y-97238094D01*
X109400057Y-97238094D02*
X109352438Y-97190475D01*
X109352438Y-97190475D02*
X109304819Y-97095237D01*
X109304819Y-96142856D02*
X109304819Y-96047618D01*
X109304819Y-96047618D02*
X109352438Y-95952380D01*
X109352438Y-95952380D02*
X109400057Y-95904761D01*
X109400057Y-95904761D02*
X109495295Y-95857142D01*
X109495295Y-95857142D02*
X109685771Y-95809523D01*
X109685771Y-95809523D02*
X109923866Y-95809523D01*
X109923866Y-95809523D02*
X110114342Y-95857142D01*
X110114342Y-95857142D02*
X110209580Y-95904761D01*
X110209580Y-95904761D02*
X110257200Y-95952380D01*
X110257200Y-95952380D02*
X110304819Y-96047618D01*
X110304819Y-96047618D02*
X110304819Y-96142856D01*
X110304819Y-96142856D02*
X110257200Y-96238094D01*
X110257200Y-96238094D02*
X110209580Y-96285713D01*
X110209580Y-96285713D02*
X110114342Y-96333332D01*
X110114342Y-96333332D02*
X109923866Y-96380951D01*
X109923866Y-96380951D02*
X109685771Y-96380951D01*
X109685771Y-96380951D02*
X109495295Y-96333332D01*
X109495295Y-96333332D02*
X109400057Y-96285713D01*
X109400057Y-96285713D02*
X109352438Y-96238094D01*
X109352438Y-96238094D02*
X109304819Y-96142856D01*
X110304819Y-94619046D02*
X109638152Y-94619046D01*
X109733390Y-94619046D02*
X109685771Y-94571427D01*
X109685771Y-94571427D02*
X109638152Y-94476189D01*
X109638152Y-94476189D02*
X109638152Y-94333332D01*
X109638152Y-94333332D02*
X109685771Y-94238094D01*
X109685771Y-94238094D02*
X109781009Y-94190475D01*
X109781009Y-94190475D02*
X110304819Y-94190475D01*
X109781009Y-94190475D02*
X109685771Y-94142856D01*
X109685771Y-94142856D02*
X109638152Y-94047618D01*
X109638152Y-94047618D02*
X109638152Y-93904761D01*
X109638152Y-93904761D02*
X109685771Y-93809522D01*
X109685771Y-93809522D02*
X109781009Y-93761903D01*
X109781009Y-93761903D02*
X110304819Y-93761903D01*
X110304819Y-93285713D02*
X109638152Y-93285713D01*
X109733390Y-93285713D02*
X109685771Y-93238094D01*
X109685771Y-93238094D02*
X109638152Y-93142856D01*
X109638152Y-93142856D02*
X109638152Y-92999999D01*
X109638152Y-92999999D02*
X109685771Y-92904761D01*
X109685771Y-92904761D02*
X109781009Y-92857142D01*
X109781009Y-92857142D02*
X110304819Y-92857142D01*
X109781009Y-92857142D02*
X109685771Y-92809523D01*
X109685771Y-92809523D02*
X109638152Y-92714285D01*
X109638152Y-92714285D02*
X109638152Y-92571428D01*
X109638152Y-92571428D02*
X109685771Y-92476189D01*
X109685771Y-92476189D02*
X109781009Y-92428570D01*
X109781009Y-92428570D02*
X110304819Y-92428570D01*
X113500000Y-122000000D02*
X110413580Y-122000000D01*
X113500000Y-72000000D02*
X110413580Y-72000000D01*
X111000000Y-122000000D02*
X111000000Y-72000000D01*
X111000000Y-122000000D02*
X111000000Y-72000000D01*
X111000000Y-122000000D02*
X110413579Y-120873496D01*
X111000000Y-122000000D02*
X111586421Y-120873496D01*
X111000000Y-72000000D02*
X111586421Y-73126504D01*
X111000000Y-72000000D02*
X110413579Y-73126504D01*
M02*
