%TF.GenerationSoftware,KiCad,Pcbnew,8.0.8+1*%
%TF.CreationDate,2025-10-29T14:44:18+00:00*%
%TF.ProjectId,LoRa-V3-PCB,4c6f5261-2d56-4332-9d50-43422e6b6963,rev?*%
%TF.SameCoordinates,Original*%
%TF.FileFunction,Soldermask,Bot*%
%TF.FilePolarity,Negative*%
%FSLAX46Y46*%
G04 Gerber Fmt 4.6, Leading zero omitted, Abs format (unit mm)*
G04 Created by KiCad (PCBNEW 8.0.8+1) date 2025-10-29 14:44:18*
%MOMM*%
%LPD*%
G01*
G04 APERTURE LIST*
G04 Aperture macros list*
%AMRoundRect*
0 Rectangle with rounded corners*
0 $1 Rounding radius*
0 $2 $3 $4 $5 $6 $7 $8 $9 X,Y pos of 4 corners*
0 Add a 4 corners polygon primitive as box body*
4,1,4,$2,$3,$4,$5,$6,$7,$8,$9,$2,$3,0*
0 Add four circle primitives for the rounded corners*
1,1,$1+$1,$2,$3*
1,1,$1+$1,$4,$5*
1,1,$1+$1,$6,$7*
1,1,$1+$1,$8,$9*
0 Add four rect primitives between the rounded corners*
20,1,$1+$1,$2,$3,$4,$5,0*
20,1,$1+$1,$4,$5,$6,$7,0*
20,1,$1+$1,$6,$7,$8,$9,0*
20,1,$1+$1,$8,$9,$2,$3,0*%
G04 Aperture macros list end*
%TA.AperFunction,Profile*%
%ADD10C,0.050000*%
%TD*%
%TA.AperFunction,Profile*%
%ADD11C,0.100000*%
%TD*%
%ADD12C,2.000000*%
%ADD13RoundRect,0.523529X-1.078471X-1.078471X1.078471X-1.078471X1.078471X1.078471X-1.078471X1.078471X0*%
%ADD14C,3.204000*%
%ADD15RoundRect,0.250000X-0.425000X0.425000X-0.425000X-0.425000X0.425000X-0.425000X0.425000X0.425000X0*%
%ADD16O,1.350000X1.350000*%
%ADD17C,1.000000*%
%ADD18C,2.500000*%
%ADD19RoundRect,0.440000X0.660000X0.660000X-0.660000X0.660000X-0.660000X-0.660000X0.660000X-0.660000X0*%
%ADD20RoundRect,0.340000X0.510000X0.510000X-0.510000X0.510000X-0.510000X-0.510000X0.510000X-0.510000X0*%
%ADD21O,1.700000X1.700000*%
%ADD22O,1.800000X1.000000*%
%ADD23O,2.200000X1.000000*%
G04 APERTURE END LIST*
D10*
X162500000Y-73000000D02*
G75*
G02*
X162000000Y-72500000I0J500000D01*
G01*
D11*
X114000000Y-75000000D02*
X114000000Y-119000000D01*
X167550000Y-114000000D02*
X174500000Y-114000000D01*
D10*
X128500000Y-72000000D02*
X161500000Y-72000000D01*
D11*
X176000000Y-119000000D02*
G75*
G02*
X173000000Y-122000000I-3000000J0D01*
G01*
D10*
X161500000Y-72000000D02*
G75*
G02*
X162000000Y-72500000I0J-500000D01*
G01*
X122500000Y-73000000D02*
G75*
G02*
X122000000Y-72500000I0J500000D01*
G01*
X128000000Y-72500000D02*
G75*
G02*
X128500000Y-72000000I500000J0D01*
G01*
D11*
X176000000Y-115500000D02*
X176000000Y-119000000D01*
D10*
X167500000Y-73000000D02*
X162500000Y-73000000D01*
D11*
X165750000Y-104800000D02*
G75*
G02*
X167550000Y-103000000I1800000J0D01*
G01*
X139500000Y-120500000D02*
G75*
G02*
X138000000Y-122000000I-1500000J0D01*
G01*
X139500000Y-120500000D02*
G75*
G02*
X141000000Y-119000000I1500000J0D01*
G01*
D10*
X122500000Y-73000000D02*
X127500000Y-73000000D01*
X121500000Y-72000000D02*
G75*
G02*
X122000000Y-72500000I0J-500000D01*
G01*
D11*
X176000000Y-101500000D02*
G75*
G02*
X174500000Y-103000000I-1500000J0D01*
G01*
X117000000Y-122000000D02*
G75*
G02*
X114000000Y-119000000I0J3000000D01*
G01*
D10*
X128000000Y-72500000D02*
G75*
G02*
X127500000Y-73000000I-500000J0D01*
G01*
D11*
X156500000Y-119000000D02*
G75*
G02*
X158000000Y-120500000I0J-1500000D01*
G01*
X174500000Y-103000000D02*
X167550000Y-103000000D01*
X159500000Y-122000000D02*
X173000000Y-122000000D01*
X167550000Y-114000000D02*
G75*
G02*
X165750000Y-112200000I0J1800000D01*
G01*
X165750000Y-104800000D02*
X165750000Y-112200000D01*
X173000000Y-72000000D02*
G75*
G02*
X176000000Y-75000000I0J-3000000D01*
G01*
X156500000Y-119000000D02*
X141000000Y-119000000D01*
D10*
X117000000Y-72000000D02*
X121500000Y-72000000D01*
D11*
X176000000Y-75000000D02*
X176000000Y-101500000D01*
D10*
X168000000Y-72500000D02*
G75*
G02*
X167500000Y-73000000I-500000J0D01*
G01*
D11*
X114000000Y-75000000D02*
G75*
G02*
X117000000Y-72000000I3000000J0D01*
G01*
X174500000Y-114000000D02*
G75*
G02*
X176000000Y-115500000I0J-1500000D01*
G01*
X159500000Y-122000000D02*
G75*
G02*
X158000000Y-120500000I0J1500000D01*
G01*
D10*
X168500000Y-72000000D02*
X173000000Y-72000000D01*
X168000000Y-72500000D02*
G75*
G02*
X168500000Y-72000000I500000J0D01*
G01*
D11*
X117000000Y-122000000D02*
X138000000Y-122000000D01*
D12*
%TO.C,H3*%
X117000000Y-119000000D03*
%TD*%
%TO.C,H2*%
X173000000Y-75000000D03*
%TD*%
D13*
%TO.C,CONN2*%
X118900000Y-80500000D03*
D14*
X171100000Y-80500000D03*
%TD*%
D15*
%TO.C,CONN8*%
X169750000Y-115000000D03*
D16*
X167750000Y-115000000D03*
X165750000Y-115000000D03*
X163750000Y-115000000D03*
X161750000Y-115000000D03*
X159750000Y-115000000D03*
%TD*%
D17*
%TO.C,SW2*%
X166650000Y-118750000D03*
X162850000Y-118750000D03*
%TD*%
D18*
%TO.C,CONN5*%
X171900000Y-97000000D03*
D19*
X174440000Y-99540000D03*
X174440000Y-94460000D03*
X169360000Y-99540000D03*
X169360000Y-94460000D03*
%TD*%
D12*
%TO.C,H1*%
X117000000Y-75000000D03*
%TD*%
%TO.C,H4*%
X173000000Y-119000000D03*
%TD*%
D20*
%TO.C,CONN4*%
X115750000Y-115500000D03*
D21*
X115750000Y-112960000D03*
%TD*%
D22*
%TO.C,CONN1*%
X119580000Y-92680000D03*
X119580000Y-101320000D03*
D23*
X115580000Y-92680000D03*
X115580000Y-101320000D03*
%TD*%
M02*
