%TF.GenerationSoftware,KiCad,Pcbnew,8.0.8+1*%
%TF.CreationDate,Date%
%TF.ProjectId,LoRa-V3-PCB,4c6f5261-2d56-4332-9d50-43422e6b6963,rev?*%
%TF.SameCoordinates,Original*%
%TF.FileFunction,OtherDrawing,Comment*%
%FSLAX46Y46*%
G04 Gerber Fmt 4.6, Leading zero omitted, Abs format (unit mm)*
G04 Created by KiCad*
%MOMM*%
%LPD*%
G01*
G04 APERTURE LIST*
%TA.AperFunction,Profile*%
%ADD10C,0.050000*%
%TD*%
%TA.AperFunction,Profile*%
%ADD11C,0.100000*%
%TD*%
%ADD12C,0.050000*%
%ADD13C,0.060000*%
%ADD14C,0.100000*%
G04 APERTURE END LIST*
D10*
X162500000Y-73000000D02*
G75*
G02*
X162000000Y-72500000I0J500000D01*
G01*
D11*
X114000000Y-75000000D02*
X114000000Y-119000000D01*
X167550000Y-114000000D02*
X174500000Y-114000000D01*
D10*
X128500000Y-72000000D02*
X161500000Y-72000000D01*
D11*
X176000000Y-119000000D02*
G75*
G02*
X173000000Y-122000000I-3000000J0D01*
G01*
D10*
X161500000Y-72000000D02*
G75*
G02*
X162000000Y-72500000I0J-500000D01*
G01*
X122500000Y-73000000D02*
G75*
G02*
X122000000Y-72500000I0J500000D01*
G01*
X128000000Y-72500000D02*
G75*
G02*
X128500000Y-72000000I500000J0D01*
G01*
D11*
X176000000Y-115500000D02*
X176000000Y-119000000D01*
D10*
X167500000Y-73000000D02*
X162500000Y-73000000D01*
D11*
X165750000Y-104800000D02*
G75*
G02*
X167550000Y-103000000I1800000J0D01*
G01*
X139500000Y-120500000D02*
G75*
G02*
X138000000Y-122000000I-1500000J0D01*
G01*
X139500000Y-120500000D02*
G75*
G02*
X141000000Y-119000000I1500000J0D01*
G01*
D10*
X122500000Y-73000000D02*
X127500000Y-73000000D01*
X121500000Y-72000000D02*
G75*
G02*
X122000000Y-72500000I0J-500000D01*
G01*
D11*
X176000000Y-101500000D02*
G75*
G02*
X174500000Y-103000000I-1500000J0D01*
G01*
X117000000Y-122000000D02*
G75*
G02*
X114000000Y-119000000I0J3000000D01*
G01*
D10*
X128000000Y-72500000D02*
G75*
G02*
X127500000Y-73000000I-500000J0D01*
G01*
D11*
X156500000Y-119000000D02*
G75*
G02*
X158000000Y-120500000I0J-1500000D01*
G01*
X174500000Y-103000000D02*
X167550000Y-103000000D01*
X159500000Y-122000000D02*
X173000000Y-122000000D01*
X167550000Y-114000000D02*
G75*
G02*
X165750000Y-112200000I0J1800000D01*
G01*
X165750000Y-104800000D02*
X165750000Y-112200000D01*
X173000000Y-72000000D02*
G75*
G02*
X176000000Y-75000000I0J-3000000D01*
G01*
X156500000Y-119000000D02*
X141000000Y-119000000D01*
D10*
X117000000Y-72000000D02*
X121500000Y-72000000D01*
D11*
X176000000Y-75000000D02*
X176000000Y-101500000D01*
D10*
X168000000Y-72500000D02*
G75*
G02*
X167500000Y-73000000I-500000J0D01*
G01*
D11*
X114000000Y-75000000D02*
G75*
G02*
X117000000Y-72000000I3000000J0D01*
G01*
X174500000Y-114000000D02*
G75*
G02*
X176000000Y-115500000I0J-1500000D01*
G01*
X159500000Y-122000000D02*
G75*
G02*
X158000000Y-120500000I0J1500000D01*
G01*
D10*
X168500000Y-72000000D02*
X173000000Y-72000000D01*
X168000000Y-72500000D02*
G75*
G02*
X168500000Y-72000000I500000J0D01*
G01*
D11*
X117000000Y-122000000D02*
X138000000Y-122000000D01*
D12*
X113080400Y-107957141D02*
X113089923Y-107928570D01*
X113089923Y-107928570D02*
X113089923Y-107880951D01*
X113089923Y-107880951D02*
X113080400Y-107861903D01*
X113080400Y-107861903D02*
X113070876Y-107852379D01*
X113070876Y-107852379D02*
X113051828Y-107842856D01*
X113051828Y-107842856D02*
X113032780Y-107842856D01*
X113032780Y-107842856D02*
X113013733Y-107852379D01*
X113013733Y-107852379D02*
X113004209Y-107861903D01*
X113004209Y-107861903D02*
X112994685Y-107880951D01*
X112994685Y-107880951D02*
X112985161Y-107919046D01*
X112985161Y-107919046D02*
X112975638Y-107938094D01*
X112975638Y-107938094D02*
X112966114Y-107947617D01*
X112966114Y-107947617D02*
X112947066Y-107957141D01*
X112947066Y-107957141D02*
X112928019Y-107957141D01*
X112928019Y-107957141D02*
X112908971Y-107947617D01*
X112908971Y-107947617D02*
X112899447Y-107938094D01*
X112899447Y-107938094D02*
X112889923Y-107919046D01*
X112889923Y-107919046D02*
X112889923Y-107871427D01*
X112889923Y-107871427D02*
X112899447Y-107842856D01*
X112889923Y-107776189D02*
X113089923Y-107728570D01*
X113089923Y-107728570D02*
X112947066Y-107690475D01*
X112947066Y-107690475D02*
X113089923Y-107652380D01*
X113089923Y-107652380D02*
X112889923Y-107604761D01*
X113089923Y-107528570D02*
X112889923Y-107528570D01*
X112889923Y-107461904D02*
X112889923Y-107347618D01*
X113089923Y-107404761D02*
X112889923Y-107404761D01*
X113070876Y-107166666D02*
X113080400Y-107176190D01*
X113080400Y-107176190D02*
X113089923Y-107204761D01*
X113089923Y-107204761D02*
X113089923Y-107223809D01*
X113089923Y-107223809D02*
X113080400Y-107252380D01*
X113080400Y-107252380D02*
X113061352Y-107271428D01*
X113061352Y-107271428D02*
X113042304Y-107280951D01*
X113042304Y-107280951D02*
X113004209Y-107290475D01*
X113004209Y-107290475D02*
X112975638Y-107290475D01*
X112975638Y-107290475D02*
X112937542Y-107280951D01*
X112937542Y-107280951D02*
X112918495Y-107271428D01*
X112918495Y-107271428D02*
X112899447Y-107252380D01*
X112899447Y-107252380D02*
X112889923Y-107223809D01*
X112889923Y-107223809D02*
X112889923Y-107204761D01*
X112889923Y-107204761D02*
X112899447Y-107176190D01*
X112899447Y-107176190D02*
X112908971Y-107166666D01*
X113089923Y-107080951D02*
X112889923Y-107080951D01*
X112985161Y-107080951D02*
X112985161Y-106966666D01*
X113089923Y-106966666D02*
X112889923Y-106966666D01*
X112985161Y-106719046D02*
X112985161Y-106652380D01*
X113089923Y-106623808D02*
X113089923Y-106719046D01*
X113089923Y-106719046D02*
X112889923Y-106719046D01*
X112889923Y-106719046D02*
X112889923Y-106623808D01*
X113089923Y-106538094D02*
X112889923Y-106538094D01*
X112889923Y-106538094D02*
X112889923Y-106490475D01*
X112889923Y-106490475D02*
X112899447Y-106461904D01*
X112899447Y-106461904D02*
X112918495Y-106442856D01*
X112918495Y-106442856D02*
X112937542Y-106433333D01*
X112937542Y-106433333D02*
X112975638Y-106423809D01*
X112975638Y-106423809D02*
X113004209Y-106423809D01*
X113004209Y-106423809D02*
X113042304Y-106433333D01*
X113042304Y-106433333D02*
X113061352Y-106442856D01*
X113061352Y-106442856D02*
X113080400Y-106461904D01*
X113080400Y-106461904D02*
X113089923Y-106490475D01*
X113089923Y-106490475D02*
X113089923Y-106538094D01*
X112899447Y-106233333D02*
X112889923Y-106252380D01*
X112889923Y-106252380D02*
X112889923Y-106280952D01*
X112889923Y-106280952D02*
X112899447Y-106309523D01*
X112899447Y-106309523D02*
X112918495Y-106328571D01*
X112918495Y-106328571D02*
X112937542Y-106338094D01*
X112937542Y-106338094D02*
X112975638Y-106347618D01*
X112975638Y-106347618D02*
X113004209Y-106347618D01*
X113004209Y-106347618D02*
X113042304Y-106338094D01*
X113042304Y-106338094D02*
X113061352Y-106328571D01*
X113061352Y-106328571D02*
X113080400Y-106309523D01*
X113080400Y-106309523D02*
X113089923Y-106280952D01*
X113089923Y-106280952D02*
X113089923Y-106261904D01*
X113089923Y-106261904D02*
X113080400Y-106233333D01*
X113080400Y-106233333D02*
X113070876Y-106223809D01*
X113070876Y-106223809D02*
X113004209Y-106223809D01*
X113004209Y-106223809D02*
X113004209Y-106261904D01*
X112985161Y-106138094D02*
X112985161Y-106071428D01*
X113089923Y-106042856D02*
X113089923Y-106138094D01*
X113089923Y-106138094D02*
X112889923Y-106138094D01*
X112889923Y-106138094D02*
X112889923Y-106042856D01*
D13*
X114157908Y-107851428D02*
X113917908Y-107851428D01*
X113917908Y-107851428D02*
X113917908Y-107759999D01*
X113917908Y-107759999D02*
X113929337Y-107737142D01*
X113929337Y-107737142D02*
X113940765Y-107725713D01*
X113940765Y-107725713D02*
X113963622Y-107714285D01*
X113963622Y-107714285D02*
X113997908Y-107714285D01*
X113997908Y-107714285D02*
X114020765Y-107725713D01*
X114020765Y-107725713D02*
X114032194Y-107737142D01*
X114032194Y-107737142D02*
X114043622Y-107759999D01*
X114043622Y-107759999D02*
X114043622Y-107851428D01*
X114135051Y-107474285D02*
X114146480Y-107485713D01*
X114146480Y-107485713D02*
X114157908Y-107519999D01*
X114157908Y-107519999D02*
X114157908Y-107542856D01*
X114157908Y-107542856D02*
X114146480Y-107577142D01*
X114146480Y-107577142D02*
X114123622Y-107599999D01*
X114123622Y-107599999D02*
X114100765Y-107611428D01*
X114100765Y-107611428D02*
X114055051Y-107622856D01*
X114055051Y-107622856D02*
X114020765Y-107622856D01*
X114020765Y-107622856D02*
X113975051Y-107611428D01*
X113975051Y-107611428D02*
X113952194Y-107599999D01*
X113952194Y-107599999D02*
X113929337Y-107577142D01*
X113929337Y-107577142D02*
X113917908Y-107542856D01*
X113917908Y-107542856D02*
X113917908Y-107519999D01*
X113917908Y-107519999D02*
X113929337Y-107485713D01*
X113929337Y-107485713D02*
X113940765Y-107474285D01*
X114032194Y-107291428D02*
X114043622Y-107257142D01*
X114043622Y-107257142D02*
X114055051Y-107245713D01*
X114055051Y-107245713D02*
X114077908Y-107234285D01*
X114077908Y-107234285D02*
X114112194Y-107234285D01*
X114112194Y-107234285D02*
X114135051Y-107245713D01*
X114135051Y-107245713D02*
X114146480Y-107257142D01*
X114146480Y-107257142D02*
X114157908Y-107279999D01*
X114157908Y-107279999D02*
X114157908Y-107371428D01*
X114157908Y-107371428D02*
X113917908Y-107371428D01*
X113917908Y-107371428D02*
X113917908Y-107291428D01*
X113917908Y-107291428D02*
X113929337Y-107268571D01*
X113929337Y-107268571D02*
X113940765Y-107257142D01*
X113940765Y-107257142D02*
X113963622Y-107245713D01*
X113963622Y-107245713D02*
X113986480Y-107245713D01*
X113986480Y-107245713D02*
X114009337Y-107257142D01*
X114009337Y-107257142D02*
X114020765Y-107268571D01*
X114020765Y-107268571D02*
X114032194Y-107291428D01*
X114032194Y-107291428D02*
X114032194Y-107371428D01*
X114032194Y-106948571D02*
X114032194Y-106868571D01*
X114157908Y-106834285D02*
X114157908Y-106948571D01*
X114157908Y-106948571D02*
X113917908Y-106948571D01*
X113917908Y-106948571D02*
X113917908Y-106834285D01*
X114157908Y-106731428D02*
X113917908Y-106731428D01*
X113917908Y-106731428D02*
X113917908Y-106674285D01*
X113917908Y-106674285D02*
X113929337Y-106639999D01*
X113929337Y-106639999D02*
X113952194Y-106617142D01*
X113952194Y-106617142D02*
X113975051Y-106605713D01*
X113975051Y-106605713D02*
X114020765Y-106594285D01*
X114020765Y-106594285D02*
X114055051Y-106594285D01*
X114055051Y-106594285D02*
X114100765Y-106605713D01*
X114100765Y-106605713D02*
X114123622Y-106617142D01*
X114123622Y-106617142D02*
X114146480Y-106639999D01*
X114146480Y-106639999D02*
X114157908Y-106674285D01*
X114157908Y-106674285D02*
X114157908Y-106731428D01*
X113929337Y-106365713D02*
X113917908Y-106388571D01*
X113917908Y-106388571D02*
X113917908Y-106422856D01*
X113917908Y-106422856D02*
X113929337Y-106457142D01*
X113929337Y-106457142D02*
X113952194Y-106479999D01*
X113952194Y-106479999D02*
X113975051Y-106491428D01*
X113975051Y-106491428D02*
X114020765Y-106502856D01*
X114020765Y-106502856D02*
X114055051Y-106502856D01*
X114055051Y-106502856D02*
X114100765Y-106491428D01*
X114100765Y-106491428D02*
X114123622Y-106479999D01*
X114123622Y-106479999D02*
X114146480Y-106457142D01*
X114146480Y-106457142D02*
X114157908Y-106422856D01*
X114157908Y-106422856D02*
X114157908Y-106399999D01*
X114157908Y-106399999D02*
X114146480Y-106365713D01*
X114146480Y-106365713D02*
X114135051Y-106354285D01*
X114135051Y-106354285D02*
X114055051Y-106354285D01*
X114055051Y-106354285D02*
X114055051Y-106399999D01*
X114032194Y-106251428D02*
X114032194Y-106171428D01*
X114157908Y-106137142D02*
X114157908Y-106251428D01*
X114157908Y-106251428D02*
X113917908Y-106251428D01*
X113917908Y-106251428D02*
X113917908Y-106137142D01*
D14*
%TO.C,CONN6*%
X157355000Y-116250000D02*
X140145000Y-116250000D01*
%TD*%
M02*
