%TF.GenerationSoftware,KiCad,Pcbnew,8.0.8+1*%
%TF.CreationDate,2025-10-27T08:51:50+00:00*%
%TF.ProjectId,LoRa-V3-PCB,4c6f5261-2d56-4332-9d50-43422e6b6963,rev?*%
%TF.SameCoordinates,Original*%
%TF.FileFunction,Copper,L2,Bot*%
%TF.FilePolarity,Positive*%
%FSLAX46Y46*%
G04 Gerber Fmt 4.6, Leading zero omitted, Abs format (unit mm)*
G04 Created by KiCad (PCBNEW 8.0.8+1) date 2025-10-27 08:51:50*
%MOMM*%
%LPD*%
G01*
G04 APERTURE LIST*
G04 Aperture macros list*
%AMRoundRect*
0 Rectangle with rounded corners*
0 $1 Rounding radius*
0 $2 $3 $4 $5 $6 $7 $8 $9 X,Y pos of 4 corners*
0 Add a 4 corners polygon primitive as box body*
4,1,4,$2,$3,$4,$5,$6,$7,$8,$9,$2,$3,0*
0 Add four circle primitives for the rounded corners*
1,1,$1+$1,$2,$3*
1,1,$1+$1,$4,$5*
1,1,$1+$1,$6,$7*
1,1,$1+$1,$8,$9*
0 Add four rect primitives between the rounded corners*
20,1,$1+$1,$2,$3,$4,$5,0*
20,1,$1+$1,$4,$5,$6,$7,0*
20,1,$1+$1,$6,$7,$8,$9,0*
20,1,$1+$1,$8,$9,$2,$3,0*%
G04 Aperture macros list end*
%TA.AperFunction,Profile*%
%ADD10C,0.050000*%
%TD*%
%TA.AperFunction,Profile*%
%ADD11C,0.100000*%
%TD*%
%TA.AperFunction,HeatsinkPad*%
%ADD12RoundRect,0.240000X-0.560000X-0.560000X0.560000X-0.560000X0.560000X0.560000X-0.560000X0.560000X0*%
%TD*%
%TA.AperFunction,ComponentPad*%
%ADD13RoundRect,0.490196X-1.009804X-1.009804X1.009804X-1.009804X1.009804X1.009804X-1.009804X1.009804X0*%
%TD*%
%TA.AperFunction,ComponentPad*%
%ADD14C,3.000000*%
%TD*%
%TA.AperFunction,ComponentPad*%
%ADD15RoundRect,0.250000X-0.425000X0.425000X-0.425000X-0.425000X0.425000X-0.425000X0.425000X0.425000X0*%
%TD*%
%TA.AperFunction,ComponentPad*%
%ADD16O,1.350000X1.350000*%
%TD*%
%TA.AperFunction,ComponentPad*%
%ADD17C,2.500000*%
%TD*%
%TA.AperFunction,ComponentPad*%
%ADD18RoundRect,0.440000X0.660000X0.660000X-0.660000X0.660000X-0.660000X-0.660000X0.660000X-0.660000X0*%
%TD*%
%TA.AperFunction,ComponentPad*%
%ADD19RoundRect,0.340000X0.510000X0.510000X-0.510000X0.510000X-0.510000X-0.510000X0.510000X-0.510000X0*%
%TD*%
%TA.AperFunction,ComponentPad*%
%ADD20O,1.700000X1.700000*%
%TD*%
%TA.AperFunction,ComponentPad*%
%ADD21O,1.800000X1.000000*%
%TD*%
%TA.AperFunction,ComponentPad*%
%ADD22O,2.200000X1.000000*%
%TD*%
%TA.AperFunction,ViaPad*%
%ADD23C,0.700000*%
%TD*%
%TA.AperFunction,Conductor*%
%ADD24C,0.200000*%
%TD*%
%TA.AperFunction,Conductor*%
%ADD25C,0.250000*%
%TD*%
%TA.AperFunction,Conductor*%
%ADD26C,0.400000*%
%TD*%
%TA.AperFunction,Conductor*%
%ADD27C,0.300000*%
%TD*%
%TA.AperFunction,Conductor*%
%ADD28C,0.800000*%
%TD*%
G04 APERTURE END LIST*
D10*
X162500000Y-73000000D02*
G75*
G02*
X162000000Y-72500000I0J500000D01*
G01*
D11*
X114000000Y-75000000D02*
X114000000Y-119000000D01*
X167550000Y-114000000D02*
X174500000Y-114000000D01*
D10*
X128500000Y-72000000D02*
X161500000Y-72000000D01*
D11*
X176000000Y-119000000D02*
G75*
G02*
X173000000Y-122000000I-3000000J0D01*
G01*
D10*
X161500000Y-72000000D02*
G75*
G02*
X162000000Y-72500000I0J-500000D01*
G01*
X122500000Y-73000000D02*
G75*
G02*
X122000000Y-72500000I0J500000D01*
G01*
X128000000Y-72500000D02*
G75*
G02*
X128500000Y-72000000I500000J0D01*
G01*
D11*
X176000000Y-115500000D02*
X176000000Y-119000000D01*
D10*
X167500000Y-73000000D02*
X162500000Y-73000000D01*
D11*
X165750000Y-104800000D02*
G75*
G02*
X167550000Y-103000000I1800000J0D01*
G01*
X139500000Y-120500000D02*
G75*
G02*
X138000000Y-122000000I-1500000J0D01*
G01*
X139500000Y-120500000D02*
G75*
G02*
X141000000Y-119000000I1500000J0D01*
G01*
D10*
X122500000Y-73000000D02*
X127500000Y-73000000D01*
X121500000Y-72000000D02*
G75*
G02*
X122000000Y-72500000I0J-500000D01*
G01*
D11*
X176000000Y-101500000D02*
G75*
G02*
X174500000Y-103000000I-1500000J0D01*
G01*
X117000000Y-122000000D02*
G75*
G02*
X114000000Y-119000000I0J3000000D01*
G01*
D10*
X128000000Y-72500000D02*
G75*
G02*
X127500000Y-73000000I-500000J0D01*
G01*
D11*
X156500000Y-119000000D02*
G75*
G02*
X158000000Y-120500000I0J-1500000D01*
G01*
X174500000Y-103000000D02*
X167550000Y-103000000D01*
X159500000Y-122000000D02*
X173000000Y-122000000D01*
X167550000Y-114000000D02*
G75*
G02*
X165750000Y-112200000I0J1800000D01*
G01*
X165750000Y-104800000D02*
X165750000Y-112200000D01*
X173000000Y-72000000D02*
G75*
G02*
X176000000Y-75000000I0J-3000000D01*
G01*
X156500000Y-119000000D02*
X141000000Y-119000000D01*
D10*
X117000000Y-72000000D02*
X121500000Y-72000000D01*
D11*
X176000000Y-75000000D02*
X176000000Y-101500000D01*
D10*
X168000000Y-72500000D02*
G75*
G02*
X167500000Y-73000000I-500000J0D01*
G01*
D11*
X114000000Y-75000000D02*
G75*
G02*
X117000000Y-72000000I3000000J0D01*
G01*
X174500000Y-114000000D02*
G75*
G02*
X176000000Y-115500000I0J-1500000D01*
G01*
X159500000Y-122000000D02*
G75*
G02*
X158000000Y-120500000I0J1500000D01*
G01*
D10*
X168500000Y-72000000D02*
X173000000Y-72000000D01*
X168000000Y-72500000D02*
G75*
G02*
X168500000Y-72000000I500000J0D01*
G01*
D11*
X117000000Y-122000000D02*
X138000000Y-122000000D01*
D12*
%TO.P,IC4,17,EP*%
%TO.N,GND*%
X125500000Y-115500000D03*
%TD*%
D13*
%TO.P,CONN2,1,-*%
%TO.N,GND*%
X118900000Y-80500000D03*
D14*
%TO.P,CONN2,2,+*%
%TO.N,VBAT*%
X171100000Y-80500000D03*
%TD*%
D15*
%TO.P,CONN8,1,Pin_1*%
%TO.N,GND*%
X169750000Y-115000000D03*
D16*
%TO.P,CONN8,2,Pin_2*%
%TO.N,+3.3V*%
X167750000Y-115000000D03*
%TO.P,CONN8,3,Pin_3*%
%TO.N,SWCLK*%
X165750000Y-115000000D03*
%TO.P,CONN8,4,Pin_4*%
%TO.N,SWDIO*%
X163750000Y-115000000D03*
%TO.P,CONN8,5,Pin_5*%
%TO.N,UART1-TX*%
X161750000Y-115000000D03*
%TO.P,CONN8,6,Pin_6*%
%TO.N,SWO*%
X159750000Y-115000000D03*
%TD*%
D17*
%TO.P,CONN5,1,In*%
%TO.N,RF*%
X171900000Y-97000000D03*
D18*
%TO.P,CONN5,2,Ext*%
%TO.N,GND*%
X174440000Y-99540000D03*
X174440000Y-94460000D03*
X169360000Y-99540000D03*
X169360000Y-94460000D03*
%TD*%
D19*
%TO.P,CONN4,1,-*%
%TO.N,GND*%
X115750000Y-115500000D03*
D20*
%TO.P,CONN4,2,+*%
%TO.N,Solar+*%
X115750000Y-112960000D03*
%TD*%
D21*
%TO.P,CONN1,S1,Shield*%
%TO.N,unconnected-(CONN1-Shield-PadS1)*%
X119580000Y-92680000D03*
%TO.P,CONN1,S2,Shield*%
%TO.N,unconnected-(CONN1-Shield-PadS2)*%
X119580000Y-101320000D03*
D22*
%TO.P,CONN1,S3,Shield*%
%TO.N,unconnected-(CONN1-Shield-PadS3)*%
X115580000Y-92680000D03*
%TO.P,CONN1,S4,Shield*%
%TO.N,unconnected-(CONN1-Shield-PadS4)*%
X115580000Y-101320000D03*
%TD*%
D23*
%TO.N,GND*%
X137000000Y-121000000D03*
X139500000Y-108000000D03*
X167380274Y-98674914D03*
X115000000Y-107000000D03*
X128250000Y-115500000D03*
X115000000Y-85000000D03*
X153750000Y-107000000D03*
X121000000Y-104750000D03*
X165750000Y-103000000D03*
X150000000Y-111000000D03*
X130300000Y-97525000D03*
X119000000Y-121000000D03*
X131750000Y-104500000D03*
X164369744Y-98575069D03*
X129000000Y-73000000D03*
X161000000Y-73000000D03*
X134000000Y-102750000D03*
X126000000Y-99500000D03*
X148750000Y-109750000D03*
X143500000Y-89750000D03*
X137000000Y-73000000D03*
X159000000Y-88500000D03*
X128750000Y-107750000D03*
X163266473Y-101344388D03*
X134000000Y-114000000D03*
X167067018Y-96258049D03*
X143000000Y-102750000D03*
X160500000Y-90000000D03*
X127000000Y-104750000D03*
X165862368Y-97082444D03*
X129200000Y-97525000D03*
X119000000Y-116500000D03*
X175000000Y-117000000D03*
X169000000Y-73000000D03*
X123500000Y-109750000D03*
X122000000Y-93800000D03*
X136000000Y-89750000D03*
X143250000Y-113850000D03*
X128000000Y-110500000D03*
X115000000Y-99750000D03*
X123250000Y-117750000D03*
X129000000Y-104750000D03*
X161500000Y-109500000D03*
X153000000Y-73000000D03*
X165887616Y-100167571D03*
X175000000Y-87000000D03*
X147000000Y-102750000D03*
X145250000Y-89750000D03*
X144000000Y-107000000D03*
X134500000Y-89750000D03*
X156250000Y-111250000D03*
X147000000Y-89750000D03*
X136250000Y-102750000D03*
X151500000Y-113250000D03*
X130300000Y-96475000D03*
X133500000Y-107000000D03*
X126000000Y-94500000D03*
X122000000Y-100200000D03*
X164682986Y-100991946D03*
X125500000Y-115500000D03*
X147000000Y-94000000D03*
X171000000Y-121000000D03*
X139500000Y-102750000D03*
X128750000Y-106000000D03*
X153750000Y-104500000D03*
X115000000Y-77000000D03*
X132000000Y-92000000D03*
X175000000Y-79000000D03*
X129000000Y-120500000D03*
X121000000Y-73000000D03*
X163000000Y-121000000D03*
X119000000Y-118000000D03*
X122000000Y-101500000D03*
X159000000Y-104250000D03*
X124250000Y-107000000D03*
X142000000Y-89750000D03*
X151000000Y-94000000D03*
X129200000Y-96475000D03*
X145000000Y-73000000D03*
X115000000Y-94250000D03*
X159250000Y-97750000D03*
X163175732Y-99148137D03*
%TO.N,I2C2-SDA*%
X161500000Y-107000000D03*
X143500000Y-99000000D03*
X139975000Y-99000000D03*
X146975000Y-99000000D03*
X136500000Y-99000000D03*
X154000000Y-99000000D03*
%TO.N,I2C2-SCL*%
X139325000Y-97750000D03*
X142825000Y-97750000D03*
X135825000Y-97751000D03*
X154000000Y-97750000D03*
X161500000Y-108000000D03*
X146325000Y-97750000D03*
X147750000Y-97750000D03*
%TO.N,SWDIO*%
X157750000Y-100500000D03*
%TO.N,SWCLK*%
X156500000Y-99000000D03*
%TO.N,SWO*%
X154000000Y-100500000D03*
%TO.N,CHG-OUT*%
X121750000Y-109000000D03*
X128250000Y-109000000D03*
%TO.N,+3.3V*%
X161200000Y-102250000D03*
X149250000Y-90500000D03*
%TO.N,+5V*%
X130750000Y-104500000D03*
X119000000Y-99375000D03*
X122000000Y-97000000D03*
X122000000Y-102750000D03*
X119000000Y-94600000D03*
%TO.N,VBUS*%
X132250000Y-100250000D03*
X148750000Y-101750000D03*
%TO.N,RST*%
X130750000Y-100250000D03*
X127000000Y-100250000D03*
%TO.N,UART1-TX*%
X155250000Y-100500000D03*
%TO.N,DISPLAY-BUSY*%
X157750000Y-94000000D03*
X153000000Y-113500000D03*
%TO.N,SPI2-SCK*%
X156500000Y-92750000D03*
X149250000Y-116000000D03*
%TO.N,DISPLAY-D{slash}C*%
X154000000Y-92750000D03*
X149750000Y-114500000D03*
%TO.N,SPI2-MOSI*%
X152750000Y-92750000D03*
X148000000Y-116000000D03*
%TO.N,VDD-Display-Charge*%
X157250000Y-111500000D03*
X159000000Y-92750000D03*
%TO.N,VDD-SENSORS-EEPROM*%
X136500000Y-108000000D03*
X141500000Y-94000000D03*
X143500000Y-94000000D03*
X159000000Y-113750000D03*
X134500000Y-94000000D03*
X138025000Y-94000000D03*
%TO.N,~{Enable-3.3V-Switched-1}*%
X135500000Y-104500000D03*
X149750000Y-103250000D03*
%TO.N,VDD-Display*%
X147000000Y-114500000D03*
X148750000Y-108250000D03*
%TO.N,~{MCU-RESET}*%
X118000000Y-104250000D03*
X117700000Y-92050000D03*
%TO.N,~{DISPLAY-RESET}*%
X152250000Y-115100000D03*
X157750000Y-92750000D03*
%TO.N,~{DISPLAY-CS}*%
X155250000Y-104250000D03*
X154470001Y-114500000D03*
%TO.N,~{WRITE-PROTECT}*%
X145675000Y-96500000D03*
X135175000Y-96502000D03*
X142175000Y-96500000D03*
X138674000Y-96500000D03*
X155250000Y-92750000D03*
%TO.N,D+CONN*%
X117750000Y-96500447D03*
X117750000Y-98500447D03*
%TO.N,D-CONN*%
X117750000Y-97500447D03*
X117750000Y-95500447D03*
%TO.N,VBAT*%
X132000000Y-89500000D03*
X132000000Y-88500000D03*
X132000000Y-87500000D03*
%TD*%
D24*
%TO.N,I2C2-SDA*%
X161500000Y-105000000D02*
X159500000Y-103000000D01*
X155250000Y-99000000D02*
X154000000Y-99000000D01*
X158000000Y-98250000D02*
X156000000Y-98250000D01*
D25*
X143500000Y-99000000D02*
X146975000Y-99000000D01*
X136500000Y-99000000D02*
X143500000Y-99000000D01*
D24*
X159500000Y-103000000D02*
X159500000Y-99750000D01*
X161500000Y-107000000D02*
X161500000Y-105000000D01*
X156000000Y-98250000D02*
X155250000Y-99000000D01*
X159500000Y-99750000D02*
X158000000Y-98250000D01*
%TO.N,I2C2-SCL*%
X160000000Y-99500000D02*
X158250000Y-97750000D01*
X158250000Y-97750000D02*
X154000000Y-97750000D01*
X160000000Y-102750000D02*
X160000000Y-99500000D01*
X161500000Y-108000000D02*
X162250000Y-107250000D01*
D25*
X139250000Y-97750000D02*
X135826000Y-97750000D01*
D24*
X162250000Y-107250000D02*
X162250000Y-105000000D01*
D25*
X135826000Y-97750000D02*
X135825000Y-97751000D01*
D24*
X147750000Y-97750000D02*
X146325000Y-97750000D01*
X139250000Y-97750000D02*
X146325000Y-97750000D01*
X162250000Y-105000000D02*
X160000000Y-102750000D01*
%TO.N,SWDIO*%
X163750000Y-114750000D02*
X163750000Y-115000000D01*
X157750000Y-100500000D02*
X157750000Y-108750000D01*
X157750000Y-108750000D02*
X163750000Y-114750000D01*
%TO.N,SWCLK*%
X158000000Y-99000000D02*
X159000000Y-100000000D01*
X156500000Y-99000000D02*
X158000000Y-99000000D01*
X160500000Y-109750000D02*
X165750000Y-115000000D01*
X159000000Y-103250000D02*
X160500000Y-104750000D01*
X160500000Y-104750000D02*
X160500000Y-109750000D01*
X159000000Y-100000000D02*
X159000000Y-103250000D01*
%TO.N,SWO*%
X159750000Y-112250000D02*
X159750000Y-115000000D01*
X154000000Y-100500000D02*
X156750000Y-103250000D01*
X156750000Y-109250000D02*
X159750000Y-112250000D01*
X156750000Y-103250000D02*
X156750000Y-109250000D01*
D25*
%TO.N,CHG-OUT*%
X121750000Y-109000000D02*
X128250000Y-109000000D01*
D26*
%TO.N,+3.3V*%
X159000000Y-90500000D02*
X161200000Y-92700000D01*
X149250000Y-90500000D02*
X159000000Y-90500000D01*
X161200000Y-92700000D02*
X161200000Y-102250000D01*
D27*
%TO.N,+5V*%
X119000000Y-99375000D02*
X122000000Y-97000000D01*
X122000000Y-97000000D02*
X119000000Y-94600000D01*
D26*
X122000000Y-102750000D02*
X129000000Y-102750000D01*
X129000000Y-102750000D02*
X130750000Y-104500000D01*
D25*
%TO.N,VBUS*%
X147250000Y-100250000D02*
X148750000Y-101750000D01*
X132250000Y-100250000D02*
X147250000Y-100250000D01*
D24*
%TO.N,RST*%
X127000000Y-100250000D02*
X130750000Y-100250000D01*
%TO.N,UART1-TX*%
X155250000Y-100500000D02*
X157250000Y-102500000D01*
X157250000Y-109000000D02*
X161750000Y-113500000D01*
X157250000Y-102500000D02*
X157250000Y-109000000D01*
X161750000Y-113500000D02*
X161750000Y-115000000D01*
%TO.N,DISPLAY-BUSY*%
X156750000Y-95000000D02*
X154750000Y-95000000D01*
X152750000Y-97000000D02*
X152750000Y-113250000D01*
X157750000Y-94000000D02*
X156750000Y-95000000D01*
X154750000Y-95000000D02*
X152750000Y-97000000D01*
X152750000Y-113250000D02*
X153000000Y-113500000D01*
%TO.N,SPI2-SCK*%
X150600000Y-114750000D02*
X150600000Y-112650000D01*
X154250000Y-94000000D02*
X155250000Y-94000000D01*
X151750000Y-111500000D02*
X151750000Y-96500000D01*
X155250000Y-94000000D02*
X156500000Y-92750000D01*
X151750000Y-96500000D02*
X154250000Y-94000000D01*
X149250000Y-116000000D02*
X149350000Y-116000000D01*
X150600000Y-112650000D02*
X151750000Y-111500000D01*
X149350000Y-116000000D02*
X150600000Y-114750000D01*
%TO.N,DISPLAY-D{slash}C*%
X151250000Y-96250000D02*
X154000000Y-93500000D01*
X151250000Y-111434314D02*
X151250000Y-96250000D01*
X149750000Y-112934314D02*
X151250000Y-111434314D01*
X149750000Y-114500000D02*
X149750000Y-112934314D01*
X154000000Y-93500000D02*
X154000000Y-92750000D01*
%TO.N,SPI2-MOSI*%
X150750000Y-96000000D02*
X152750000Y-94000000D01*
X152750000Y-94000000D02*
X152750000Y-92750000D01*
X150750000Y-111368628D02*
X150750000Y-96000000D01*
X148000000Y-116000000D02*
X148750000Y-115250000D01*
X148750000Y-113368628D02*
X150750000Y-111368628D01*
X148750000Y-115250000D02*
X148750000Y-113368628D01*
%TO.N,VDD-Display-Charge*%
X155000000Y-95500000D02*
X157500000Y-95500000D01*
X157250000Y-110500000D02*
X156250000Y-109500000D01*
X153250000Y-97250000D02*
X155000000Y-95500000D01*
X156250000Y-109500000D02*
X156250000Y-104250000D01*
X159000000Y-94000000D02*
X159000000Y-92750000D01*
X157500000Y-95500000D02*
X159000000Y-94000000D01*
X156250000Y-104250000D02*
X153250000Y-101250000D01*
X153250000Y-101250000D02*
X153250000Y-97250000D01*
X157250000Y-111500000D02*
X157250000Y-110500000D01*
D27*
%TO.N,VDD-SENSORS-EEPROM*%
X155500000Y-117250000D02*
X159000000Y-113750000D01*
X136500000Y-108000000D02*
X136500000Y-109000000D01*
X134500000Y-94000000D02*
X143500000Y-94000000D01*
X144750000Y-117250000D02*
X155500000Y-117250000D01*
X136500000Y-109000000D02*
X144750000Y-117250000D01*
D25*
%TO.N,~{Enable-3.3V-Switched-1}*%
X149750000Y-103250000D02*
X148500000Y-104500000D01*
X148500000Y-104500000D02*
X135500000Y-104500000D01*
D27*
%TO.N,VDD-Display*%
X147000000Y-110000000D02*
X147000000Y-114500000D01*
X148750000Y-108250000D02*
X147000000Y-110000000D01*
%TO.N,~{MCU-RESET}*%
X117800000Y-100550000D02*
X117800000Y-104050000D01*
X115750000Y-95500000D02*
X115750000Y-98500000D01*
X117800000Y-104050000D02*
X118000000Y-104250000D01*
X115750000Y-98500000D02*
X117800000Y-100550000D01*
X117700000Y-93550000D02*
X115750000Y-95500000D01*
X117700000Y-92050000D02*
X117700000Y-93550000D01*
D24*
%TO.N,~{DISPLAY-RESET}*%
X156000000Y-94500000D02*
X157750000Y-92750000D01*
X152250000Y-96750000D02*
X154500000Y-94500000D01*
X154500000Y-94500000D02*
X156000000Y-94500000D01*
X152250000Y-115100000D02*
X152250000Y-96750000D01*
%TO.N,~{DISPLAY-CS}*%
X154470001Y-114500000D02*
X155250000Y-113720001D01*
X155250000Y-113720001D02*
X155250000Y-104250000D01*
%TO.N,~{WRITE-PROTECT}*%
X152000000Y-94000000D02*
X149500000Y-96500000D01*
X152485050Y-92025000D02*
X152000000Y-92510050D01*
X155250000Y-92750000D02*
X154525000Y-92025000D01*
X149500000Y-96500000D02*
X135177000Y-96500000D01*
X152000000Y-92510050D02*
X152000000Y-94000000D01*
X154525000Y-92025000D02*
X152485050Y-92025000D01*
X135177000Y-96500000D02*
X135175000Y-96502000D01*
%TO.N,D+CONN*%
X118500000Y-97250447D02*
X118500000Y-97750447D01*
X117750000Y-96500447D02*
X118500000Y-97250447D01*
X118500000Y-97750447D02*
X117750000Y-98500447D01*
%TO.N,D-CONN*%
X117000000Y-96750447D02*
X117750000Y-97500447D01*
X117000000Y-96250447D02*
X117000000Y-96750447D01*
X117750000Y-95500447D02*
X117000000Y-96250447D01*
D28*
%TO.N,VBAT*%
X132000000Y-87500000D02*
X171100000Y-80500000D01*
D26*
X171100000Y-80500000D02*
X170995000Y-80500000D01*
D28*
X132000000Y-89500000D02*
X132000000Y-87500000D01*
%TD*%
%TA.AperFunction,Conductor*%
%TO.N,GND*%
G36*
X121505751Y-72301411D02*
G01*
X121517444Y-72303262D01*
X121550074Y-72308430D01*
X121572090Y-72315584D01*
X121606821Y-72333280D01*
X121625549Y-72346887D01*
X121653112Y-72374450D01*
X121666720Y-72393180D01*
X121684414Y-72427906D01*
X121691569Y-72449926D01*
X121698589Y-72494248D01*
X121699500Y-72505824D01*
X121699500Y-72578842D01*
X121709661Y-72629925D01*
X121730261Y-72733491D01*
X121730264Y-72733501D01*
X121790603Y-72879174D01*
X121790605Y-72879177D01*
X121790606Y-72879179D01*
X121878211Y-73010289D01*
X121989711Y-73121789D01*
X122120821Y-73209394D01*
X122120826Y-73209396D01*
X122120825Y-73209396D01*
X122266498Y-73269735D01*
X122266503Y-73269737D01*
X122421158Y-73300500D01*
X122421160Y-73300500D01*
X127578840Y-73300500D01*
X127578842Y-73300500D01*
X127733497Y-73269737D01*
X127879179Y-73209394D01*
X128010289Y-73121789D01*
X128121789Y-73010289D01*
X128209394Y-72879179D01*
X128269737Y-72733497D01*
X128300500Y-72578842D01*
X128300500Y-72505824D01*
X128301411Y-72494249D01*
X128308104Y-72451987D01*
X128308431Y-72449923D01*
X128315583Y-72427911D01*
X128333282Y-72393175D01*
X128346884Y-72374453D01*
X128374453Y-72346884D01*
X128393175Y-72333282D01*
X128427911Y-72315583D01*
X128449923Y-72308431D01*
X128485055Y-72302866D01*
X128494249Y-72301411D01*
X128505824Y-72300500D01*
X128547595Y-72300500D01*
X161452405Y-72300500D01*
X161494176Y-72300500D01*
X161505751Y-72301411D01*
X161517444Y-72303262D01*
X161550074Y-72308430D01*
X161572090Y-72315584D01*
X161606821Y-72333280D01*
X161625549Y-72346887D01*
X161653112Y-72374450D01*
X161666720Y-72393180D01*
X161684414Y-72427906D01*
X161691569Y-72449926D01*
X161698589Y-72494248D01*
X161699500Y-72505824D01*
X161699500Y-72578842D01*
X161709661Y-72629925D01*
X161730261Y-72733491D01*
X161730264Y-72733501D01*
X161790603Y-72879174D01*
X161790605Y-72879177D01*
X161790606Y-72879179D01*
X161878211Y-73010289D01*
X161989711Y-73121789D01*
X162120821Y-73209394D01*
X162120826Y-73209396D01*
X162120825Y-73209396D01*
X162266498Y-73269735D01*
X162266503Y-73269737D01*
X162421158Y-73300500D01*
X162421160Y-73300500D01*
X167578840Y-73300500D01*
X167578842Y-73300500D01*
X167733497Y-73269737D01*
X167879179Y-73209394D01*
X168010289Y-73121789D01*
X168121789Y-73010289D01*
X168209394Y-72879179D01*
X168269737Y-72733497D01*
X168300500Y-72578842D01*
X168300500Y-72505824D01*
X168301411Y-72494249D01*
X168308104Y-72451987D01*
X168308431Y-72449923D01*
X168315583Y-72427911D01*
X168333282Y-72393175D01*
X168346884Y-72374453D01*
X168374453Y-72346884D01*
X168393175Y-72333282D01*
X168427911Y-72315583D01*
X168449923Y-72308431D01*
X168485055Y-72302866D01*
X168494249Y-72301411D01*
X168505824Y-72300500D01*
X168547595Y-72300500D01*
X172952405Y-72300500D01*
X172997917Y-72300500D01*
X173002065Y-72300615D01*
X173298112Y-72317241D01*
X173306346Y-72318170D01*
X173596603Y-72367486D01*
X173604671Y-72369327D01*
X173887605Y-72450839D01*
X173895418Y-72453573D01*
X174021562Y-72505824D01*
X174167428Y-72566244D01*
X174174904Y-72569844D01*
X174432594Y-72712263D01*
X174439608Y-72716671D01*
X174668634Y-72879174D01*
X174679716Y-72887037D01*
X174686203Y-72892209D01*
X174905741Y-73088400D01*
X174911599Y-73094258D01*
X175068417Y-73269738D01*
X175107789Y-73313795D01*
X175112962Y-73320283D01*
X175283324Y-73560385D01*
X175287740Y-73567412D01*
X175430155Y-73825095D01*
X175433755Y-73832571D01*
X175546422Y-74104571D01*
X175549163Y-74112404D01*
X175630669Y-74395317D01*
X175632515Y-74403408D01*
X175681828Y-74693647D01*
X175682758Y-74701893D01*
X175699384Y-74997934D01*
X175699500Y-75002083D01*
X175699500Y-93315751D01*
X175677826Y-93368077D01*
X175625500Y-93389751D01*
X175573174Y-93368077D01*
X175495377Y-93290280D01*
X175356196Y-93207968D01*
X175200914Y-93162855D01*
X175200917Y-93162855D01*
X175164636Y-93160000D01*
X174565000Y-93160000D01*
X174565000Y-93872328D01*
X174518991Y-93860000D01*
X174361009Y-93860000D01*
X174315000Y-93872328D01*
X174315000Y-93160000D01*
X173715364Y-93160000D01*
X173679083Y-93162855D01*
X173523803Y-93207968D01*
X173384622Y-93290280D01*
X173270280Y-93404622D01*
X173187968Y-93543803D01*
X173142855Y-93699083D01*
X173140000Y-93735363D01*
X173140000Y-94335000D01*
X173852328Y-94335000D01*
X173840000Y-94381009D01*
X173840000Y-94538991D01*
X173852328Y-94585000D01*
X173140001Y-94585000D01*
X173140001Y-95184635D01*
X173142855Y-95220916D01*
X173187968Y-95376196D01*
X173270280Y-95515377D01*
X173384622Y-95629719D01*
X173523803Y-95712031D01*
X173679085Y-95757144D01*
X173679082Y-95757144D01*
X173715363Y-95759999D01*
X174315000Y-95759999D01*
X174315000Y-95047671D01*
X174361009Y-95060000D01*
X174518991Y-95060000D01*
X174565000Y-95047671D01*
X174565000Y-95759999D01*
X175164636Y-95759999D01*
X175200916Y-95757144D01*
X175356196Y-95712031D01*
X175495377Y-95629719D01*
X175573174Y-95551923D01*
X175625500Y-95530249D01*
X175677826Y-95551923D01*
X175699500Y-95604249D01*
X175699500Y-98395751D01*
X175677826Y-98448077D01*
X175625500Y-98469751D01*
X175573174Y-98448077D01*
X175495377Y-98370280D01*
X175356196Y-98287968D01*
X175200914Y-98242855D01*
X175200917Y-98242855D01*
X175164636Y-98240000D01*
X174565000Y-98240000D01*
X174565000Y-98952328D01*
X174518991Y-98940000D01*
X174361009Y-98940000D01*
X174315000Y-98952328D01*
X174315000Y-98240000D01*
X173715364Y-98240000D01*
X173679083Y-98242855D01*
X173523803Y-98287968D01*
X173384622Y-98370280D01*
X173270280Y-98484622D01*
X173187968Y-98623803D01*
X173142855Y-98779083D01*
X173140000Y-98815363D01*
X173140000Y-99415000D01*
X173852328Y-99415000D01*
X173840000Y-99461009D01*
X173840000Y-99618991D01*
X173852328Y-99665000D01*
X173140001Y-99665000D01*
X173140001Y-100264635D01*
X173142855Y-100300916D01*
X173187968Y-100456196D01*
X173270280Y-100595377D01*
X173384622Y-100709719D01*
X173523803Y-100792031D01*
X173679085Y-100837144D01*
X173679082Y-100837144D01*
X173715363Y-100839999D01*
X174315000Y-100839999D01*
X174315000Y-100127671D01*
X174361009Y-100140000D01*
X174518991Y-100140000D01*
X174565000Y-100127671D01*
X174565000Y-100839999D01*
X175164636Y-100839999D01*
X175200916Y-100837144D01*
X175356196Y-100792031D01*
X175495377Y-100709719D01*
X175573174Y-100631923D01*
X175625500Y-100610249D01*
X175677826Y-100631923D01*
X175699500Y-100684249D01*
X175699500Y-101497090D01*
X175699272Y-101502896D01*
X175685188Y-101681840D01*
X175683371Y-101693309D01*
X175642152Y-101865000D01*
X175638564Y-101876044D01*
X175570989Y-102039183D01*
X175565717Y-102049529D01*
X175473459Y-102200081D01*
X175466634Y-102209475D01*
X175351957Y-102343746D01*
X175343746Y-102351957D01*
X175209475Y-102466634D01*
X175200081Y-102473459D01*
X175049529Y-102565717D01*
X175039183Y-102570989D01*
X174876044Y-102638564D01*
X174865000Y-102642152D01*
X174693309Y-102683371D01*
X174681840Y-102685188D01*
X174502897Y-102699272D01*
X174497091Y-102699500D01*
X167597595Y-102699500D01*
X167550000Y-102699500D01*
X167412326Y-102699500D01*
X167348810Y-102707862D01*
X167139335Y-102735439D01*
X166873368Y-102806704D01*
X166618982Y-102912075D01*
X166618979Y-102912076D01*
X166380524Y-103049748D01*
X166380518Y-103049752D01*
X166162077Y-103217366D01*
X165967366Y-103412077D01*
X165799752Y-103630518D01*
X165799748Y-103630524D01*
X165662076Y-103868979D01*
X165662075Y-103868982D01*
X165556704Y-104123368D01*
X165485439Y-104389335D01*
X165454231Y-104626387D01*
X165449500Y-104662326D01*
X165449500Y-104760438D01*
X165449500Y-112152405D01*
X165449500Y-112200000D01*
X165449500Y-112337674D01*
X165458248Y-112404123D01*
X165485439Y-112610664D01*
X165556704Y-112876631D01*
X165662075Y-113131017D01*
X165662076Y-113131020D01*
X165799748Y-113369475D01*
X165799752Y-113369481D01*
X165967366Y-113587922D01*
X166162077Y-113782633D01*
X166380518Y-113950247D01*
X166380524Y-113950251D01*
X166499838Y-114019137D01*
X166618979Y-114087923D01*
X166873368Y-114193295D01*
X167013567Y-114230861D01*
X167099031Y-114253761D01*
X167143965Y-114288240D01*
X167151358Y-114344392D01*
X167134872Y-114374756D01*
X167037805Y-114482558D01*
X167037802Y-114482563D01*
X166945784Y-114641942D01*
X166888916Y-114816965D01*
X166888915Y-114816969D01*
X166888915Y-114816971D01*
X166869678Y-115000000D01*
X166885905Y-115154394D01*
X166888916Y-115183034D01*
X166945784Y-115358057D01*
X167037802Y-115517436D01*
X167037805Y-115517441D01*
X167160952Y-115654209D01*
X167309832Y-115762377D01*
X167309839Y-115762381D01*
X167477966Y-115837236D01*
X167657981Y-115875500D01*
X167657982Y-115875500D01*
X167842018Y-115875500D01*
X167842019Y-115875500D01*
X168022034Y-115837236D01*
X168190161Y-115762381D01*
X168211618Y-115746792D01*
X168339047Y-115654209D01*
X168339046Y-115654209D01*
X168339050Y-115654207D01*
X168462195Y-115517440D01*
X168554214Y-115358059D01*
X168567179Y-115318159D01*
X168611083Y-115183034D01*
X168611085Y-115183029D01*
X168630322Y-115000000D01*
X168611085Y-114816971D01*
X168598300Y-114777623D01*
X168554215Y-114641942D01*
X168462197Y-114482563D01*
X168462194Y-114482558D01*
X168409482Y-114424016D01*
X168390576Y-114370627D01*
X168414959Y-114319507D01*
X168464475Y-114300500D01*
X168840004Y-114300500D01*
X168892330Y-114322174D01*
X168914004Y-114374500D01*
X168909852Y-114398940D01*
X168877851Y-114490392D01*
X168877851Y-114490393D01*
X168875000Y-114520801D01*
X168875000Y-114875000D01*
X169369383Y-114875000D01*
X169350000Y-114947339D01*
X169350000Y-115052661D01*
X169369383Y-115125000D01*
X168875001Y-115125000D01*
X168875001Y-115479205D01*
X168877850Y-115509602D01*
X168877852Y-115509611D01*
X168922652Y-115637643D01*
X169003207Y-115746791D01*
X169003208Y-115746792D01*
X169112356Y-115827347D01*
X169112355Y-115827347D01*
X169240385Y-115872146D01*
X169240393Y-115872148D01*
X169270802Y-115874999D01*
X169625000Y-115874999D01*
X169625000Y-115380617D01*
X169697339Y-115400000D01*
X169802661Y-115400000D01*
X169875000Y-115380617D01*
X169875000Y-115874999D01*
X170229194Y-115874999D01*
X170229205Y-115874998D01*
X170259602Y-115872149D01*
X170259611Y-115872147D01*
X170387643Y-115827347D01*
X170496791Y-115746792D01*
X170496792Y-115746791D01*
X170577347Y-115637643D01*
X170622146Y-115509614D01*
X170622148Y-115509606D01*
X170624999Y-115479198D01*
X170625000Y-115479197D01*
X170625000Y-115125000D01*
X170130617Y-115125000D01*
X170150000Y-115052661D01*
X170150000Y-114947339D01*
X170130617Y-114875000D01*
X170624999Y-114875000D01*
X170624999Y-114520806D01*
X170624998Y-114520794D01*
X170622149Y-114490397D01*
X170622149Y-114490395D01*
X170590148Y-114398940D01*
X170593324Y-114342392D01*
X170635556Y-114304652D01*
X170659996Y-114300500D01*
X174452405Y-114300500D01*
X174497091Y-114300500D01*
X174502896Y-114300727D01*
X174681843Y-114314811D01*
X174693305Y-114316627D01*
X174865008Y-114357849D01*
X174876036Y-114361432D01*
X174966588Y-114398940D01*
X175039183Y-114429010D01*
X175049529Y-114434282D01*
X175190715Y-114520801D01*
X175200081Y-114526540D01*
X175209475Y-114533365D01*
X175338672Y-114643709D01*
X175343746Y-114648042D01*
X175351957Y-114656253D01*
X175466634Y-114790524D01*
X175473459Y-114799918D01*
X175565717Y-114950470D01*
X175570989Y-114960816D01*
X175638564Y-115123955D01*
X175642152Y-115134999D01*
X175683371Y-115306690D01*
X175685188Y-115318159D01*
X175699272Y-115497103D01*
X175699500Y-115502909D01*
X175699500Y-118997916D01*
X175699384Y-119002065D01*
X175682758Y-119298106D01*
X175681828Y-119306352D01*
X175632515Y-119596591D01*
X175630669Y-119604682D01*
X175549163Y-119887595D01*
X175546422Y-119895428D01*
X175433755Y-120167428D01*
X175430155Y-120174904D01*
X175287740Y-120432587D01*
X175283324Y-120439614D01*
X175112962Y-120679716D01*
X175107789Y-120686204D01*
X174911604Y-120905736D01*
X174905736Y-120911604D01*
X174686204Y-121107789D01*
X174679716Y-121112962D01*
X174439614Y-121283324D01*
X174432587Y-121287740D01*
X174174904Y-121430155D01*
X174167428Y-121433755D01*
X173895428Y-121546422D01*
X173887595Y-121549163D01*
X173604682Y-121630669D01*
X173596591Y-121632515D01*
X173306352Y-121681828D01*
X173298106Y-121682758D01*
X173002066Y-121699384D01*
X172997917Y-121699500D01*
X159502909Y-121699500D01*
X159497103Y-121699272D01*
X159318159Y-121685188D01*
X159306690Y-121683371D01*
X159134999Y-121642152D01*
X159123955Y-121638564D01*
X158960816Y-121570989D01*
X158950470Y-121565717D01*
X158799918Y-121473459D01*
X158790524Y-121466634D01*
X158656253Y-121351957D01*
X158648042Y-121343746D01*
X158642287Y-121337008D01*
X158533365Y-121209475D01*
X158526540Y-121200081D01*
X158434282Y-121049529D01*
X158429010Y-121039183D01*
X158373734Y-120905736D01*
X158361432Y-120876036D01*
X158357849Y-120865008D01*
X158316627Y-120693305D01*
X158314811Y-120681840D01*
X158300728Y-120502896D01*
X158300500Y-120497090D01*
X158300500Y-120381990D01*
X158269694Y-120147992D01*
X158269693Y-120147990D01*
X158269693Y-120147986D01*
X158208606Y-119920007D01*
X158118284Y-119701951D01*
X158000273Y-119497550D01*
X157970996Y-119459396D01*
X157856591Y-119310300D01*
X157689699Y-119143408D01*
X157502452Y-118999728D01*
X157502446Y-118999724D01*
X157298048Y-118881715D01*
X157298045Y-118881714D01*
X157079991Y-118791393D01*
X156905879Y-118744740D01*
X156852014Y-118730307D01*
X156852012Y-118730306D01*
X156852006Y-118730305D01*
X156852007Y-118730305D01*
X156663929Y-118705545D01*
X156618011Y-118699500D01*
X156539562Y-118699500D01*
X141047595Y-118699500D01*
X141000000Y-118699500D01*
X140881989Y-118699500D01*
X140840173Y-118705005D01*
X140647992Y-118730305D01*
X140420008Y-118791393D01*
X140201954Y-118881714D01*
X140201951Y-118881715D01*
X139997553Y-118999724D01*
X139997547Y-118999728D01*
X139810300Y-119143408D01*
X139643408Y-119310300D01*
X139499728Y-119497547D01*
X139499724Y-119497553D01*
X139381715Y-119701951D01*
X139381714Y-119701954D01*
X139291393Y-119920008D01*
X139230305Y-120147992D01*
X139199500Y-120381990D01*
X139199500Y-120497090D01*
X139199272Y-120502896D01*
X139185188Y-120681840D01*
X139183371Y-120693309D01*
X139142152Y-120865000D01*
X139138564Y-120876044D01*
X139070989Y-121039183D01*
X139065717Y-121049529D01*
X138973459Y-121200081D01*
X138966634Y-121209475D01*
X138851957Y-121343746D01*
X138843746Y-121351957D01*
X138709475Y-121466634D01*
X138700081Y-121473459D01*
X138549529Y-121565717D01*
X138539183Y-121570989D01*
X138376044Y-121638564D01*
X138365000Y-121642152D01*
X138193309Y-121683371D01*
X138181840Y-121685188D01*
X138002897Y-121699272D01*
X137997091Y-121699500D01*
X117002083Y-121699500D01*
X116997934Y-121699384D01*
X116701893Y-121682758D01*
X116693647Y-121681828D01*
X116403408Y-121632515D01*
X116395317Y-121630669D01*
X116112404Y-121549163D01*
X116104571Y-121546422D01*
X115832571Y-121433755D01*
X115825095Y-121430155D01*
X115567412Y-121287740D01*
X115560385Y-121283324D01*
X115320283Y-121112962D01*
X115313795Y-121107789D01*
X115237025Y-121039183D01*
X115094258Y-120911599D01*
X115088400Y-120905741D01*
X114892209Y-120686203D01*
X114887037Y-120679716D01*
X114759842Y-120500452D01*
X114716671Y-120439608D01*
X114712263Y-120432594D01*
X114569844Y-120174904D01*
X114566244Y-120167428D01*
X114525691Y-120069524D01*
X114453573Y-119895418D01*
X114450839Y-119887605D01*
X114369327Y-119604671D01*
X114367486Y-119596603D01*
X114318170Y-119306346D01*
X114317241Y-119298106D01*
X114316944Y-119292826D01*
X114300616Y-119002065D01*
X114300500Y-118997916D01*
X114300500Y-118901582D01*
X115749500Y-118901582D01*
X115749500Y-119098417D01*
X115780290Y-119292823D01*
X115780293Y-119292836D01*
X115841113Y-119480019D01*
X115928651Y-119651825D01*
X115930476Y-119655405D01*
X116046172Y-119814646D01*
X116185354Y-119953828D01*
X116344595Y-120069524D01*
X116519975Y-120158884D01*
X116519977Y-120158884D01*
X116519980Y-120158886D01*
X116707163Y-120219706D01*
X116707169Y-120219707D01*
X116707174Y-120219709D01*
X116836780Y-120240236D01*
X116901582Y-120250500D01*
X116901583Y-120250500D01*
X117098418Y-120250500D01*
X117147019Y-120242802D01*
X117292826Y-120219709D01*
X117292833Y-120219706D01*
X117292836Y-120219706D01*
X117480019Y-120158886D01*
X117480019Y-120158885D01*
X117480025Y-120158884D01*
X117655405Y-120069524D01*
X117814646Y-119953828D01*
X117953828Y-119814646D01*
X118069524Y-119655405D01*
X118158884Y-119480025D01*
X118165587Y-119459396D01*
X118219706Y-119292836D01*
X118219706Y-119292833D01*
X118219709Y-119292826D01*
X118250500Y-119098417D01*
X118250500Y-118901583D01*
X118247353Y-118881716D01*
X118223373Y-118730307D01*
X118219709Y-118707174D01*
X118219707Y-118707169D01*
X118219706Y-118707163D01*
X118208007Y-118671159D01*
X162049500Y-118671159D01*
X162049500Y-118828840D01*
X162080261Y-118983491D01*
X162080264Y-118983501D01*
X162140603Y-119129174D01*
X162140605Y-119129177D01*
X162140606Y-119129179D01*
X162228211Y-119260289D01*
X162339711Y-119371789D01*
X162470821Y-119459394D01*
X162470826Y-119459396D01*
X162470825Y-119459396D01*
X162616498Y-119519735D01*
X162616503Y-119519737D01*
X162771158Y-119550500D01*
X162771160Y-119550500D01*
X162928840Y-119550500D01*
X162928842Y-119550500D01*
X163083497Y-119519737D01*
X163229179Y-119459394D01*
X163360289Y-119371789D01*
X163471789Y-119260289D01*
X163559394Y-119129179D01*
X163619737Y-118983497D01*
X163650500Y-118828842D01*
X163650500Y-118671159D01*
X165849500Y-118671159D01*
X165849500Y-118828840D01*
X165880261Y-118983491D01*
X165880264Y-118983501D01*
X165940603Y-119129174D01*
X165940605Y-119129177D01*
X165940606Y-119129179D01*
X166028211Y-119260289D01*
X166139711Y-119371789D01*
X166270821Y-119459394D01*
X166270826Y-119459396D01*
X166270825Y-119459396D01*
X166416498Y-119519735D01*
X166416503Y-119519737D01*
X166571158Y-119550500D01*
X166571160Y-119550500D01*
X166728840Y-119550500D01*
X166728842Y-119550500D01*
X166883497Y-119519737D01*
X167029179Y-119459394D01*
X167160289Y-119371789D01*
X167271789Y-119260289D01*
X167359394Y-119129179D01*
X167419737Y-118983497D01*
X167436031Y-118901582D01*
X171749500Y-118901582D01*
X171749500Y-119098417D01*
X171780290Y-119292823D01*
X171780293Y-119292836D01*
X171841113Y-119480019D01*
X171928651Y-119651825D01*
X171930476Y-119655405D01*
X172046172Y-119814646D01*
X172185354Y-119953828D01*
X172344595Y-120069524D01*
X172519975Y-120158884D01*
X172519977Y-120158884D01*
X172519980Y-120158886D01*
X172707163Y-120219706D01*
X172707169Y-120219707D01*
X172707174Y-120219709D01*
X172836780Y-120240236D01*
X172901582Y-120250500D01*
X172901583Y-120250500D01*
X173098418Y-120250500D01*
X173147019Y-120242802D01*
X173292826Y-120219709D01*
X173292833Y-120219706D01*
X173292836Y-120219706D01*
X173480019Y-120158886D01*
X173480019Y-120158885D01*
X173480025Y-120158884D01*
X173655405Y-120069524D01*
X173814646Y-119953828D01*
X173953828Y-119814646D01*
X174069524Y-119655405D01*
X174158884Y-119480025D01*
X174165587Y-119459396D01*
X174219706Y-119292836D01*
X174219706Y-119292833D01*
X174219709Y-119292826D01*
X174250500Y-119098417D01*
X174250500Y-118901583D01*
X174247353Y-118881716D01*
X174223373Y-118730307D01*
X174219709Y-118707174D01*
X174219707Y-118707169D01*
X174219706Y-118707163D01*
X174158886Y-118519980D01*
X174158884Y-118519977D01*
X174158884Y-118519975D01*
X174069524Y-118344595D01*
X173953828Y-118185354D01*
X173814646Y-118046172D01*
X173814643Y-118046169D01*
X173814641Y-118046168D01*
X173655404Y-117930475D01*
X173480019Y-117841113D01*
X173292836Y-117780293D01*
X173292823Y-117780290D01*
X173098418Y-117749500D01*
X173098417Y-117749500D01*
X172901583Y-117749500D01*
X172901582Y-117749500D01*
X172707176Y-117780290D01*
X172707163Y-117780293D01*
X172519980Y-117841113D01*
X172344595Y-117930475D01*
X172185358Y-118046168D01*
X172046168Y-118185358D01*
X171930475Y-118344595D01*
X171841113Y-118519980D01*
X171780293Y-118707163D01*
X171780290Y-118707176D01*
X171749500Y-118901582D01*
X167436031Y-118901582D01*
X167450500Y-118828842D01*
X167450500Y-118671158D01*
X167419737Y-118516503D01*
X167359394Y-118370821D01*
X167271789Y-118239711D01*
X167160289Y-118128211D01*
X167029179Y-118040606D01*
X167029175Y-118040604D01*
X167029173Y-118040603D01*
X167029174Y-118040603D01*
X166883501Y-117980264D01*
X166883491Y-117980261D01*
X166779925Y-117959661D01*
X166728842Y-117949500D01*
X166571158Y-117949500D01*
X166527315Y-117958220D01*
X166416508Y-117980261D01*
X166416498Y-117980264D01*
X166270825Y-118040603D01*
X166139711Y-118128210D01*
X166139710Y-118128212D01*
X166028212Y-118239710D01*
X166028210Y-118239711D01*
X165940603Y-118370825D01*
X165880264Y-118516498D01*
X165880261Y-118516508D01*
X165849500Y-118671159D01*
X163650500Y-118671159D01*
X163650500Y-118671158D01*
X163619737Y-118516503D01*
X163559394Y-118370821D01*
X163471789Y-118239711D01*
X163360289Y-118128211D01*
X163229179Y-118040606D01*
X163229175Y-118040604D01*
X163229173Y-118040603D01*
X163229174Y-118040603D01*
X163083501Y-117980264D01*
X163083491Y-117980261D01*
X162979925Y-117959661D01*
X162928842Y-117949500D01*
X162771158Y-117949500D01*
X162727315Y-117958220D01*
X162616508Y-117980261D01*
X162616498Y-117980264D01*
X162470825Y-118040603D01*
X162339711Y-118128210D01*
X162339710Y-118128212D01*
X162228212Y-118239710D01*
X162228210Y-118239711D01*
X162140603Y-118370825D01*
X162080264Y-118516498D01*
X162080261Y-118516508D01*
X162049500Y-118671159D01*
X118208007Y-118671159D01*
X118158886Y-118519980D01*
X118158884Y-118519977D01*
X118158884Y-118519975D01*
X118069524Y-118344595D01*
X117953828Y-118185354D01*
X117814646Y-118046172D01*
X117814643Y-118046169D01*
X117814641Y-118046168D01*
X117655404Y-117930475D01*
X117480019Y-117841113D01*
X117292836Y-117780293D01*
X117292823Y-117780290D01*
X117098418Y-117749500D01*
X117098417Y-117749500D01*
X116901583Y-117749500D01*
X116901582Y-117749500D01*
X116707176Y-117780290D01*
X116707163Y-117780293D01*
X116519980Y-117841113D01*
X116344595Y-117930475D01*
X116185358Y-118046168D01*
X116046168Y-118185358D01*
X115930475Y-118344595D01*
X115841113Y-118519980D01*
X115780293Y-118707163D01*
X115780290Y-118707176D01*
X115749500Y-118901582D01*
X114300500Y-118901582D01*
X114300500Y-114947721D01*
X114700000Y-114947721D01*
X114700000Y-115375000D01*
X115265856Y-115375000D01*
X115250000Y-115434174D01*
X115250000Y-115565826D01*
X115265856Y-115625000D01*
X114700001Y-115625000D01*
X114700001Y-116052279D01*
X114710419Y-116139048D01*
X114710420Y-116139052D01*
X114764877Y-116277147D01*
X114854571Y-116395427D01*
X114854572Y-116395428D01*
X114972852Y-116485122D01*
X115110944Y-116539578D01*
X115197721Y-116549999D01*
X115625000Y-116549999D01*
X115625000Y-115984144D01*
X115684174Y-116000000D01*
X115815826Y-116000000D01*
X115875000Y-115984144D01*
X115875000Y-116549999D01*
X116302278Y-116549999D01*
X116302279Y-116549998D01*
X116389048Y-116539580D01*
X116389052Y-116539579D01*
X116527147Y-116485122D01*
X116645427Y-116395428D01*
X116645428Y-116395427D01*
X116735122Y-116277147D01*
X116789578Y-116139055D01*
X116800000Y-116052278D01*
X116800000Y-115625000D01*
X116234144Y-115625000D01*
X116250000Y-115565826D01*
X116250000Y-115434174D01*
X116234144Y-115375000D01*
X116799999Y-115375000D01*
X116799999Y-114947722D01*
X116799998Y-114947720D01*
X116789580Y-114860951D01*
X116789579Y-114860947D01*
X116735122Y-114722852D01*
X116645428Y-114604572D01*
X116645427Y-114604571D01*
X116527147Y-114514877D01*
X116389055Y-114460421D01*
X116302278Y-114450000D01*
X115875000Y-114450000D01*
X115875000Y-115015855D01*
X115815826Y-115000000D01*
X115684174Y-115000000D01*
X115625000Y-115015855D01*
X115625000Y-114450000D01*
X115197721Y-114450000D01*
X115197719Y-114450001D01*
X115110951Y-114460419D01*
X115110947Y-114460420D01*
X114972852Y-114514877D01*
X114854572Y-114604571D01*
X114854571Y-114604572D01*
X114764877Y-114722852D01*
X114710421Y-114860944D01*
X114700000Y-114947721D01*
X114300500Y-114947721D01*
X114300500Y-112960000D01*
X114694417Y-112960000D01*
X114714700Y-113165935D01*
X114723441Y-113194750D01*
X114772443Y-113356291D01*
X114774769Y-113363956D01*
X114872315Y-113546450D01*
X114918557Y-113602797D01*
X115003590Y-113706410D01*
X115163550Y-113837685D01*
X115346046Y-113935232D01*
X115544066Y-113995300D01*
X115750000Y-114015583D01*
X115955934Y-113995300D01*
X116153954Y-113935232D01*
X116336450Y-113837685D01*
X116496410Y-113706410D01*
X116627685Y-113546450D01*
X116725232Y-113363954D01*
X116785300Y-113165934D01*
X116805583Y-112960000D01*
X116785300Y-112754066D01*
X116725232Y-112556046D01*
X116627685Y-112373550D01*
X116496410Y-112213590D01*
X116479850Y-112200000D01*
X116336450Y-112082315D01*
X116153956Y-111984769D01*
X116153955Y-111984768D01*
X116153954Y-111984768D01*
X116042158Y-111950855D01*
X115955935Y-111924700D01*
X115750000Y-111904417D01*
X115544064Y-111924700D01*
X115346043Y-111984769D01*
X115163549Y-112082315D01*
X115003590Y-112213589D01*
X115003589Y-112213590D01*
X114872315Y-112373549D01*
X114774769Y-112556043D01*
X114714700Y-112754064D01*
X114694417Y-112960000D01*
X114300500Y-112960000D01*
X114300500Y-109000000D01*
X121194750Y-109000000D01*
X121213669Y-109143708D01*
X121243287Y-109215212D01*
X121269139Y-109277625D01*
X121357379Y-109392621D01*
X121472375Y-109480861D01*
X121606291Y-109536330D01*
X121750000Y-109555250D01*
X121893709Y-109536330D01*
X122027625Y-109480861D01*
X122142621Y-109392621D01*
X122171910Y-109354449D01*
X122220958Y-109326133D01*
X122230617Y-109325500D01*
X127769383Y-109325500D01*
X127821709Y-109347174D01*
X127828082Y-109354441D01*
X127857379Y-109392621D01*
X127972375Y-109480861D01*
X128106291Y-109536330D01*
X128250000Y-109555250D01*
X128393709Y-109536330D01*
X128527625Y-109480861D01*
X128642621Y-109392621D01*
X128730861Y-109277625D01*
X128786330Y-109143709D01*
X128805250Y-109000000D01*
X128786330Y-108856291D01*
X128730861Y-108722375D01*
X128642621Y-108607379D01*
X128527625Y-108519139D01*
X128527623Y-108519138D01*
X128393708Y-108463669D01*
X128250000Y-108444750D01*
X128106291Y-108463669D01*
X127972376Y-108519138D01*
X127925316Y-108555249D01*
X127857379Y-108607379D01*
X127828089Y-108645550D01*
X127779042Y-108673867D01*
X127769383Y-108674500D01*
X122230617Y-108674500D01*
X122178291Y-108652826D01*
X122171917Y-108645558D01*
X122142621Y-108607379D01*
X122027625Y-108519139D01*
X122027623Y-108519138D01*
X121893708Y-108463669D01*
X121750000Y-108444750D01*
X121606291Y-108463669D01*
X121472376Y-108519138D01*
X121357379Y-108607379D01*
X121269138Y-108722376D01*
X121213669Y-108856291D01*
X121194750Y-109000000D01*
X114300500Y-109000000D01*
X114300500Y-101807867D01*
X114322174Y-101755541D01*
X114374500Y-101733867D01*
X114426826Y-101755541D01*
X114433556Y-101763743D01*
X114433576Y-101763727D01*
X114435883Y-101766538D01*
X114435886Y-101766542D01*
X114533458Y-101864114D01*
X114648189Y-101940775D01*
X114648190Y-101940775D01*
X114648191Y-101940776D01*
X114745938Y-101981264D01*
X114775672Y-101993580D01*
X114911007Y-102020500D01*
X114911009Y-102020500D01*
X116248991Y-102020500D01*
X116248993Y-102020500D01*
X116384328Y-101993580D01*
X116511811Y-101940775D01*
X116626542Y-101864114D01*
X116724114Y-101766542D01*
X116800775Y-101651811D01*
X116853580Y-101524328D01*
X116880500Y-101388993D01*
X116880500Y-101251007D01*
X116853580Y-101115672D01*
X116845281Y-101095636D01*
X116800776Y-100988191D01*
X116795878Y-100980861D01*
X116724114Y-100873458D01*
X116626542Y-100775886D01*
X116618047Y-100770210D01*
X116511808Y-100699223D01*
X116384332Y-100646421D01*
X116384322Y-100646418D01*
X116293694Y-100628391D01*
X116248993Y-100619500D01*
X114911007Y-100619500D01*
X114872642Y-100627131D01*
X114775677Y-100646418D01*
X114775667Y-100646421D01*
X114648191Y-100699223D01*
X114533461Y-100775883D01*
X114435884Y-100873460D01*
X114433576Y-100876273D01*
X114432643Y-100875507D01*
X114388935Y-100904710D01*
X114333386Y-100893660D01*
X114301922Y-100846567D01*
X114300500Y-100832132D01*
X114300500Y-95453853D01*
X115399500Y-95453853D01*
X115399500Y-98546146D01*
X115420830Y-98625747D01*
X115420831Y-98625752D01*
X115423384Y-98635283D01*
X115423385Y-98635285D01*
X115423386Y-98635288D01*
X115450069Y-98681504D01*
X115469530Y-98715212D01*
X117427826Y-100673508D01*
X117449500Y-100725834D01*
X117449500Y-104096144D01*
X117453356Y-104110535D01*
X117456087Y-104120727D01*
X117457975Y-104149537D01*
X117444750Y-104249999D01*
X117463669Y-104393708D01*
X117513011Y-104512831D01*
X117519139Y-104527625D01*
X117607379Y-104642621D01*
X117722375Y-104730861D01*
X117856291Y-104786330D01*
X118000000Y-104805250D01*
X118143709Y-104786330D01*
X118277625Y-104730861D01*
X118392621Y-104642621D01*
X118480861Y-104527625D01*
X118536330Y-104393709D01*
X118555250Y-104250000D01*
X118536330Y-104106291D01*
X118480861Y-103972375D01*
X118392621Y-103857379D01*
X118277625Y-103769139D01*
X118277623Y-103769138D01*
X118196181Y-103735403D01*
X118156133Y-103695354D01*
X118150500Y-103667036D01*
X118150500Y-102750000D01*
X121444750Y-102750000D01*
X121463669Y-102893708D01*
X121519065Y-103027446D01*
X121519139Y-103027625D01*
X121607379Y-103142621D01*
X121722375Y-103230861D01*
X121856291Y-103286330D01*
X122000000Y-103305250D01*
X122143709Y-103286330D01*
X122277625Y-103230861D01*
X122362425Y-103165791D01*
X122407472Y-103150500D01*
X128803455Y-103150500D01*
X128855781Y-103172174D01*
X130178676Y-104495068D01*
X130199717Y-104537734D01*
X130213669Y-104643708D01*
X130247536Y-104725471D01*
X130269139Y-104777625D01*
X130357379Y-104892621D01*
X130472375Y-104980861D01*
X130606291Y-105036330D01*
X130750000Y-105055250D01*
X130893709Y-105036330D01*
X131027625Y-104980861D01*
X131142621Y-104892621D01*
X131230861Y-104777625D01*
X131286330Y-104643709D01*
X131305250Y-104500000D01*
X134944750Y-104500000D01*
X134963669Y-104643708D01*
X134997536Y-104725471D01*
X135019139Y-104777625D01*
X135107379Y-104892621D01*
X135222375Y-104980861D01*
X135356291Y-105036330D01*
X135500000Y-105055250D01*
X135643709Y-105036330D01*
X135682629Y-105020208D01*
X135700567Y-105015308D01*
X135712314Y-105013645D01*
X136237349Y-104829663D01*
X136261821Y-104825500D01*
X148542851Y-104825500D01*
X148542853Y-104825500D01*
X148625639Y-104803318D01*
X148699862Y-104760465D01*
X149441480Y-104018845D01*
X149461722Y-104004490D01*
X149963072Y-103763331D01*
X149974127Y-103755267D01*
X149989419Y-103746685D01*
X150027625Y-103730861D01*
X150142621Y-103642621D01*
X150230861Y-103527625D01*
X150286330Y-103393709D01*
X150302133Y-103273673D01*
X150314726Y-103251861D01*
X150302133Y-103226325D01*
X150286330Y-103106291D01*
X150253672Y-103027446D01*
X150230861Y-102972375D01*
X150142621Y-102857379D01*
X150027625Y-102769139D01*
X149981419Y-102750000D01*
X149893708Y-102713669D01*
X149750000Y-102694750D01*
X149606291Y-102713669D01*
X149472376Y-102769138D01*
X149357379Y-102857379D01*
X149269139Y-102972374D01*
X149253019Y-103011291D01*
X149243796Y-103027446D01*
X149236673Y-103036918D01*
X149236669Y-103036925D01*
X148995509Y-103538274D01*
X148981149Y-103558522D01*
X148386847Y-104152826D01*
X148334521Y-104174500D01*
X136261822Y-104174500D01*
X136237350Y-104170336D01*
X135712319Y-103986355D01*
X135712311Y-103986353D01*
X135698781Y-103984235D01*
X135681913Y-103979494D01*
X135664725Y-103972375D01*
X135643709Y-103963670D01*
X135643708Y-103963669D01*
X135643706Y-103963669D01*
X135500000Y-103944750D01*
X135356291Y-103963669D01*
X135222376Y-104019138D01*
X135107379Y-104107379D01*
X135019138Y-104222376D01*
X134963669Y-104356291D01*
X134944750Y-104500000D01*
X131305250Y-104500000D01*
X131286330Y-104356291D01*
X131230861Y-104222375D01*
X131142621Y-104107379D01*
X131027625Y-104019139D01*
X131027623Y-104019138D01*
X130893708Y-103963669D01*
X130787734Y-103949717D01*
X130745068Y-103928676D01*
X130024998Y-103208606D01*
X129245913Y-102429520D01*
X129245910Y-102429518D01*
X129245909Y-102429517D01*
X129154592Y-102376795D01*
X129154588Y-102376793D01*
X129082132Y-102357379D01*
X129052727Y-102349500D01*
X129052726Y-102349500D01*
X122407472Y-102349500D01*
X122362425Y-102334208D01*
X122277625Y-102269139D01*
X122231419Y-102250000D01*
X122143708Y-102213669D01*
X122000000Y-102194750D01*
X121856291Y-102213669D01*
X121722376Y-102269138D01*
X121607379Y-102357379D01*
X121519138Y-102472376D01*
X121463669Y-102606291D01*
X121444750Y-102750000D01*
X118150500Y-102750000D01*
X118150500Y-101251008D01*
X118479500Y-101251008D01*
X118479500Y-101388991D01*
X118506418Y-101524322D01*
X118506421Y-101524332D01*
X118559223Y-101651808D01*
X118634015Y-101763743D01*
X118635886Y-101766542D01*
X118733458Y-101864114D01*
X118848189Y-101940775D01*
X118848190Y-101940775D01*
X118848191Y-101940776D01*
X118945938Y-101981264D01*
X118975672Y-101993580D01*
X119111007Y-102020500D01*
X119111009Y-102020500D01*
X120048991Y-102020500D01*
X120048993Y-102020500D01*
X120184328Y-101993580D01*
X120311811Y-101940775D01*
X120426542Y-101864114D01*
X120524114Y-101766542D01*
X120600775Y-101651811D01*
X120653580Y-101524328D01*
X120680500Y-101388993D01*
X120680500Y-101251007D01*
X120653580Y-101115672D01*
X120645281Y-101095636D01*
X120600776Y-100988191D01*
X120595878Y-100980861D01*
X120524114Y-100873458D01*
X120426542Y-100775886D01*
X120418047Y-100770210D01*
X120311808Y-100699223D01*
X120184332Y-100646421D01*
X120184322Y-100646418D01*
X120093694Y-100628391D01*
X120048993Y-100619500D01*
X119111007Y-100619500D01*
X119072642Y-100627131D01*
X118975677Y-100646418D01*
X118975667Y-100646421D01*
X118848191Y-100699223D01*
X118733461Y-100775883D01*
X118635883Y-100873461D01*
X118559223Y-100988191D01*
X118506421Y-101115667D01*
X118506418Y-101115677D01*
X118479500Y-101251008D01*
X118150500Y-101251008D01*
X118150500Y-100503854D01*
X118150499Y-100503853D01*
X118137729Y-100456196D01*
X118126614Y-100414712D01*
X118124622Y-100411262D01*
X118114488Y-100393708D01*
X118114488Y-100393709D01*
X118080470Y-100334788D01*
X117995682Y-100250000D01*
X126444750Y-100250000D01*
X126463669Y-100393708D01*
X126519138Y-100527623D01*
X126519139Y-100527625D01*
X126607379Y-100642621D01*
X126722375Y-100730861D01*
X126856291Y-100786330D01*
X127000000Y-100805250D01*
X127143709Y-100786330D01*
X127188715Y-100767687D01*
X127203818Y-100763245D01*
X127220039Y-100760303D01*
X127738658Y-100555664D01*
X127765819Y-100550500D01*
X129984181Y-100550500D01*
X130011341Y-100555664D01*
X130529960Y-100760303D01*
X130546900Y-100763461D01*
X130561652Y-100767839D01*
X130606291Y-100786330D01*
X130750000Y-100805250D01*
X130893709Y-100786330D01*
X131027625Y-100730861D01*
X131142621Y-100642621D01*
X131230861Y-100527625D01*
X131286330Y-100393709D01*
X131305250Y-100250000D01*
X131694750Y-100250000D01*
X131713669Y-100393708D01*
X131769138Y-100527623D01*
X131769139Y-100527625D01*
X131857379Y-100642621D01*
X131972375Y-100730861D01*
X132106291Y-100786330D01*
X132250000Y-100805250D01*
X132393709Y-100786330D01*
X132432629Y-100770208D01*
X132450567Y-100765308D01*
X132462314Y-100763645D01*
X132987349Y-100579663D01*
X133011821Y-100575500D01*
X147084521Y-100575500D01*
X147136847Y-100597174D01*
X147981147Y-101441474D01*
X147995507Y-101461722D01*
X148178247Y-101841620D01*
X148236669Y-101963074D01*
X148244735Y-101974133D01*
X148253314Y-101989420D01*
X148255037Y-101993580D01*
X148269139Y-102027625D01*
X148357379Y-102142621D01*
X148472375Y-102230861D01*
X148606291Y-102286330D01*
X148750000Y-102305250D01*
X148893709Y-102286330D01*
X149027625Y-102230861D01*
X149142621Y-102142621D01*
X149230861Y-102027625D01*
X149286330Y-101893709D01*
X149305250Y-101750000D01*
X149286330Y-101606291D01*
X149230861Y-101472375D01*
X149142621Y-101357379D01*
X149027625Y-101269139D01*
X148988707Y-101253019D01*
X148972558Y-101243801D01*
X148963072Y-101236668D01*
X148963068Y-101236666D01*
X148963065Y-101236664D01*
X148461725Y-100995509D01*
X148441476Y-100981149D01*
X147960327Y-100500000D01*
X147449862Y-99989535D01*
X147449859Y-99989533D01*
X147449858Y-99989532D01*
X147375643Y-99946684D01*
X147375641Y-99946683D01*
X147375640Y-99946682D01*
X147375639Y-99946682D01*
X147292853Y-99924500D01*
X147292851Y-99924500D01*
X133011822Y-99924500D01*
X132987350Y-99920336D01*
X132462319Y-99736355D01*
X132462311Y-99736353D01*
X132448781Y-99734235D01*
X132431913Y-99729494D01*
X132393711Y-99713671D01*
X132393709Y-99713670D01*
X132393708Y-99713669D01*
X132393706Y-99713669D01*
X132250000Y-99694750D01*
X132106291Y-99713669D01*
X131972376Y-99769138D01*
X131857379Y-99857379D01*
X131769138Y-99972376D01*
X131713669Y-100106291D01*
X131694750Y-100250000D01*
X131305250Y-100250000D01*
X131286330Y-100106291D01*
X131230861Y-99972375D01*
X131142621Y-99857379D01*
X131027625Y-99769139D01*
X131027623Y-99769138D01*
X130893708Y-99713669D01*
X130750000Y-99694750D01*
X130606293Y-99713669D01*
X130606286Y-99713671D01*
X130561288Y-99732308D01*
X130546189Y-99736750D01*
X130529970Y-99739693D01*
X130529957Y-99739697D01*
X130011339Y-99944335D01*
X129984178Y-99949500D01*
X127765820Y-99949500D01*
X127738659Y-99944335D01*
X127220042Y-99739697D01*
X127220030Y-99739694D01*
X127203089Y-99736534D01*
X127188342Y-99732157D01*
X127143711Y-99713671D01*
X127143709Y-99713670D01*
X127143708Y-99713669D01*
X127143706Y-99713669D01*
X127000000Y-99694750D01*
X126856291Y-99713669D01*
X126722376Y-99769138D01*
X126607379Y-99857379D01*
X126519138Y-99972376D01*
X126463669Y-100106291D01*
X126444750Y-100250000D01*
X117995682Y-100250000D01*
X116122174Y-98376492D01*
X116100500Y-98324166D01*
X116100500Y-96210882D01*
X116699500Y-96210882D01*
X116699500Y-96790011D01*
X116719977Y-96866432D01*
X116719979Y-96866437D01*
X116753932Y-96925244D01*
X116753932Y-96925247D01*
X116759539Y-96934957D01*
X116995995Y-97171413D01*
X117011549Y-97194271D01*
X117044051Y-97269139D01*
X117233569Y-97705695D01*
X117233570Y-97705697D01*
X117233571Y-97705698D01*
X117243318Y-97719914D01*
X117250648Y-97733432D01*
X117269139Y-97778072D01*
X117357379Y-97893068D01*
X117411967Y-97934955D01*
X117420808Y-97941739D01*
X117449126Y-97990789D01*
X117434467Y-98045496D01*
X117420808Y-98059155D01*
X117357379Y-98107826D01*
X117269138Y-98222823D01*
X117213669Y-98356738D01*
X117194750Y-98500447D01*
X117213669Y-98644155D01*
X117246069Y-98722375D01*
X117269139Y-98778072D01*
X117357379Y-98893068D01*
X117472375Y-98981308D01*
X117606291Y-99036777D01*
X117750000Y-99055697D01*
X117893709Y-99036777D01*
X118027625Y-98981308D01*
X118142621Y-98893068D01*
X118230861Y-98778072D01*
X118249502Y-98733066D01*
X118257039Y-98719247D01*
X118266431Y-98705694D01*
X118488449Y-98194269D01*
X118503998Y-98171418D01*
X118740460Y-97934958D01*
X118757214Y-97905939D01*
X118780021Y-97866436D01*
X118800499Y-97790011D01*
X118800500Y-97790011D01*
X118800500Y-97210883D01*
X118800499Y-97210882D01*
X118796444Y-97195750D01*
X118780021Y-97134458D01*
X118740460Y-97065936D01*
X118684511Y-97009987D01*
X118504002Y-96829478D01*
X118488448Y-96806620D01*
X118266431Y-96295199D01*
X118256680Y-96280977D01*
X118249346Y-96267450D01*
X118244529Y-96255821D01*
X118230861Y-96222822D01*
X118142621Y-96107826D01*
X118079190Y-96059153D01*
X118050873Y-96010106D01*
X118065532Y-95955398D01*
X118079187Y-95941742D01*
X118142621Y-95893068D01*
X118230861Y-95778072D01*
X118286330Y-95644156D01*
X118305250Y-95500447D01*
X118286330Y-95356738D01*
X118230861Y-95222822D01*
X118142621Y-95107826D01*
X118027625Y-95019586D01*
X118027623Y-95019585D01*
X117893708Y-94964116D01*
X117750000Y-94945197D01*
X117606291Y-94964116D01*
X117472376Y-95019585D01*
X117357379Y-95107826D01*
X117269139Y-95222820D01*
X117250499Y-95267821D01*
X117242958Y-95281646D01*
X117233571Y-95295193D01*
X117088347Y-95629719D01*
X117037632Y-95746541D01*
X117014208Y-95800499D01*
X117011551Y-95806619D01*
X116995997Y-95829477D01*
X116815489Y-96009987D01*
X116759540Y-96065935D01*
X116719979Y-96134456D01*
X116719977Y-96134461D01*
X116699500Y-96210882D01*
X116100500Y-96210882D01*
X116100500Y-95675833D01*
X116122173Y-95623508D01*
X117145682Y-94600000D01*
X118444750Y-94600000D01*
X118463669Y-94743708D01*
X118498753Y-94828408D01*
X118519139Y-94877625D01*
X118607379Y-94992621D01*
X118722375Y-95080861D01*
X118856291Y-95136330D01*
X119000000Y-95155250D01*
X119082931Y-95144331D01*
X119137639Y-95158989D01*
X119138818Y-95159914D01*
X121193551Y-96803700D01*
X121208270Y-96819513D01*
X121302291Y-96956042D01*
X121314118Y-97011431D01*
X121302099Y-97040262D01*
X121207464Y-97176347D01*
X121192642Y-97192117D01*
X119141745Y-98815744D01*
X119087266Y-98831230D01*
X119086154Y-98831092D01*
X119000000Y-98819750D01*
X118856291Y-98838669D01*
X118722376Y-98894138D01*
X118607379Y-98982379D01*
X118519138Y-99097376D01*
X118463669Y-99231291D01*
X118444750Y-99375000D01*
X118463669Y-99518708D01*
X118519138Y-99652623D01*
X118519139Y-99652625D01*
X118607379Y-99767621D01*
X118722375Y-99855861D01*
X118856291Y-99911330D01*
X119000000Y-99930250D01*
X119143709Y-99911330D01*
X119277625Y-99855861D01*
X119392621Y-99767621D01*
X119480861Y-99652625D01*
X119536330Y-99518709D01*
X119550236Y-99413074D01*
X119577670Y-99364716D01*
X120038364Y-99000000D01*
X135944750Y-99000000D01*
X135963669Y-99143708D01*
X136003745Y-99240460D01*
X136019139Y-99277625D01*
X136107379Y-99392621D01*
X136222375Y-99480861D01*
X136356291Y-99536330D01*
X136500000Y-99555250D01*
X136643709Y-99536330D01*
X136682629Y-99520208D01*
X136700567Y-99515308D01*
X136712314Y-99513645D01*
X137237349Y-99329663D01*
X137261821Y-99325500D01*
X139494383Y-99325500D01*
X139546709Y-99347174D01*
X139553082Y-99354441D01*
X139582379Y-99392621D01*
X139697375Y-99480861D01*
X139831291Y-99536330D01*
X139975000Y-99555250D01*
X140118709Y-99536330D01*
X140252625Y-99480861D01*
X140367621Y-99392621D01*
X140396910Y-99354449D01*
X140445958Y-99326133D01*
X140455617Y-99325500D01*
X142738179Y-99325500D01*
X142762650Y-99329663D01*
X143287685Y-99513645D01*
X143301211Y-99515761D01*
X143318079Y-99520502D01*
X143356291Y-99536330D01*
X143500000Y-99555250D01*
X143643709Y-99536330D01*
X143682629Y-99520208D01*
X143700567Y-99515308D01*
X143712314Y-99513645D01*
X144237349Y-99329663D01*
X144261821Y-99325500D01*
X146213179Y-99325500D01*
X146237650Y-99329663D01*
X146762685Y-99513645D01*
X146776211Y-99515761D01*
X146793079Y-99520502D01*
X146831291Y-99536330D01*
X146975000Y-99555250D01*
X147118709Y-99536330D01*
X147252625Y-99480861D01*
X147367621Y-99392621D01*
X147455861Y-99277625D01*
X147511330Y-99143709D01*
X147530250Y-99000000D01*
X147511330Y-98856291D01*
X147455861Y-98722375D01*
X147367621Y-98607379D01*
X147252625Y-98519139D01*
X147252623Y-98519138D01*
X147118708Y-98463669D01*
X146975000Y-98444750D01*
X146831287Y-98463670D01*
X146831286Y-98463670D01*
X146792371Y-98479788D01*
X146774442Y-98484687D01*
X146762694Y-98486352D01*
X146762687Y-98486353D01*
X146762685Y-98486354D01*
X146762682Y-98486354D01*
X146762678Y-98486356D01*
X146237647Y-98670336D01*
X146213175Y-98674500D01*
X144261822Y-98674500D01*
X144237350Y-98670336D01*
X143712319Y-98486355D01*
X143712311Y-98486353D01*
X143698781Y-98484235D01*
X143681913Y-98479494D01*
X143658390Y-98469751D01*
X143643709Y-98463670D01*
X143643708Y-98463669D01*
X143643706Y-98463669D01*
X143500000Y-98444750D01*
X143356287Y-98463670D01*
X143356286Y-98463670D01*
X143317371Y-98479788D01*
X143299442Y-98484687D01*
X143287694Y-98486352D01*
X143287687Y-98486353D01*
X143287685Y-98486354D01*
X143287682Y-98486354D01*
X143287678Y-98486356D01*
X142762647Y-98670336D01*
X142738175Y-98674500D01*
X140455617Y-98674500D01*
X140403291Y-98652826D01*
X140396917Y-98645558D01*
X140367621Y-98607379D01*
X140252625Y-98519139D01*
X140252623Y-98519138D01*
X140118708Y-98463669D01*
X139975000Y-98444750D01*
X139831291Y-98463669D01*
X139697376Y-98519138D01*
X139625445Y-98574333D01*
X139582379Y-98607379D01*
X139553089Y-98645550D01*
X139504042Y-98673867D01*
X139494383Y-98674500D01*
X137261822Y-98674500D01*
X137237350Y-98670336D01*
X136712319Y-98486355D01*
X136712311Y-98486353D01*
X136698781Y-98484235D01*
X136681913Y-98479494D01*
X136658390Y-98469751D01*
X136643709Y-98463670D01*
X136643708Y-98463669D01*
X136643706Y-98463669D01*
X136500000Y-98444750D01*
X136356291Y-98463669D01*
X136222376Y-98519138D01*
X136107379Y-98607379D01*
X136019138Y-98722376D01*
X135963669Y-98856291D01*
X135944750Y-99000000D01*
X120038364Y-99000000D01*
X121616048Y-97751000D01*
X135269750Y-97751000D01*
X135288669Y-97894708D01*
X135305340Y-97934955D01*
X135344139Y-98028625D01*
X135432379Y-98143621D01*
X135547375Y-98231861D01*
X135681291Y-98287330D01*
X135825000Y-98306250D01*
X135968709Y-98287330D01*
X136007878Y-98271104D01*
X136025700Y-98266219D01*
X136037653Y-98264507D01*
X136562198Y-98079704D01*
X136586787Y-98075500D01*
X138563179Y-98075500D01*
X138587650Y-98079663D01*
X139112685Y-98263645D01*
X139126211Y-98265761D01*
X139143079Y-98270502D01*
X139181291Y-98286330D01*
X139325000Y-98305250D01*
X139468709Y-98286330D01*
X139513715Y-98267687D01*
X139528818Y-98263245D01*
X139545039Y-98260303D01*
X140063658Y-98055664D01*
X140090819Y-98050500D01*
X142325199Y-98050500D01*
X142377525Y-98072174D01*
X142383907Y-98079452D01*
X142432374Y-98142615D01*
X142432376Y-98142618D01*
X142432377Y-98142619D01*
X142432379Y-98142621D01*
X142547375Y-98230861D01*
X142681291Y-98286330D01*
X142825000Y-98305250D01*
X142968709Y-98286330D01*
X143102625Y-98230861D01*
X143217621Y-98142621D01*
X143244320Y-98107826D01*
X143266093Y-98079452D01*
X143315142Y-98051133D01*
X143324801Y-98050500D01*
X145559181Y-98050500D01*
X145586341Y-98055664D01*
X146104960Y-98260303D01*
X146121900Y-98263461D01*
X146136652Y-98267839D01*
X146181291Y-98286330D01*
X146325000Y-98305250D01*
X146468709Y-98286330D01*
X146513715Y-98267687D01*
X146528818Y-98263245D01*
X146545039Y-98260303D01*
X147010339Y-98076703D01*
X147064659Y-98076703D01*
X147529960Y-98260303D01*
X147546900Y-98263461D01*
X147561652Y-98267839D01*
X147606291Y-98286330D01*
X147750000Y-98305250D01*
X147893709Y-98286330D01*
X148027625Y-98230861D01*
X148142621Y-98142621D01*
X148230861Y-98027625D01*
X148286330Y-97893709D01*
X148305250Y-97750000D01*
X148286330Y-97606291D01*
X148230861Y-97472375D01*
X148142621Y-97357379D01*
X148027625Y-97269139D01*
X148027623Y-97269138D01*
X147893708Y-97213669D01*
X147750000Y-97194750D01*
X147606293Y-97213669D01*
X147606286Y-97213671D01*
X147561288Y-97232308D01*
X147546189Y-97236750D01*
X147529970Y-97239693D01*
X147529957Y-97239697D01*
X147064660Y-97423294D01*
X147010338Y-97423294D01*
X146545042Y-97239697D01*
X146545030Y-97239694D01*
X146528089Y-97236534D01*
X146513342Y-97232157D01*
X146471123Y-97214670D01*
X146468709Y-97213670D01*
X146468708Y-97213669D01*
X146468706Y-97213669D01*
X146325000Y-97194750D01*
X146181293Y-97213669D01*
X146181286Y-97213671D01*
X146136288Y-97232308D01*
X146121189Y-97236750D01*
X146104970Y-97239693D01*
X146104957Y-97239697D01*
X145586339Y-97444335D01*
X145559178Y-97449500D01*
X143324801Y-97449500D01*
X143272475Y-97427826D01*
X143266093Y-97420548D01*
X143217625Y-97357384D01*
X143217623Y-97357381D01*
X143217621Y-97357380D01*
X143217621Y-97357379D01*
X143102625Y-97269139D01*
X143102623Y-97269138D01*
X142968708Y-97213669D01*
X142825000Y-97194750D01*
X142681291Y-97213669D01*
X142547376Y-97269138D01*
X142432376Y-97357381D01*
X142432374Y-97357384D01*
X142383907Y-97420548D01*
X142334858Y-97448867D01*
X142325199Y-97449500D01*
X140090820Y-97449500D01*
X140063659Y-97444335D01*
X140010334Y-97423294D01*
X139932597Y-97392620D01*
X139545042Y-97239697D01*
X139545030Y-97239694D01*
X139528089Y-97236534D01*
X139513342Y-97232157D01*
X139471123Y-97214670D01*
X139468709Y-97213670D01*
X139468708Y-97213669D01*
X139468706Y-97213669D01*
X139325000Y-97194750D01*
X139181287Y-97213670D01*
X139181286Y-97213670D01*
X139142371Y-97229788D01*
X139124442Y-97234687D01*
X139112694Y-97236352D01*
X139112687Y-97236353D01*
X139112685Y-97236354D01*
X139112682Y-97236354D01*
X139112678Y-97236356D01*
X138587647Y-97420336D01*
X138563175Y-97424500D01*
X136586480Y-97424500D01*
X136562110Y-97420372D01*
X136037017Y-97237233D01*
X136023631Y-97235152D01*
X136006683Y-97230399D01*
X136005208Y-97229788D01*
X135968709Y-97214670D01*
X135968708Y-97214669D01*
X135968706Y-97214669D01*
X135825000Y-97195750D01*
X135681291Y-97214669D01*
X135547376Y-97270138D01*
X135432379Y-97358379D01*
X135344138Y-97473376D01*
X135288669Y-97607291D01*
X135269750Y-97751000D01*
X121616048Y-97751000D01*
X121627180Y-97742187D01*
X121646529Y-97731146D01*
X122196585Y-97519441D01*
X122198418Y-97518726D01*
X122198663Y-97518629D01*
X122213873Y-97508666D01*
X122226102Y-97502202D01*
X122253025Y-97491050D01*
X122277625Y-97480861D01*
X122392621Y-97392621D01*
X122480861Y-97277625D01*
X122536330Y-97143709D01*
X122555250Y-97000000D01*
X122536330Y-96856291D01*
X122480861Y-96722375D01*
X122392621Y-96607379D01*
X122342692Y-96569066D01*
X122277625Y-96519138D01*
X122236250Y-96502000D01*
X134619750Y-96502000D01*
X134638669Y-96645708D01*
X134694138Y-96779623D01*
X134694139Y-96779625D01*
X134782379Y-96894621D01*
X134897375Y-96982861D01*
X135031291Y-97038330D01*
X135175000Y-97057250D01*
X135318709Y-97038330D01*
X135364255Y-97019464D01*
X135379099Y-97015070D01*
X135395690Y-97012004D01*
X135397129Y-97011431D01*
X135913389Y-96805755D01*
X135940777Y-96800500D01*
X138174199Y-96800500D01*
X138226525Y-96822174D01*
X138232907Y-96829452D01*
X138281374Y-96892615D01*
X138281376Y-96892618D01*
X138281377Y-96892619D01*
X138281379Y-96892621D01*
X138396375Y-96980861D01*
X138530291Y-97036330D01*
X138674000Y-97055250D01*
X138817709Y-97036330D01*
X138951625Y-96980861D01*
X139066621Y-96892621D01*
X139094498Y-96856291D01*
X139115093Y-96829452D01*
X139164142Y-96801133D01*
X139173801Y-96800500D01*
X141675199Y-96800500D01*
X141727525Y-96822174D01*
X141733907Y-96829452D01*
X141782374Y-96892615D01*
X141782376Y-96892618D01*
X141782377Y-96892619D01*
X141782379Y-96892621D01*
X141897375Y-96980861D01*
X142031291Y-97036330D01*
X142175000Y-97055250D01*
X142318709Y-97036330D01*
X142452625Y-96980861D01*
X142567621Y-96892621D01*
X142595498Y-96856291D01*
X142616093Y-96829452D01*
X142665142Y-96801133D01*
X142674801Y-96800500D01*
X145175199Y-96800500D01*
X145227525Y-96822174D01*
X145233907Y-96829452D01*
X145282374Y-96892615D01*
X145282376Y-96892618D01*
X145282377Y-96892619D01*
X145282379Y-96892621D01*
X145397375Y-96980861D01*
X145531291Y-97036330D01*
X145675000Y-97055250D01*
X145818709Y-97036330D01*
X145952625Y-96980861D01*
X146067621Y-96892621D01*
X146095498Y-96856291D01*
X146116093Y-96829452D01*
X146165142Y-96801133D01*
X146174801Y-96800500D01*
X149539564Y-96800500D01*
X149539564Y-96800499D01*
X149615989Y-96780021D01*
X149684511Y-96740460D01*
X149740460Y-96684511D01*
X150323174Y-96101797D01*
X150375500Y-96080123D01*
X150427826Y-96101797D01*
X150449500Y-96154123D01*
X150449500Y-103216666D01*
X150437062Y-103246693D01*
X150449500Y-103283333D01*
X150449500Y-111213505D01*
X150427826Y-111265831D01*
X148509540Y-113184116D01*
X148469979Y-113252637D01*
X148469977Y-113252642D01*
X148449500Y-113329063D01*
X148449500Y-115094876D01*
X148427826Y-115147202D01*
X148329032Y-115245995D01*
X148306174Y-115261548D01*
X147794749Y-115483570D01*
X147780531Y-115493318D01*
X147767009Y-115500649D01*
X147722377Y-115519137D01*
X147722375Y-115519138D01*
X147607379Y-115607379D01*
X147519138Y-115722376D01*
X147463669Y-115856291D01*
X147444750Y-116000000D01*
X147463669Y-116143708D01*
X147507145Y-116248668D01*
X147519139Y-116277625D01*
X147607379Y-116392621D01*
X147722375Y-116480861D01*
X147856291Y-116536330D01*
X148000000Y-116555250D01*
X148143709Y-116536330D01*
X148277625Y-116480861D01*
X148392621Y-116392621D01*
X148480861Y-116277625D01*
X148499502Y-116232619D01*
X148507039Y-116218800D01*
X148516431Y-116205247D01*
X148567612Y-116087349D01*
X148608329Y-116047984D01*
X148664959Y-116048939D01*
X148704326Y-116089657D01*
X148708858Y-116107160D01*
X148713669Y-116143708D01*
X148757145Y-116248668D01*
X148769139Y-116277625D01*
X148857379Y-116392621D01*
X148972375Y-116480861D01*
X149106291Y-116536330D01*
X149250000Y-116555250D01*
X149393709Y-116536330D01*
X149527625Y-116480861D01*
X149642621Y-116392621D01*
X149730861Y-116277625D01*
X149742857Y-116248662D01*
X149755197Y-116228640D01*
X149757228Y-116226288D01*
X150025072Y-115753681D01*
X150037119Y-115737850D01*
X150840460Y-114934511D01*
X150871954Y-114879961D01*
X150880021Y-114865989D01*
X150900499Y-114789564D01*
X150900500Y-114789564D01*
X150900500Y-112805123D01*
X150922174Y-112752797D01*
X151823174Y-111851797D01*
X151875500Y-111830123D01*
X151927826Y-111851797D01*
X151949500Y-111904123D01*
X151949500Y-114334179D01*
X151944335Y-114361340D01*
X151739698Y-114879955D01*
X151739696Y-114879959D01*
X151739696Y-114879960D01*
X151739696Y-114879961D01*
X151736671Y-114896182D01*
X151736536Y-114896904D01*
X151732158Y-114911652D01*
X151713670Y-114956289D01*
X151694750Y-115100000D01*
X151713669Y-115243708D01*
X151764319Y-115365989D01*
X151769139Y-115377625D01*
X151857379Y-115492621D01*
X151972375Y-115580861D01*
X152106291Y-115636330D01*
X152250000Y-115655250D01*
X152393709Y-115636330D01*
X152527625Y-115580861D01*
X152642621Y-115492621D01*
X152730861Y-115377625D01*
X152786330Y-115243709D01*
X152805250Y-115100000D01*
X152786330Y-114956291D01*
X152767689Y-114911287D01*
X152763246Y-114896182D01*
X152762600Y-114892620D01*
X152760303Y-114879960D01*
X152599388Y-114472149D01*
X152555665Y-114361340D01*
X152550500Y-114334179D01*
X152550500Y-113999033D01*
X152572174Y-113946707D01*
X152624500Y-113925033D01*
X152669546Y-113940324D01*
X152722375Y-113980861D01*
X152856291Y-114036330D01*
X153000000Y-114055250D01*
X153143709Y-114036330D01*
X153277625Y-113980861D01*
X153392621Y-113892621D01*
X153480861Y-113777625D01*
X153536330Y-113643709D01*
X153555250Y-113500000D01*
X153536330Y-113356291D01*
X153480861Y-113222375D01*
X153392621Y-113107379D01*
X153392619Y-113107377D01*
X153392618Y-113107376D01*
X153392616Y-113107374D01*
X153387027Y-113103086D01*
X153376329Y-113092382D01*
X153376185Y-113092517D01*
X153373698Y-113089859D01*
X153075679Y-112828223D01*
X153050656Y-112777414D01*
X153050500Y-112772613D01*
X153050500Y-101654123D01*
X153072174Y-101601797D01*
X153124500Y-101580123D01*
X153176826Y-101601797D01*
X155161371Y-103586342D01*
X155183045Y-103638668D01*
X155161371Y-103690994D01*
X155118707Y-103712035D01*
X155106290Y-103713670D01*
X154972376Y-103769138D01*
X154857379Y-103857379D01*
X154769138Y-103972376D01*
X154713669Y-104106291D01*
X154694750Y-104250000D01*
X154713669Y-104393708D01*
X154732307Y-104438704D01*
X154736751Y-104453809D01*
X154739696Y-104470039D01*
X154899278Y-104874471D01*
X154944335Y-104988658D01*
X154949500Y-105015819D01*
X154949500Y-113564877D01*
X154927826Y-113617203D01*
X154799033Y-113745995D01*
X154776175Y-113761548D01*
X154264750Y-113983570D01*
X154250532Y-113993318D01*
X154237010Y-114000649D01*
X154192378Y-114019137D01*
X154192376Y-114019138D01*
X154077380Y-114107379D01*
X153989139Y-114222376D01*
X153933670Y-114356291D01*
X153914751Y-114500000D01*
X153933670Y-114643708D01*
X153989139Y-114777623D01*
X153989140Y-114777625D01*
X154077380Y-114892621D01*
X154192376Y-114980861D01*
X154326292Y-115036330D01*
X154470001Y-115055250D01*
X154613710Y-115036330D01*
X154747626Y-114980861D01*
X154862622Y-114892621D01*
X154950862Y-114777625D01*
X154969503Y-114732619D01*
X154977040Y-114718800D01*
X154986432Y-114705247D01*
X155208450Y-114193822D01*
X155223999Y-114170971D01*
X155490460Y-113904512D01*
X155529042Y-113837685D01*
X155529047Y-113837687D01*
X155529052Y-113837666D01*
X155530021Y-113835990D01*
X155550499Y-113759565D01*
X155550500Y-113759565D01*
X155550500Y-105015819D01*
X155555665Y-104988658D01*
X155566800Y-104960438D01*
X155760303Y-104470039D01*
X155763461Y-104453097D01*
X155767836Y-104438354D01*
X155786330Y-104393709D01*
X155787964Y-104381296D01*
X155816281Y-104332247D01*
X155870988Y-104317587D01*
X155913657Y-104338628D01*
X155927826Y-104352797D01*
X155949500Y-104405123D01*
X155949500Y-109539564D01*
X155969977Y-109615985D01*
X155969979Y-109615990D01*
X156003117Y-109673386D01*
X156009540Y-109684511D01*
X156927826Y-110602797D01*
X156949500Y-110655123D01*
X156949500Y-111000198D01*
X156927826Y-111052524D01*
X156920549Y-111058906D01*
X156857377Y-111107380D01*
X156857376Y-111107381D01*
X156769140Y-111222372D01*
X156769138Y-111222376D01*
X156713669Y-111356291D01*
X156694750Y-111500000D01*
X156713669Y-111643708D01*
X156747536Y-111725471D01*
X156769139Y-111777625D01*
X156857379Y-111892621D01*
X156972375Y-111980861D01*
X157106291Y-112036330D01*
X157250000Y-112055250D01*
X157393709Y-112036330D01*
X157527625Y-111980861D01*
X157642621Y-111892621D01*
X157730861Y-111777625D01*
X157786330Y-111643709D01*
X157805250Y-111500000D01*
X157786330Y-111356291D01*
X157730861Y-111222375D01*
X157642621Y-111107379D01*
X157579451Y-111058906D01*
X157551133Y-111009856D01*
X157550500Y-111000198D01*
X157550500Y-110654123D01*
X157572174Y-110601797D01*
X157624500Y-110580123D01*
X157676826Y-110601797D01*
X159427826Y-112352797D01*
X159449500Y-112405123D01*
X159449500Y-113250966D01*
X159427826Y-113303292D01*
X159375500Y-113324966D01*
X159330452Y-113309674D01*
X159277627Y-113269140D01*
X159277623Y-113269138D01*
X159143708Y-113213669D01*
X159000000Y-113194750D01*
X158856291Y-113213669D01*
X158722376Y-113269138D01*
X158607379Y-113357379D01*
X158519138Y-113472376D01*
X158463669Y-113606291D01*
X158444750Y-113750000D01*
X158444750Y-113750002D01*
X158446916Y-113766458D01*
X158432256Y-113821165D01*
X158425875Y-113828441D01*
X155376492Y-116877826D01*
X155324166Y-116899500D01*
X144925834Y-116899500D01*
X144873508Y-116877826D01*
X142495682Y-114500000D01*
X146444750Y-114500000D01*
X146463669Y-114643708D01*
X146519138Y-114777623D01*
X146519139Y-114777625D01*
X146607379Y-114892621D01*
X146722375Y-114980861D01*
X146856291Y-115036330D01*
X147000000Y-115055250D01*
X147143709Y-115036330D01*
X147277625Y-114980861D01*
X147392621Y-114892621D01*
X147480861Y-114777625D01*
X147536330Y-114643709D01*
X147555250Y-114500000D01*
X147536330Y-114356291D01*
X147522681Y-114323339D01*
X147517424Y-114302467D01*
X147516745Y-114295757D01*
X147516744Y-114295744D01*
X147511910Y-114279959D01*
X147353744Y-113763503D01*
X147350500Y-113741834D01*
X147350500Y-110175833D01*
X147372173Y-110123508D01*
X148461739Y-109033941D01*
X148479348Y-109020917D01*
X148970963Y-108759823D01*
X148978273Y-108754149D01*
X148995332Y-108744235D01*
X149027625Y-108730861D01*
X149142621Y-108642621D01*
X149230861Y-108527625D01*
X149286330Y-108393709D01*
X149305250Y-108250000D01*
X149286330Y-108106291D01*
X149230861Y-107972375D01*
X149142621Y-107857379D01*
X149027625Y-107769139D01*
X149027623Y-107769138D01*
X148893708Y-107713669D01*
X148750000Y-107694750D01*
X148606291Y-107713669D01*
X148472376Y-107769138D01*
X148357379Y-107857379D01*
X148269139Y-107972373D01*
X148255491Y-108005323D01*
X148244455Y-108023792D01*
X148240177Y-108029033D01*
X147979080Y-108520649D01*
X147966051Y-108538265D01*
X146719530Y-109784787D01*
X146673386Y-109864710D01*
X146673384Y-109864715D01*
X146649500Y-109953853D01*
X146649500Y-113741833D01*
X146646256Y-113763502D01*
X146483257Y-114295739D01*
X146483253Y-114295757D01*
X146482095Y-114304940D01*
X146477045Y-114323996D01*
X146463670Y-114356289D01*
X146444750Y-114500000D01*
X142495682Y-114500000D01*
X136872174Y-108876492D01*
X136850500Y-108824166D01*
X136850500Y-108461434D01*
X136872174Y-108409108D01*
X136879453Y-108402725D01*
X136879917Y-108402368D01*
X136892621Y-108392621D01*
X136980861Y-108277625D01*
X137036330Y-108143709D01*
X137055250Y-108000000D01*
X137036330Y-107856291D01*
X136980861Y-107722375D01*
X136892621Y-107607379D01*
X136777625Y-107519139D01*
X136731419Y-107500000D01*
X136643708Y-107463669D01*
X136500000Y-107444750D01*
X136356291Y-107463669D01*
X136222376Y-107519138D01*
X136107379Y-107607379D01*
X136019138Y-107722376D01*
X135963669Y-107856291D01*
X135944750Y-108000000D01*
X135963669Y-108143708D01*
X136019138Y-108277623D01*
X136019140Y-108277627D01*
X136107377Y-108392619D01*
X136107380Y-108392622D01*
X136120547Y-108402725D01*
X136148867Y-108451773D01*
X136149500Y-108461434D01*
X136149500Y-109046146D01*
X136168214Y-109115985D01*
X136168215Y-109115989D01*
X136173384Y-109135285D01*
X136173386Y-109135288D01*
X136219530Y-109215212D01*
X144534788Y-117530470D01*
X144614712Y-117576614D01*
X144614713Y-117576614D01*
X144614715Y-117576615D01*
X144659284Y-117588557D01*
X144703853Y-117600499D01*
X144703854Y-117600500D01*
X144703856Y-117600500D01*
X155546146Y-117600500D01*
X155546146Y-117600499D01*
X155635288Y-117576614D01*
X155715212Y-117530470D01*
X158921558Y-114324122D01*
X158973883Y-114302449D01*
X158983539Y-114303082D01*
X159000000Y-114305250D01*
X159025139Y-114301940D01*
X159079846Y-114316598D01*
X159108165Y-114365647D01*
X159093507Y-114420355D01*
X159089791Y-114424822D01*
X159037809Y-114482553D01*
X159037802Y-114482563D01*
X158945784Y-114641942D01*
X158888916Y-114816965D01*
X158888915Y-114816969D01*
X158888915Y-114816971D01*
X158869678Y-115000000D01*
X158885905Y-115154394D01*
X158888916Y-115183034D01*
X158945784Y-115358057D01*
X159037802Y-115517436D01*
X159037805Y-115517441D01*
X159160952Y-115654209D01*
X159309832Y-115762377D01*
X159309839Y-115762381D01*
X159477966Y-115837236D01*
X159657981Y-115875500D01*
X159657982Y-115875500D01*
X159842018Y-115875500D01*
X159842019Y-115875500D01*
X160022034Y-115837236D01*
X160190161Y-115762381D01*
X160211618Y-115746792D01*
X160339047Y-115654209D01*
X160339046Y-115654209D01*
X160339050Y-115654207D01*
X160462195Y-115517440D01*
X160554214Y-115358059D01*
X160567179Y-115318159D01*
X160611083Y-115183034D01*
X160611085Y-115183029D01*
X160630322Y-115000000D01*
X160611085Y-114816971D01*
X160598300Y-114777623D01*
X160554215Y-114641942D01*
X160462197Y-114482563D01*
X160462194Y-114482558D01*
X160364898Y-114374500D01*
X160339050Y-114345793D01*
X160339049Y-114345792D01*
X160339047Y-114345790D01*
X160190164Y-114237620D01*
X160190159Y-114237617D01*
X160094401Y-114194983D01*
X160055415Y-114153900D01*
X160050500Y-114127381D01*
X160050500Y-112404123D01*
X160072174Y-112351797D01*
X160124500Y-112330123D01*
X160176826Y-112351797D01*
X161427826Y-113602797D01*
X161449500Y-113655123D01*
X161449500Y-114127381D01*
X161427826Y-114179707D01*
X161405599Y-114194983D01*
X161309840Y-114237617D01*
X161309835Y-114237620D01*
X161160952Y-114345790D01*
X161037805Y-114482558D01*
X161037802Y-114482563D01*
X160945784Y-114641942D01*
X160888916Y-114816965D01*
X160888915Y-114816969D01*
X160888915Y-114816971D01*
X160869678Y-115000000D01*
X160885905Y-115154394D01*
X160888916Y-115183034D01*
X160945784Y-115358057D01*
X161037802Y-115517436D01*
X161037805Y-115517441D01*
X161160952Y-115654209D01*
X161309832Y-115762377D01*
X161309839Y-115762381D01*
X161477966Y-115837236D01*
X161657981Y-115875500D01*
X161657982Y-115875500D01*
X161842018Y-115875500D01*
X161842019Y-115875500D01*
X162022034Y-115837236D01*
X162190161Y-115762381D01*
X162211618Y-115746792D01*
X162339047Y-115654209D01*
X162339046Y-115654209D01*
X162339050Y-115654207D01*
X162462195Y-115517440D01*
X162554214Y-115358059D01*
X162567179Y-115318159D01*
X162611083Y-115183034D01*
X162611085Y-115183029D01*
X162630322Y-115000000D01*
X162611085Y-114816971D01*
X162598300Y-114777623D01*
X162554215Y-114641942D01*
X162462197Y-114482563D01*
X162462194Y-114482558D01*
X162364898Y-114374500D01*
X162339050Y-114345793D01*
X162339049Y-114345792D01*
X162339047Y-114345790D01*
X162190164Y-114237620D01*
X162190159Y-114237617D01*
X162094401Y-114194983D01*
X162055415Y-114153900D01*
X162050500Y-114127381D01*
X162050500Y-113654123D01*
X162072174Y-113601797D01*
X162124500Y-113580123D01*
X162176826Y-113601797D01*
X163004895Y-114429866D01*
X163026569Y-114482192D01*
X163016655Y-114519192D01*
X162945784Y-114641942D01*
X162888916Y-114816965D01*
X162888915Y-114816969D01*
X162888915Y-114816971D01*
X162869678Y-115000000D01*
X162885905Y-115154394D01*
X162888916Y-115183034D01*
X162945784Y-115358057D01*
X163037802Y-115517436D01*
X163037805Y-115517441D01*
X163160952Y-115654209D01*
X163309832Y-115762377D01*
X163309839Y-115762381D01*
X163477966Y-115837236D01*
X163657981Y-115875500D01*
X163657982Y-115875500D01*
X163842018Y-115875500D01*
X163842019Y-115875500D01*
X164022034Y-115837236D01*
X164190161Y-115762381D01*
X164211618Y-115746792D01*
X164339047Y-115654209D01*
X164339046Y-115654209D01*
X164339050Y-115654207D01*
X164462195Y-115517440D01*
X164554214Y-115358059D01*
X164567179Y-115318159D01*
X164611083Y-115183034D01*
X164611085Y-115183029D01*
X164630322Y-115000000D01*
X164611085Y-114816971D01*
X164598300Y-114777623D01*
X164554215Y-114641942D01*
X164462197Y-114482563D01*
X164462194Y-114482558D01*
X164364898Y-114374500D01*
X164339050Y-114345793D01*
X164339049Y-114345792D01*
X164339047Y-114345790D01*
X164190167Y-114237622D01*
X164190160Y-114237618D01*
X164022035Y-114162764D01*
X164022033Y-114162763D01*
X163880282Y-114132633D01*
X163842019Y-114124500D01*
X163657981Y-114124500D01*
X163607791Y-114135167D01*
X163552102Y-114124845D01*
X163540081Y-114115110D01*
X158072174Y-108647203D01*
X158050500Y-108594877D01*
X158050500Y-101265819D01*
X158055665Y-101238658D01*
X158086707Y-101159988D01*
X158260303Y-100720039D01*
X158263461Y-100703097D01*
X158267836Y-100688354D01*
X158286330Y-100643709D01*
X158305250Y-100500000D01*
X158286330Y-100356291D01*
X158230861Y-100222375D01*
X158142621Y-100107379D01*
X158027625Y-100019139D01*
X158027623Y-100019138D01*
X157893708Y-99963669D01*
X157750000Y-99944750D01*
X157606291Y-99963669D01*
X157472376Y-100019138D01*
X157357379Y-100107379D01*
X157269138Y-100222376D01*
X157213669Y-100356291D01*
X157194750Y-100500000D01*
X157213669Y-100643708D01*
X157232307Y-100688704D01*
X157236751Y-100703809D01*
X157239696Y-100720039D01*
X157394178Y-101111546D01*
X157444335Y-101238658D01*
X157449500Y-101265819D01*
X157449500Y-102095877D01*
X157427826Y-102148203D01*
X157375500Y-102169877D01*
X157323174Y-102148203D01*
X156004002Y-100829031D01*
X155988448Y-100806173D01*
X155766431Y-100294752D01*
X155756680Y-100280530D01*
X155749346Y-100267003D01*
X155730861Y-100222376D01*
X155730861Y-100222375D01*
X155642621Y-100107379D01*
X155527625Y-100019139D01*
X155527623Y-100019138D01*
X155393708Y-99963669D01*
X155250000Y-99944750D01*
X155106291Y-99963669D01*
X154972376Y-100019138D01*
X154857379Y-100107379D01*
X154769138Y-100222376D01*
X154713669Y-100356291D01*
X154708858Y-100392839D01*
X154680539Y-100441888D01*
X154625831Y-100456546D01*
X154576782Y-100428227D01*
X154567611Y-100412647D01*
X154559390Y-100393709D01*
X154516431Y-100294752D01*
X154506680Y-100280530D01*
X154499346Y-100267003D01*
X154480861Y-100222376D01*
X154480861Y-100222375D01*
X154392621Y-100107379D01*
X154277625Y-100019139D01*
X154277623Y-100019138D01*
X154143708Y-99963669D01*
X154000000Y-99944750D01*
X153856291Y-99963669D01*
X153722376Y-100019138D01*
X153722372Y-100019140D01*
X153669548Y-100059674D01*
X153614841Y-100074333D01*
X153565792Y-100046014D01*
X153550500Y-100000966D01*
X153550500Y-99499033D01*
X153572174Y-99446707D01*
X153624500Y-99425033D01*
X153669546Y-99440324D01*
X153722375Y-99480861D01*
X153856291Y-99536330D01*
X154000000Y-99555250D01*
X154143709Y-99536330D01*
X154188715Y-99517687D01*
X154203818Y-99513245D01*
X154220039Y-99510303D01*
X154738658Y-99305664D01*
X154765819Y-99300500D01*
X155289564Y-99300500D01*
X155289564Y-99300499D01*
X155365989Y-99280021D01*
X155434511Y-99240460D01*
X155490460Y-99184511D01*
X155831505Y-98843465D01*
X155883830Y-98821792D01*
X155936156Y-98843466D01*
X155957830Y-98895792D01*
X155957197Y-98905450D01*
X155944750Y-98999999D01*
X155963669Y-99143708D01*
X156003745Y-99240460D01*
X156019139Y-99277625D01*
X156107379Y-99392621D01*
X156222375Y-99480861D01*
X156356291Y-99536330D01*
X156500000Y-99555250D01*
X156643709Y-99536330D01*
X156688715Y-99517687D01*
X156703818Y-99513245D01*
X156720039Y-99510303D01*
X157238658Y-99305664D01*
X157265819Y-99300500D01*
X157844877Y-99300500D01*
X157897203Y-99322174D01*
X158677826Y-100102797D01*
X158699500Y-100155123D01*
X158699500Y-103289564D01*
X158719978Y-103365988D01*
X158735982Y-103393709D01*
X158735983Y-103393709D01*
X158759540Y-103434511D01*
X160177826Y-104852797D01*
X160199500Y-104905123D01*
X160199500Y-109789564D01*
X160219977Y-109865985D01*
X160219979Y-109865990D01*
X160259540Y-109934511D01*
X164918915Y-114593886D01*
X164940589Y-114646212D01*
X164936967Y-114669079D01*
X164888916Y-114816965D01*
X164888915Y-114816969D01*
X164888915Y-114816971D01*
X164869678Y-115000000D01*
X164885905Y-115154394D01*
X164888916Y-115183034D01*
X164945784Y-115358057D01*
X165037802Y-115517436D01*
X165037805Y-115517441D01*
X165160952Y-115654209D01*
X165309832Y-115762377D01*
X165309839Y-115762381D01*
X165477966Y-115837236D01*
X165657981Y-115875500D01*
X165657982Y-115875500D01*
X165842018Y-115875500D01*
X165842019Y-115875500D01*
X166022034Y-115837236D01*
X166190161Y-115762381D01*
X166211618Y-115746792D01*
X166339047Y-115654209D01*
X166339046Y-115654209D01*
X166339050Y-115654207D01*
X166462195Y-115517440D01*
X166554214Y-115358059D01*
X166567179Y-115318159D01*
X166611083Y-115183034D01*
X166611085Y-115183029D01*
X166630322Y-115000000D01*
X166611085Y-114816971D01*
X166598300Y-114777623D01*
X166554215Y-114641942D01*
X166462197Y-114482563D01*
X166462194Y-114482558D01*
X166364898Y-114374500D01*
X166339050Y-114345793D01*
X166339049Y-114345792D01*
X166339047Y-114345790D01*
X166190167Y-114237622D01*
X166190160Y-114237618D01*
X166022035Y-114162764D01*
X166022033Y-114162763D01*
X165880282Y-114132633D01*
X165842019Y-114124500D01*
X165657981Y-114124500D01*
X165609389Y-114134828D01*
X165477968Y-114162763D01*
X165477966Y-114162763D01*
X165427395Y-114185278D01*
X165370777Y-114186759D01*
X165344972Y-114170001D01*
X160822174Y-109647203D01*
X160800500Y-109594877D01*
X160800500Y-108033333D01*
X160812937Y-108003305D01*
X160800500Y-107966666D01*
X160800500Y-107033333D01*
X160812937Y-107003305D01*
X160800500Y-106966666D01*
X160800500Y-104904123D01*
X160822174Y-104851797D01*
X160874500Y-104830123D01*
X160926826Y-104851797D01*
X161177826Y-105102797D01*
X161199500Y-105155123D01*
X161199500Y-106500198D01*
X161177826Y-106552524D01*
X161170549Y-106558906D01*
X161107377Y-106607380D01*
X161107376Y-106607381D01*
X161019140Y-106722372D01*
X161019138Y-106722376D01*
X160963669Y-106856291D01*
X160947867Y-106976325D01*
X160935273Y-106998137D01*
X160947866Y-107023673D01*
X160950836Y-107046228D01*
X160963669Y-107143708D01*
X161019138Y-107277623D01*
X161019139Y-107277625D01*
X161107379Y-107392621D01*
X161161971Y-107434511D01*
X161170808Y-107441292D01*
X161199126Y-107490342D01*
X161184467Y-107545049D01*
X161170808Y-107558708D01*
X161107379Y-107607379D01*
X161019138Y-107722376D01*
X160963669Y-107856291D01*
X160947867Y-107976325D01*
X160935273Y-107998137D01*
X160947866Y-108023673D01*
X160950836Y-108046228D01*
X160963669Y-108143708D01*
X161019138Y-108277623D01*
X161019139Y-108277625D01*
X161107379Y-108392621D01*
X161222375Y-108480861D01*
X161356291Y-108536330D01*
X161500000Y-108555250D01*
X161643709Y-108536330D01*
X161777625Y-108480861D01*
X161892621Y-108392621D01*
X161980861Y-108277625D01*
X162036330Y-108143709D01*
X162055250Y-108000000D01*
X162044856Y-107921056D01*
X162059514Y-107866350D01*
X162065889Y-107859080D01*
X162490460Y-107434511D01*
X162518672Y-107385646D01*
X162530021Y-107365989D01*
X162550499Y-107289564D01*
X162550500Y-107289564D01*
X162550500Y-104960438D01*
X162534440Y-104900500D01*
X162534440Y-104900499D01*
X162530022Y-104884013D01*
X162530019Y-104884007D01*
X162490462Y-104815492D01*
X162490461Y-104815491D01*
X162490460Y-104815489D01*
X160322174Y-102647203D01*
X160300500Y-102594877D01*
X160300500Y-99460436D01*
X160285777Y-99405493D01*
X160285776Y-99405488D01*
X160280023Y-99384015D01*
X160280023Y-99384014D01*
X160240462Y-99315492D01*
X160240461Y-99315491D01*
X160240460Y-99315489D01*
X158434511Y-97509540D01*
X158402483Y-97491049D01*
X158384837Y-97480861D01*
X158365990Y-97469979D01*
X158365985Y-97469977D01*
X158289564Y-97449500D01*
X158289562Y-97449500D01*
X154765820Y-97449500D01*
X154738659Y-97444335D01*
X154685334Y-97423294D01*
X154607597Y-97392620D01*
X154220042Y-97239697D01*
X154220030Y-97239694D01*
X154203089Y-97236534D01*
X154188342Y-97232157D01*
X154146123Y-97214670D01*
X154143709Y-97213670D01*
X154143708Y-97213669D01*
X154143706Y-97213669D01*
X154025681Y-97198131D01*
X154000000Y-97194750D01*
X153999999Y-97194750D01*
X153905450Y-97207197D01*
X153850743Y-97192538D01*
X153822425Y-97143488D01*
X153837084Y-97088781D01*
X153843458Y-97081512D01*
X155102797Y-95822174D01*
X155155123Y-95800500D01*
X157539564Y-95800500D01*
X157539564Y-95800499D01*
X157615989Y-95780021D01*
X157684511Y-95740460D01*
X157740460Y-95684511D01*
X159240460Y-94184511D01*
X159267484Y-94137704D01*
X159280021Y-94115989D01*
X159300499Y-94039564D01*
X159300500Y-94039564D01*
X159300500Y-93249800D01*
X159322174Y-93197474D01*
X159329439Y-93191101D01*
X159392621Y-93142621D01*
X159480861Y-93027625D01*
X159536330Y-92893709D01*
X159555250Y-92750000D01*
X159536330Y-92606291D01*
X159480861Y-92472375D01*
X159392621Y-92357379D01*
X159277625Y-92269139D01*
X159277623Y-92269138D01*
X159143708Y-92213669D01*
X159000000Y-92194750D01*
X158856291Y-92213669D01*
X158722376Y-92269138D01*
X158607379Y-92357379D01*
X158519138Y-92472376D01*
X158463669Y-92606291D01*
X158448367Y-92722527D01*
X158435114Y-92745479D01*
X158448367Y-92777472D01*
X158463669Y-92893708D01*
X158512587Y-93011808D01*
X158519139Y-93027625D01*
X158607379Y-93142621D01*
X158670549Y-93191093D01*
X158698867Y-93240140D01*
X158699500Y-93249800D01*
X158699500Y-93844877D01*
X158677826Y-93897203D01*
X158418495Y-94156533D01*
X158366169Y-94178207D01*
X158313843Y-94156533D01*
X158292169Y-94104207D01*
X158292802Y-94094548D01*
X158295616Y-94073174D01*
X158305250Y-94000000D01*
X158286330Y-93856291D01*
X158230861Y-93722375D01*
X158142621Y-93607379D01*
X158027625Y-93519139D01*
X158013490Y-93513284D01*
X157893708Y-93463669D01*
X157857160Y-93458858D01*
X157808111Y-93430539D01*
X157793452Y-93375832D01*
X157821771Y-93326783D01*
X157837346Y-93317613D01*
X157955247Y-93266431D01*
X157969462Y-93256683D01*
X157982993Y-93249347D01*
X158005222Y-93240140D01*
X158027625Y-93230861D01*
X158142621Y-93142621D01*
X158230861Y-93027625D01*
X158286330Y-92893709D01*
X158301633Y-92777471D01*
X158314885Y-92754519D01*
X158301633Y-92722527D01*
X158286330Y-92606291D01*
X158261111Y-92545407D01*
X158230861Y-92472375D01*
X158142621Y-92357379D01*
X158027625Y-92269139D01*
X158027623Y-92269138D01*
X157893708Y-92213669D01*
X157750000Y-92194750D01*
X157606291Y-92213669D01*
X157472376Y-92269138D01*
X157357379Y-92357379D01*
X157269139Y-92472373D01*
X157250499Y-92517374D01*
X157242958Y-92531199D01*
X157233570Y-92544748D01*
X157233567Y-92544753D01*
X157182387Y-92662646D01*
X157141669Y-92702013D01*
X157085040Y-92701057D01*
X157045673Y-92660339D01*
X157041141Y-92642836D01*
X157039979Y-92634012D01*
X157036330Y-92606291D01*
X156980861Y-92472375D01*
X156892621Y-92357379D01*
X156777625Y-92269139D01*
X156777623Y-92269138D01*
X156643708Y-92213669D01*
X156500000Y-92194750D01*
X156356291Y-92213669D01*
X156222376Y-92269138D01*
X156107379Y-92357379D01*
X156019139Y-92472373D01*
X156000499Y-92517374D01*
X155992958Y-92531199D01*
X155983570Y-92544748D01*
X155983567Y-92544753D01*
X155932387Y-92662646D01*
X155891669Y-92702013D01*
X155835040Y-92701057D01*
X155795673Y-92660339D01*
X155791141Y-92642836D01*
X155789979Y-92634012D01*
X155786330Y-92606291D01*
X155730861Y-92472375D01*
X155642621Y-92357379D01*
X155592692Y-92319066D01*
X155527625Y-92269138D01*
X155482626Y-92250499D01*
X155468802Y-92242960D01*
X155459774Y-92236705D01*
X155455248Y-92233569D01*
X155455246Y-92233568D01*
X154943824Y-92011549D01*
X154920966Y-91995995D01*
X154709511Y-91784540D01*
X154688440Y-91772375D01*
X154640990Y-91744979D01*
X154640985Y-91744977D01*
X154564564Y-91724500D01*
X154564562Y-91724500D01*
X152445488Y-91724500D01*
X152445486Y-91724500D01*
X152369064Y-91744977D01*
X152369059Y-91744979D01*
X152321610Y-91772375D01*
X152300538Y-91784540D01*
X151759540Y-92325538D01*
X151719979Y-92394059D01*
X151719977Y-92394064D01*
X151699500Y-92470485D01*
X151699500Y-93844877D01*
X151677826Y-93897203D01*
X149397203Y-96177826D01*
X149344877Y-96199500D01*
X146174801Y-96199500D01*
X146122475Y-96177826D01*
X146116093Y-96170548D01*
X146067625Y-96107384D01*
X146067623Y-96107381D01*
X146067621Y-96107380D01*
X146067621Y-96107379D01*
X145952625Y-96019139D01*
X145952623Y-96019138D01*
X145818708Y-95963669D01*
X145675000Y-95944750D01*
X145531291Y-95963669D01*
X145397376Y-96019138D01*
X145282376Y-96107381D01*
X145282374Y-96107384D01*
X145233907Y-96170548D01*
X145184858Y-96198867D01*
X145175199Y-96199500D01*
X142674801Y-96199500D01*
X142622475Y-96177826D01*
X142616093Y-96170548D01*
X142567625Y-96107384D01*
X142567623Y-96107381D01*
X142567621Y-96107380D01*
X142567621Y-96107379D01*
X142452625Y-96019139D01*
X142452623Y-96019138D01*
X142318708Y-95963669D01*
X142175000Y-95944750D01*
X142031291Y-95963669D01*
X141897376Y-96019138D01*
X141782376Y-96107381D01*
X141782374Y-96107384D01*
X141733907Y-96170548D01*
X141684858Y-96198867D01*
X141675199Y-96199500D01*
X139173801Y-96199500D01*
X139121475Y-96177826D01*
X139115093Y-96170548D01*
X139066625Y-96107384D01*
X139066623Y-96107381D01*
X139066621Y-96107380D01*
X139066621Y-96107379D01*
X138951625Y-96019139D01*
X138951623Y-96019138D01*
X138817708Y-95963669D01*
X138674000Y-95944750D01*
X138530291Y-95963669D01*
X138396376Y-96019138D01*
X138281376Y-96107381D01*
X138281374Y-96107384D01*
X138232907Y-96170548D01*
X138183858Y-96198867D01*
X138174199Y-96199500D01*
X135940121Y-96199500D01*
X135913154Y-96194412D01*
X135910657Y-96193435D01*
X135394479Y-95991442D01*
X135394474Y-95991441D01*
X135394471Y-95991440D01*
X135377749Y-95988358D01*
X135362845Y-95983951D01*
X135318708Y-95965669D01*
X135175000Y-95946750D01*
X135031291Y-95965669D01*
X134897376Y-96021138D01*
X134782379Y-96109379D01*
X134694138Y-96224376D01*
X134638669Y-96358291D01*
X134619750Y-96502000D01*
X122236250Y-96502000D01*
X122226359Y-96497903D01*
X122214819Y-96491884D01*
X122197640Y-96480901D01*
X121650144Y-96266962D01*
X121630850Y-96255821D01*
X119577817Y-94613395D01*
X119550677Y-94565270D01*
X119547217Y-94538991D01*
X119536330Y-94456291D01*
X119480861Y-94322375D01*
X119392621Y-94207379D01*
X119277625Y-94119139D01*
X119277623Y-94119138D01*
X119143708Y-94063669D01*
X119000000Y-94044750D01*
X118856291Y-94063669D01*
X118722376Y-94119138D01*
X118607379Y-94207379D01*
X118519138Y-94322376D01*
X118463669Y-94456291D01*
X118444750Y-94600000D01*
X117145682Y-94600000D01*
X117745682Y-94000000D01*
X133944750Y-94000000D01*
X133963669Y-94143708D01*
X134019138Y-94277623D01*
X134019139Y-94277625D01*
X134107379Y-94392621D01*
X134222375Y-94480861D01*
X134356291Y-94536330D01*
X134500000Y-94555250D01*
X134643709Y-94536330D01*
X134676661Y-94522680D01*
X134697531Y-94517424D01*
X134704255Y-94516744D01*
X135109553Y-94392620D01*
X135236494Y-94353744D01*
X135258163Y-94350500D01*
X137563565Y-94350500D01*
X137615891Y-94372174D01*
X137622272Y-94379450D01*
X137632377Y-94392618D01*
X137632376Y-94392618D01*
X137632377Y-94392619D01*
X137632379Y-94392621D01*
X137747375Y-94480861D01*
X137881291Y-94536330D01*
X138025000Y-94555250D01*
X138168709Y-94536330D01*
X138302625Y-94480861D01*
X138417621Y-94392621D01*
X138421939Y-94386992D01*
X138427728Y-94379450D01*
X138476778Y-94351133D01*
X138486435Y-94350500D01*
X141038565Y-94350500D01*
X141090891Y-94372174D01*
X141097272Y-94379450D01*
X141107377Y-94392618D01*
X141107376Y-94392618D01*
X141107377Y-94392619D01*
X141107379Y-94392621D01*
X141222375Y-94480861D01*
X141356291Y-94536330D01*
X141500000Y-94555250D01*
X141643709Y-94536330D01*
X141777625Y-94480861D01*
X141892621Y-94392621D01*
X141896939Y-94386992D01*
X141902728Y-94379450D01*
X141951778Y-94351133D01*
X141961435Y-94350500D01*
X142741837Y-94350500D01*
X142763506Y-94353744D01*
X143295736Y-94516742D01*
X143295738Y-94516742D01*
X143295744Y-94516744D01*
X143304932Y-94517901D01*
X143323996Y-94522953D01*
X143356291Y-94536330D01*
X143500000Y-94555250D01*
X143643709Y-94536330D01*
X143777625Y-94480861D01*
X143892621Y-94392621D01*
X143980861Y-94277625D01*
X144036330Y-94143709D01*
X144055250Y-94000000D01*
X144036330Y-93856291D01*
X143980861Y-93722375D01*
X143892621Y-93607379D01*
X143777625Y-93519139D01*
X143763490Y-93513284D01*
X143643708Y-93463669D01*
X143500000Y-93444750D01*
X143356293Y-93463669D01*
X143356292Y-93463669D01*
X143323338Y-93477318D01*
X143302481Y-93482572D01*
X143295747Y-93483254D01*
X143295741Y-93483255D01*
X142763503Y-93646256D01*
X142741834Y-93649500D01*
X141961435Y-93649500D01*
X141909109Y-93627826D01*
X141902728Y-93620550D01*
X141898372Y-93614874D01*
X141892621Y-93607379D01*
X141777625Y-93519139D01*
X141763490Y-93513284D01*
X141643708Y-93463669D01*
X141500000Y-93444750D01*
X141356291Y-93463669D01*
X141222376Y-93519138D01*
X141107376Y-93607381D01*
X141097272Y-93620550D01*
X141048222Y-93648867D01*
X141038565Y-93649500D01*
X138486435Y-93649500D01*
X138434109Y-93627826D01*
X138427728Y-93620550D01*
X138423372Y-93614874D01*
X138417621Y-93607379D01*
X138302625Y-93519139D01*
X138288490Y-93513284D01*
X138168708Y-93463669D01*
X138025000Y-93444750D01*
X137881291Y-93463669D01*
X137747376Y-93519138D01*
X137632376Y-93607381D01*
X137622272Y-93620550D01*
X137573222Y-93648867D01*
X137563565Y-93649500D01*
X135258165Y-93649500D01*
X135236496Y-93646256D01*
X134704260Y-93483256D01*
X134704246Y-93483253D01*
X134695062Y-93482096D01*
X134676002Y-93477046D01*
X134643709Y-93463670D01*
X134643705Y-93463669D01*
X134643704Y-93463669D01*
X134500000Y-93444750D01*
X134356291Y-93463669D01*
X134222376Y-93519138D01*
X134107379Y-93607379D01*
X134019138Y-93722376D01*
X133963669Y-93856291D01*
X133944750Y-94000000D01*
X117745682Y-94000000D01*
X117980469Y-93765213D01*
X118026614Y-93685288D01*
X118028152Y-93679546D01*
X118030817Y-93669604D01*
X118047489Y-93607381D01*
X118050500Y-93596144D01*
X118050500Y-92808164D01*
X118053744Y-92786495D01*
X118079617Y-92702013D01*
X118107488Y-92611007D01*
X118479500Y-92611007D01*
X118479500Y-92748993D01*
X118486960Y-92786495D01*
X118506418Y-92884322D01*
X118506421Y-92884332D01*
X118559223Y-93011808D01*
X118634277Y-93124135D01*
X118635886Y-93126542D01*
X118733458Y-93224114D01*
X118848189Y-93300775D01*
X118848190Y-93300775D01*
X118848191Y-93300776D01*
X118864330Y-93307461D01*
X118975672Y-93353580D01*
X119111007Y-93380500D01*
X119111009Y-93380500D01*
X120048991Y-93380500D01*
X120048993Y-93380500D01*
X120184328Y-93353580D01*
X120311811Y-93300775D01*
X120426542Y-93224114D01*
X120524114Y-93126542D01*
X120600775Y-93011811D01*
X120653580Y-92884328D01*
X120680500Y-92748993D01*
X120680500Y-92611007D01*
X120653580Y-92475672D01*
X120651433Y-92470488D01*
X120600776Y-92348191D01*
X120600096Y-92347174D01*
X120524114Y-92233458D01*
X120426542Y-92135886D01*
X120311811Y-92059225D01*
X120311810Y-92059224D01*
X120311808Y-92059223D01*
X120184332Y-92006421D01*
X120184322Y-92006418D01*
X120093694Y-91988391D01*
X120048993Y-91979500D01*
X119111007Y-91979500D01*
X119072642Y-91987131D01*
X118975677Y-92006418D01*
X118975667Y-92006421D01*
X118848191Y-92059223D01*
X118733461Y-92135883D01*
X118635883Y-92233461D01*
X118559223Y-92348191D01*
X118506421Y-92475667D01*
X118506418Y-92475677D01*
X118492547Y-92545416D01*
X118479500Y-92611007D01*
X118107488Y-92611007D01*
X118216744Y-92254255D01*
X118217901Y-92245070D01*
X118222954Y-92225999D01*
X118236330Y-92193709D01*
X118236538Y-92192132D01*
X118255250Y-92050000D01*
X118236330Y-91906291D01*
X118180861Y-91772375D01*
X118092621Y-91657379D01*
X117977625Y-91569139D01*
X117977623Y-91569138D01*
X117843708Y-91513669D01*
X117700000Y-91494750D01*
X117556291Y-91513669D01*
X117422376Y-91569138D01*
X117307379Y-91657379D01*
X117219139Y-91772375D01*
X117163669Y-91906291D01*
X117144750Y-92050000D01*
X117163669Y-92193706D01*
X117177317Y-92226657D01*
X117182572Y-92247518D01*
X117183253Y-92254252D01*
X117183254Y-92254255D01*
X117272423Y-92545412D01*
X117326665Y-92722527D01*
X117346256Y-92786494D01*
X117349500Y-92808164D01*
X117349500Y-93374166D01*
X117327826Y-93426492D01*
X115469530Y-95284787D01*
X115451805Y-95315489D01*
X115423386Y-95364710D01*
X115423384Y-95364715D01*
X115399500Y-95453853D01*
X114300500Y-95453853D01*
X114300500Y-93167867D01*
X114322174Y-93115541D01*
X114374500Y-93093867D01*
X114426826Y-93115541D01*
X114433556Y-93123743D01*
X114433576Y-93123727D01*
X114435883Y-93126538D01*
X114435886Y-93126542D01*
X114533458Y-93224114D01*
X114648189Y-93300775D01*
X114648190Y-93300775D01*
X114648191Y-93300776D01*
X114664330Y-93307461D01*
X114775672Y-93353580D01*
X114911007Y-93380500D01*
X114911009Y-93380500D01*
X116248991Y-93380500D01*
X116248993Y-93380500D01*
X116384328Y-93353580D01*
X116511811Y-93300775D01*
X116626542Y-93224114D01*
X116724114Y-93126542D01*
X116800775Y-93011811D01*
X116853580Y-92884328D01*
X116880500Y-92748993D01*
X116880500Y-92611007D01*
X116853580Y-92475672D01*
X116851433Y-92470488D01*
X116800776Y-92348191D01*
X116800096Y-92347174D01*
X116724114Y-92233458D01*
X116626542Y-92135886D01*
X116511811Y-92059225D01*
X116511810Y-92059224D01*
X116511808Y-92059223D01*
X116384332Y-92006421D01*
X116384322Y-92006418D01*
X116293694Y-91988391D01*
X116248993Y-91979500D01*
X114911007Y-91979500D01*
X114872642Y-91987131D01*
X114775677Y-92006418D01*
X114775667Y-92006421D01*
X114648191Y-92059223D01*
X114533461Y-92135883D01*
X114435884Y-92233460D01*
X114433576Y-92236273D01*
X114432643Y-92235507D01*
X114388935Y-92264710D01*
X114333386Y-92253660D01*
X114301922Y-92206567D01*
X114300500Y-92192132D01*
X114300500Y-90500000D01*
X148694750Y-90500000D01*
X148713669Y-90643708D01*
X148769138Y-90777623D01*
X148769139Y-90777625D01*
X148857379Y-90892621D01*
X148972375Y-90980861D01*
X149106291Y-91036330D01*
X149250000Y-91055250D01*
X149393709Y-91036330D01*
X149527625Y-90980861D01*
X149612425Y-90915791D01*
X149657472Y-90900500D01*
X158803455Y-90900500D01*
X158855781Y-90922174D01*
X160777826Y-92844219D01*
X160799500Y-92896545D01*
X160799500Y-101496953D01*
X160797803Y-101512710D01*
X160677930Y-102062773D01*
X160677544Y-102065541D01*
X160677049Y-102065471D01*
X160672545Y-102084863D01*
X160663669Y-102106291D01*
X160644750Y-102250000D01*
X160663669Y-102393708D01*
X160696254Y-102472375D01*
X160719139Y-102527625D01*
X160807379Y-102642621D01*
X160922375Y-102730861D01*
X161056291Y-102786330D01*
X161200000Y-102805250D01*
X161343709Y-102786330D01*
X161477625Y-102730861D01*
X161592621Y-102642621D01*
X161680861Y-102527625D01*
X161736330Y-102393709D01*
X161755250Y-102250000D01*
X161736330Y-102106291D01*
X161727483Y-102084934D01*
X161722351Y-102065199D01*
X161722067Y-102062766D01*
X161602233Y-101512872D01*
X161602759Y-101512757D01*
X161600500Y-101496993D01*
X161600500Y-98815363D01*
X168060000Y-98815363D01*
X168060000Y-99415000D01*
X168772328Y-99415000D01*
X168760000Y-99461009D01*
X168760000Y-99618991D01*
X168772328Y-99665000D01*
X168060001Y-99665000D01*
X168060001Y-100264635D01*
X168062855Y-100300916D01*
X168107968Y-100456196D01*
X168190280Y-100595377D01*
X168304622Y-100709719D01*
X168443803Y-100792031D01*
X168599085Y-100837144D01*
X168599082Y-100837144D01*
X168635363Y-100839999D01*
X169235000Y-100839999D01*
X169235000Y-100127671D01*
X169281009Y-100140000D01*
X169438991Y-100140000D01*
X169485000Y-100127671D01*
X169485000Y-100839999D01*
X170084636Y-100839999D01*
X170120916Y-100837144D01*
X170276196Y-100792031D01*
X170415377Y-100709719D01*
X170529719Y-100595377D01*
X170612031Y-100456196D01*
X170657144Y-100300916D01*
X170660000Y-100264636D01*
X170660000Y-99665000D01*
X169947672Y-99665000D01*
X169960000Y-99618991D01*
X169960000Y-99461009D01*
X169947672Y-99415000D01*
X170659999Y-99415000D01*
X170659999Y-98815364D01*
X170657144Y-98779083D01*
X170612031Y-98623803D01*
X170529719Y-98484622D01*
X170415377Y-98370280D01*
X170276196Y-98287968D01*
X170120914Y-98242855D01*
X170120917Y-98242855D01*
X170084636Y-98240000D01*
X169485000Y-98240000D01*
X169485000Y-98952328D01*
X169438991Y-98940000D01*
X169281009Y-98940000D01*
X169235000Y-98952328D01*
X169235000Y-98240000D01*
X168635364Y-98240000D01*
X168599083Y-98242855D01*
X168443803Y-98287968D01*
X168304622Y-98370280D01*
X168190280Y-98484622D01*
X168107968Y-98623803D01*
X168062855Y-98779083D01*
X168060000Y-98815363D01*
X161600500Y-98815363D01*
X161600500Y-96999996D01*
X170444529Y-96999996D01*
X170444529Y-97000003D01*
X170464378Y-97239556D01*
X170464378Y-97239557D01*
X170474018Y-97277623D01*
X170523335Y-97472375D01*
X170523392Y-97472597D01*
X170543940Y-97519441D01*
X170619951Y-97692728D01*
X170751429Y-97893969D01*
X170914236Y-98070825D01*
X171103933Y-98218472D01*
X171315344Y-98332882D01*
X171542703Y-98410934D01*
X171779808Y-98450500D01*
X172020192Y-98450500D01*
X172257297Y-98410934D01*
X172484656Y-98332882D01*
X172696067Y-98218472D01*
X172885764Y-98070825D01*
X173048571Y-97893969D01*
X173180049Y-97692728D01*
X173276610Y-97472591D01*
X173335620Y-97239563D01*
X173335620Y-97239559D01*
X173335621Y-97239557D01*
X173335621Y-97239556D01*
X173355471Y-97000003D01*
X173355471Y-96999996D01*
X173335621Y-96760443D01*
X173335621Y-96760442D01*
X173330561Y-96740459D01*
X173276610Y-96527409D01*
X173180049Y-96307272D01*
X173048571Y-96106031D01*
X172885764Y-95929175D01*
X172696067Y-95781528D01*
X172567648Y-95712031D01*
X172484655Y-95667117D01*
X172257295Y-95589065D01*
X172020194Y-95549500D01*
X172020192Y-95549500D01*
X171779808Y-95549500D01*
X171779805Y-95549500D01*
X171542704Y-95589065D01*
X171315344Y-95667117D01*
X171103940Y-95781524D01*
X171103928Y-95781531D01*
X170914234Y-95929176D01*
X170751427Y-96106033D01*
X170619951Y-96307271D01*
X170523392Y-96527402D01*
X170464378Y-96760442D01*
X170464378Y-96760443D01*
X170444529Y-96999996D01*
X161600500Y-96999996D01*
X161600500Y-93735363D01*
X168060000Y-93735363D01*
X168060000Y-94335000D01*
X168772328Y-94335000D01*
X168760000Y-94381009D01*
X168760000Y-94538991D01*
X168772328Y-94585000D01*
X168060001Y-94585000D01*
X168060001Y-95184635D01*
X168062855Y-95220916D01*
X168107968Y-95376196D01*
X168190280Y-95515377D01*
X168304622Y-95629719D01*
X168443803Y-95712031D01*
X168599085Y-95757144D01*
X168599082Y-95757144D01*
X168635363Y-95759999D01*
X169235000Y-95759999D01*
X169235000Y-95047671D01*
X169281009Y-95060000D01*
X169438991Y-95060000D01*
X169485000Y-95047671D01*
X169485000Y-95759999D01*
X170084636Y-95759999D01*
X170120916Y-95757144D01*
X170276196Y-95712031D01*
X170415377Y-95629719D01*
X170529719Y-95515377D01*
X170612031Y-95376196D01*
X170657144Y-95220916D01*
X170660000Y-95184636D01*
X170660000Y-94585000D01*
X169947672Y-94585000D01*
X169960000Y-94538991D01*
X169960000Y-94381009D01*
X169947672Y-94335000D01*
X170659999Y-94335000D01*
X170659999Y-93735364D01*
X170657144Y-93699083D01*
X170612031Y-93543803D01*
X170529719Y-93404622D01*
X170415377Y-93290280D01*
X170276196Y-93207968D01*
X170120914Y-93162855D01*
X170120917Y-93162855D01*
X170084636Y-93160000D01*
X169485000Y-93160000D01*
X169485000Y-93872328D01*
X169438991Y-93860000D01*
X169281009Y-93860000D01*
X169235000Y-93872328D01*
X169235000Y-93160000D01*
X168635364Y-93160000D01*
X168599083Y-93162855D01*
X168443803Y-93207968D01*
X168304622Y-93290280D01*
X168190280Y-93404622D01*
X168107968Y-93543803D01*
X168062855Y-93699083D01*
X168060000Y-93735363D01*
X161600500Y-93735363D01*
X161600500Y-92647272D01*
X161600499Y-92647270D01*
X161596947Y-92634010D01*
X161596947Y-92634009D01*
X161573208Y-92545416D01*
X161573207Y-92545412D01*
X161532942Y-92475672D01*
X161520482Y-92454090D01*
X161520481Y-92454089D01*
X161520480Y-92454087D01*
X159245913Y-90179520D01*
X159245910Y-90179518D01*
X159245909Y-90179517D01*
X159154592Y-90126795D01*
X159154588Y-90126793D01*
X159082132Y-90107379D01*
X159052727Y-90099500D01*
X159052726Y-90099500D01*
X149657472Y-90099500D01*
X149612425Y-90084208D01*
X149527625Y-90019139D01*
X149527623Y-90019138D01*
X149393708Y-89963669D01*
X149250000Y-89944750D01*
X149106291Y-89963669D01*
X148972376Y-90019138D01*
X148857379Y-90107379D01*
X148769138Y-90222376D01*
X148713669Y-90356291D01*
X148694750Y-90500000D01*
X114300500Y-90500000D01*
X114300500Y-87528004D01*
X131394966Y-87528004D01*
X131398342Y-87546860D01*
X131399500Y-87559902D01*
X131399500Y-89579059D01*
X131440421Y-89731779D01*
X131440422Y-89731781D01*
X131440423Y-89731784D01*
X131519480Y-89868716D01*
X131631284Y-89980520D01*
X131768216Y-90059577D01*
X131920940Y-90100499D01*
X131920941Y-90100500D01*
X131920943Y-90100500D01*
X132079059Y-90100500D01*
X132079059Y-90100499D01*
X132231784Y-90059577D01*
X132368716Y-89980520D01*
X132480520Y-89868716D01*
X132559577Y-89731784D01*
X132600499Y-89579059D01*
X132600500Y-89579059D01*
X132600500Y-88064469D01*
X132622174Y-88012143D01*
X132661457Y-87991627D01*
X169588447Y-81380657D01*
X169643773Y-81392771D01*
X169665571Y-81416497D01*
X169691038Y-81460606D01*
X169691041Y-81460612D01*
X169691047Y-81460620D01*
X169849942Y-81659868D01*
X169849949Y-81659876D01*
X169849950Y-81659877D01*
X170036783Y-81833232D01*
X170247366Y-81976805D01*
X170476996Y-82087389D01*
X170623751Y-82132657D01*
X170720541Y-82162513D01*
X170720540Y-82162513D01*
X170969241Y-82199999D01*
X170972565Y-82200500D01*
X170972567Y-82200500D01*
X171227433Y-82200500D01*
X171227435Y-82200500D01*
X171479458Y-82162513D01*
X171723004Y-82087389D01*
X171952634Y-81976805D01*
X172163217Y-81833232D01*
X172350050Y-81659877D01*
X172508959Y-81460612D01*
X172636393Y-81239888D01*
X172729508Y-81002637D01*
X172786222Y-80754157D01*
X172805268Y-80500000D01*
X172786222Y-80245843D01*
X172729508Y-79997363D01*
X172636393Y-79760112D01*
X172508959Y-79539388D01*
X172508958Y-79539386D01*
X172508955Y-79539382D01*
X172350057Y-79340131D01*
X172350048Y-79340121D01*
X172326491Y-79318263D01*
X172163217Y-79166768D01*
X171952634Y-79023195D01*
X171832857Y-78965513D01*
X171723009Y-78912613D01*
X171723005Y-78912611D01*
X171723004Y-78912611D01*
X171722999Y-78912609D01*
X171722995Y-78912608D01*
X171479458Y-78837486D01*
X171479459Y-78837486D01*
X171227441Y-78799500D01*
X171227435Y-78799500D01*
X170972565Y-78799500D01*
X170972558Y-78799500D01*
X170720541Y-78837486D01*
X170477004Y-78912608D01*
X170476990Y-78912613D01*
X170247368Y-79023194D01*
X170247366Y-79023195D01*
X170191312Y-79061412D01*
X170036782Y-79166769D01*
X169849951Y-79340121D01*
X169849942Y-79340131D01*
X169691044Y-79539382D01*
X169691037Y-79539393D01*
X169563606Y-79760113D01*
X169470492Y-79997362D01*
X169470491Y-79997366D01*
X169437526Y-80141788D01*
X169404752Y-80187978D01*
X169378423Y-80198162D01*
X131953139Y-86898342D01*
X131940098Y-86899500D01*
X131920943Y-86899500D01*
X131872167Y-86912568D01*
X131866059Y-86913931D01*
X131816353Y-86922830D01*
X131799012Y-86930972D01*
X131786721Y-86935464D01*
X131768216Y-86940422D01*
X131724486Y-86965669D01*
X131718939Y-86968566D01*
X131673227Y-86990028D01*
X131658585Y-87002380D01*
X131647875Y-87009901D01*
X131631282Y-87019481D01*
X131595574Y-87055188D01*
X131590965Y-87059423D01*
X131552371Y-87091980D01*
X131552370Y-87091982D01*
X131541424Y-87107701D01*
X131533027Y-87117736D01*
X131519479Y-87131284D01*
X131519477Y-87131288D01*
X131494233Y-87175011D01*
X131490877Y-87180294D01*
X131462023Y-87221732D01*
X131455515Y-87239759D01*
X131450001Y-87251623D01*
X131440423Y-87268213D01*
X131427354Y-87316985D01*
X131425480Y-87322954D01*
X131408335Y-87370450D01*
X131408333Y-87370459D01*
X131406713Y-87389549D01*
X131404457Y-87402438D01*
X131399500Y-87420938D01*
X131399500Y-87471435D01*
X131399235Y-87477691D01*
X131394966Y-87528004D01*
X114300500Y-87528004D01*
X114300500Y-79434409D01*
X117200000Y-79434409D01*
X117200000Y-80375000D01*
X118312328Y-80375000D01*
X118300000Y-80421009D01*
X118300000Y-80578991D01*
X118312328Y-80625000D01*
X117200001Y-80625000D01*
X117200001Y-81565591D01*
X117206319Y-81635123D01*
X117206321Y-81635133D01*
X117256182Y-81795147D01*
X117342895Y-81938587D01*
X117461412Y-82057104D01*
X117604852Y-82143817D01*
X117764872Y-82193680D01*
X117764871Y-82193680D01*
X117834414Y-82199999D01*
X118775000Y-82199999D01*
X118775000Y-81087671D01*
X118821009Y-81100000D01*
X118978991Y-81100000D01*
X119025000Y-81087671D01*
X119025000Y-82199999D01*
X119965578Y-82199999D01*
X119965591Y-82199998D01*
X120035123Y-82193680D01*
X120035133Y-82193678D01*
X120195147Y-82143817D01*
X120338587Y-82057104D01*
X120457104Y-81938587D01*
X120543817Y-81795147D01*
X120593680Y-81635128D01*
X120599999Y-81565590D01*
X120600000Y-81565581D01*
X120600000Y-80625000D01*
X119487672Y-80625000D01*
X119500000Y-80578991D01*
X119500000Y-80421009D01*
X119487672Y-80375000D01*
X120599999Y-80375000D01*
X120599999Y-79434421D01*
X120599998Y-79434408D01*
X120593680Y-79364876D01*
X120593678Y-79364866D01*
X120543817Y-79204852D01*
X120457104Y-79061412D01*
X120338587Y-78942895D01*
X120195147Y-78856182D01*
X120035127Y-78806319D01*
X120035128Y-78806319D01*
X119965590Y-78800000D01*
X119025000Y-78800000D01*
X119025000Y-79912328D01*
X118978991Y-79900000D01*
X118821009Y-79900000D01*
X118775000Y-79912328D01*
X118775000Y-78800000D01*
X117834421Y-78800000D01*
X117834408Y-78800001D01*
X117764876Y-78806319D01*
X117764866Y-78806321D01*
X117604852Y-78856182D01*
X117461412Y-78942895D01*
X117342895Y-79061412D01*
X117256182Y-79204852D01*
X117206319Y-79364871D01*
X117200000Y-79434409D01*
X114300500Y-79434409D01*
X114300500Y-75002083D01*
X114300616Y-74997934D01*
X114306027Y-74901582D01*
X115749500Y-74901582D01*
X115749500Y-75098417D01*
X115780290Y-75292823D01*
X115780293Y-75292836D01*
X115841113Y-75480019D01*
X115841115Y-75480024D01*
X115841116Y-75480025D01*
X115930476Y-75655405D01*
X116046172Y-75814646D01*
X116185354Y-75953828D01*
X116344595Y-76069524D01*
X116519975Y-76158884D01*
X116519977Y-76158884D01*
X116519980Y-76158886D01*
X116707163Y-76219706D01*
X116707169Y-76219707D01*
X116707174Y-76219709D01*
X116836780Y-76240236D01*
X116901582Y-76250500D01*
X116901583Y-76250500D01*
X117098418Y-76250500D01*
X117147019Y-76242802D01*
X117292826Y-76219709D01*
X117292833Y-76219706D01*
X117292836Y-76219706D01*
X117480019Y-76158886D01*
X117480019Y-76158885D01*
X117480025Y-76158884D01*
X117655405Y-76069524D01*
X117814646Y-75953828D01*
X117953828Y-75814646D01*
X118069524Y-75655405D01*
X118158884Y-75480025D01*
X118219709Y-75292826D01*
X118250500Y-75098417D01*
X118250500Y-74901583D01*
X118250500Y-74901582D01*
X171749500Y-74901582D01*
X171749500Y-75098417D01*
X171780290Y-75292823D01*
X171780293Y-75292836D01*
X171841113Y-75480019D01*
X171841115Y-75480024D01*
X171841116Y-75480025D01*
X171930476Y-75655405D01*
X172046172Y-75814646D01*
X172185354Y-75953828D01*
X172344595Y-76069524D01*
X172519975Y-76158884D01*
X172519977Y-76158884D01*
X172519980Y-76158886D01*
X172707163Y-76219706D01*
X172707169Y-76219707D01*
X172707174Y-76219709D01*
X172836780Y-76240236D01*
X172901582Y-76250500D01*
X172901583Y-76250500D01*
X173098418Y-76250500D01*
X173147019Y-76242802D01*
X173292826Y-76219709D01*
X173292833Y-76219706D01*
X173292836Y-76219706D01*
X173480019Y-76158886D01*
X173480019Y-76158885D01*
X173480025Y-76158884D01*
X173655405Y-76069524D01*
X173814646Y-75953828D01*
X173953828Y-75814646D01*
X174069524Y-75655405D01*
X174158884Y-75480025D01*
X174219709Y-75292826D01*
X174250500Y-75098417D01*
X174250500Y-74901583D01*
X174219709Y-74707174D01*
X174219707Y-74707169D01*
X174219706Y-74707163D01*
X174158886Y-74519980D01*
X174158884Y-74519977D01*
X174158884Y-74519975D01*
X174069524Y-74344595D01*
X173953828Y-74185354D01*
X173814646Y-74046172D01*
X173814643Y-74046169D01*
X173814641Y-74046168D01*
X173655404Y-73930475D01*
X173480019Y-73841113D01*
X173292836Y-73780293D01*
X173292823Y-73780290D01*
X173098418Y-73749500D01*
X173098417Y-73749500D01*
X172901583Y-73749500D01*
X172901582Y-73749500D01*
X172707176Y-73780290D01*
X172707163Y-73780293D01*
X172519980Y-73841113D01*
X172344595Y-73930475D01*
X172185358Y-74046168D01*
X172046168Y-74185358D01*
X171930475Y-74344595D01*
X171841113Y-74519980D01*
X171780293Y-74707163D01*
X171780290Y-74707176D01*
X171749500Y-74901582D01*
X118250500Y-74901582D01*
X118219709Y-74707174D01*
X118219707Y-74707169D01*
X118219706Y-74707163D01*
X118158886Y-74519980D01*
X118158884Y-74519977D01*
X118158884Y-74519975D01*
X118069524Y-74344595D01*
X117953828Y-74185354D01*
X117814646Y-74046172D01*
X117814643Y-74046169D01*
X117814641Y-74046168D01*
X117655404Y-73930475D01*
X117480019Y-73841113D01*
X117292836Y-73780293D01*
X117292823Y-73780290D01*
X117098418Y-73749500D01*
X117098417Y-73749500D01*
X116901583Y-73749500D01*
X116901582Y-73749500D01*
X116707176Y-73780290D01*
X116707163Y-73780293D01*
X116519980Y-73841113D01*
X116344595Y-73930475D01*
X116185358Y-74046168D01*
X116046168Y-74185358D01*
X115930475Y-74344595D01*
X115841113Y-74519980D01*
X115780293Y-74707163D01*
X115780290Y-74707176D01*
X115749500Y-74901582D01*
X114306027Y-74901582D01*
X114310214Y-74827028D01*
X114317241Y-74701885D01*
X114318171Y-74693647D01*
X114367487Y-74403392D01*
X114369326Y-74395332D01*
X114450841Y-74112389D01*
X114453571Y-74104586D01*
X114566246Y-73832564D01*
X114569840Y-73825102D01*
X114712268Y-73567397D01*
X114716665Y-73560399D01*
X114887044Y-73320273D01*
X114892202Y-73313804D01*
X115088408Y-73094249D01*
X115094249Y-73088408D01*
X115313804Y-72892202D01*
X115320273Y-72887044D01*
X115560399Y-72716665D01*
X115567397Y-72712268D01*
X115825102Y-72569840D01*
X115832564Y-72566246D01*
X116104586Y-72453571D01*
X116112389Y-72450841D01*
X116395332Y-72369326D01*
X116403392Y-72367487D01*
X116693655Y-72318170D01*
X116701885Y-72317241D01*
X116997934Y-72300615D01*
X117002083Y-72300500D01*
X117047595Y-72300500D01*
X121452405Y-72300500D01*
X121494176Y-72300500D01*
X121505751Y-72301411D01*
G37*
%TD.AperFunction*%
%TD*%
%TA.AperFunction,Conductor*%
%TO.N,SWO*%
G36*
X154321701Y-100370446D02*
G01*
X154327927Y-100376585D01*
X154562514Y-100916960D01*
X154562665Y-100925913D01*
X154560055Y-100929892D01*
X154429892Y-101060055D01*
X154421619Y-101063482D01*
X154416960Y-101062514D01*
X154059037Y-100907132D01*
X153876584Y-100827926D01*
X153870361Y-100821489D01*
X153870422Y-100812748D01*
X153997437Y-100503806D01*
X154003748Y-100497461D01*
X154312748Y-100370423D01*
X154321701Y-100370446D01*
G37*
%TD.AperFunction*%
%TD*%
%TA.AperFunction,Conductor*%
%TO.N,I2C2-SCL*%
G36*
X147017595Y-97647078D02*
G01*
X147024032Y-97653301D01*
X147025000Y-97657960D01*
X147025000Y-97842039D01*
X147021573Y-97850312D01*
X147017594Y-97852922D01*
X146469612Y-98069146D01*
X146460659Y-98068995D01*
X146454520Y-98062769D01*
X146366950Y-97852922D01*
X146325879Y-97754505D01*
X146325857Y-97745551D01*
X146325880Y-97745494D01*
X146454520Y-97437229D01*
X146460869Y-97430915D01*
X146469611Y-97430853D01*
X147017595Y-97647078D01*
G37*
%TD.AperFunction*%
%TD*%
%TA.AperFunction,Conductor*%
%TO.N,I2C2-SCL*%
G36*
X140017595Y-97647078D02*
G01*
X140024032Y-97653301D01*
X140025000Y-97657960D01*
X140025000Y-97842039D01*
X140021573Y-97850312D01*
X140017594Y-97852922D01*
X139469612Y-98069146D01*
X139460659Y-98068995D01*
X139454520Y-98062769D01*
X139366950Y-97852922D01*
X139325879Y-97754505D01*
X139325857Y-97745551D01*
X139325880Y-97745494D01*
X139454520Y-97437229D01*
X139460869Y-97430915D01*
X139469611Y-97430853D01*
X140017595Y-97647078D01*
G37*
%TD.AperFunction*%
%TD*%
%TA.AperFunction,Conductor*%
%TO.N,DISPLAY-BUSY*%
G36*
X157437251Y-93870422D02*
G01*
X157746191Y-93997436D01*
X157752540Y-94003751D01*
X157752563Y-94003808D01*
X157879576Y-94312746D01*
X157879553Y-94321701D01*
X157873414Y-94327927D01*
X157333039Y-94562514D01*
X157324086Y-94562665D01*
X157320107Y-94560055D01*
X157189944Y-94429892D01*
X157186517Y-94421619D01*
X157187485Y-94416960D01*
X157226136Y-94327927D01*
X157422074Y-93876582D01*
X157428510Y-93870361D01*
X157437251Y-93870422D01*
G37*
%TD.AperFunction*%
%TD*%
%TA.AperFunction,Conductor*%
%TO.N,VDD-Display*%
G36*
X148436449Y-108120092D02*
G01*
X148746191Y-108247436D01*
X148752540Y-108253751D01*
X148752563Y-108253808D01*
X148879906Y-108563549D01*
X148879883Y-108572504D01*
X148874573Y-108578331D01*
X148368734Y-108846981D01*
X148359820Y-108847835D01*
X148354973Y-108844921D01*
X148155078Y-108645026D01*
X148151651Y-108636753D01*
X148153016Y-108631269D01*
X148421668Y-108125425D01*
X148428575Y-108119727D01*
X148436449Y-108120092D01*
G37*
%TD.AperFunction*%
%TD*%
%TA.AperFunction,Conductor*%
%TO.N,VDD-SENSORS-EEPROM*%
G36*
X135191726Y-93847466D02*
G01*
X135198633Y-93853165D01*
X135200000Y-93858653D01*
X135200000Y-94141346D01*
X135196573Y-94149619D01*
X135191726Y-94152533D01*
X134644079Y-94320252D01*
X134635165Y-94319398D01*
X134629855Y-94313571D01*
X134500880Y-94004506D01*
X134500857Y-93995551D01*
X134500880Y-93995494D01*
X134561596Y-93850000D01*
X134629855Y-93686427D01*
X134636204Y-93680113D01*
X134644077Y-93679747D01*
X135191726Y-93847466D01*
G37*
%TD.AperFunction*%
%TD*%
%TA.AperFunction,Conductor*%
%TO.N,SPI2-SCK*%
G36*
X156187251Y-92620422D02*
G01*
X156496191Y-92747436D01*
X156502540Y-92753751D01*
X156502563Y-92753808D01*
X156629576Y-93062746D01*
X156629553Y-93071701D01*
X156623414Y-93077927D01*
X156083039Y-93312514D01*
X156074086Y-93312665D01*
X156070107Y-93310055D01*
X155939944Y-93179892D01*
X155936517Y-93171619D01*
X155937485Y-93166960D01*
X155976136Y-93077927D01*
X156172074Y-92626582D01*
X156178510Y-92620361D01*
X156187251Y-92620422D01*
G37*
%TD.AperFunction*%
%TD*%
%TA.AperFunction,Conductor*%
%TO.N,VBUS*%
G36*
X132942170Y-100122256D02*
G01*
X132948844Y-100128225D01*
X132950000Y-100133297D01*
X132950000Y-100366702D01*
X132946573Y-100374975D01*
X132942169Y-100377744D01*
X132394355Y-100569707D01*
X132385414Y-100569209D01*
X132379688Y-100563171D01*
X132250880Y-100254506D01*
X132250857Y-100245551D01*
X132250880Y-100245494D01*
X132297701Y-100133297D01*
X132379688Y-99936827D01*
X132386037Y-99930513D01*
X132394355Y-99930292D01*
X132942170Y-100122256D01*
G37*
%TD.AperFunction*%
%TD*%
%TA.AperFunction,Conductor*%
%TO.N,UART1-TX*%
G36*
X155571701Y-100370446D02*
G01*
X155577927Y-100376585D01*
X155812514Y-100916960D01*
X155812665Y-100925913D01*
X155810055Y-100929892D01*
X155679892Y-101060055D01*
X155671619Y-101063482D01*
X155666960Y-101062514D01*
X155309037Y-100907132D01*
X155126584Y-100827926D01*
X155120361Y-100821489D01*
X155120422Y-100812748D01*
X155247437Y-100503806D01*
X155253748Y-100497461D01*
X155562748Y-100370423D01*
X155571701Y-100370446D01*
G37*
%TD.AperFunction*%
%TD*%
%TA.AperFunction,Conductor*%
%TO.N,I2C2-SCL*%
G36*
X136516954Y-97622263D02*
G01*
X136523637Y-97628223D01*
X136524801Y-97633310D01*
X136524801Y-97866717D01*
X136521374Y-97874990D01*
X136516989Y-97877752D01*
X135969367Y-98070684D01*
X135960425Y-98070201D01*
X135954681Y-98064155D01*
X135875746Y-97875000D01*
X135825879Y-97755505D01*
X135825857Y-97746551D01*
X135825880Y-97746494D01*
X135954695Y-97437810D01*
X135961043Y-97431497D01*
X135969344Y-97431271D01*
X136516954Y-97622263D01*
G37*
%TD.AperFunction*%
%TD*%
%TA.AperFunction,Conductor*%
%TO.N,~{MCU-RESET}*%
G36*
X117704478Y-92050868D02*
G01*
X117918891Y-92140344D01*
X118013571Y-92179855D01*
X118019886Y-92186204D01*
X118020252Y-92194079D01*
X117852534Y-92741726D01*
X117846835Y-92748633D01*
X117841347Y-92750000D01*
X117558653Y-92750000D01*
X117550380Y-92746573D01*
X117547466Y-92741726D01*
X117379747Y-92194079D01*
X117380601Y-92185165D01*
X117386427Y-92179855D01*
X117695494Y-92050879D01*
X117704449Y-92050857D01*
X117704478Y-92050868D01*
G37*
%TD.AperFunction*%
%TD*%
%TA.AperFunction,Conductor*%
%TO.N,RST*%
G36*
X130614340Y-99931004D02*
G01*
X130620479Y-99937230D01*
X130749119Y-100245494D01*
X130749142Y-100254449D01*
X130749119Y-100254506D01*
X130620479Y-100562769D01*
X130614130Y-100569084D01*
X130605387Y-100569146D01*
X130057406Y-100352922D01*
X130050968Y-100346698D01*
X130050000Y-100342039D01*
X130050000Y-100157960D01*
X130053427Y-100149687D01*
X130057403Y-100147078D01*
X130605388Y-99930853D01*
X130614340Y-99931004D01*
G37*
%TD.AperFunction*%
%TD*%
%TA.AperFunction,Conductor*%
%TO.N,I2C2-SCL*%
G36*
X139189585Y-97430790D02*
G01*
X139195311Y-97436828D01*
X139324119Y-97745494D01*
X139324142Y-97754449D01*
X139324119Y-97754506D01*
X139195311Y-98063171D01*
X139188962Y-98069486D01*
X139180644Y-98069707D01*
X138632831Y-97877744D01*
X138626156Y-97871774D01*
X138625000Y-97866702D01*
X138625000Y-97633297D01*
X138628427Y-97625024D01*
X138632827Y-97622256D01*
X139180644Y-97430292D01*
X139189585Y-97430790D01*
G37*
%TD.AperFunction*%
%TD*%
%TA.AperFunction,Conductor*%
%TO.N,+5V*%
G36*
X121559375Y-96452126D02*
G01*
X122122848Y-96672308D01*
X122129307Y-96678511D01*
X122129488Y-96687464D01*
X122129412Y-96687654D01*
X122001677Y-96998439D01*
X121999105Y-97002288D01*
X121762450Y-97237605D01*
X121754167Y-97241008D01*
X121745903Y-97237558D01*
X121744564Y-97235944D01*
X121368881Y-96690414D01*
X121367011Y-96681657D01*
X121369380Y-96676470D01*
X121545985Y-96455714D01*
X121553827Y-96451397D01*
X121559375Y-96452126D01*
G37*
%TD.AperFunction*%
%TD*%
%TA.AperFunction,Conductor*%
%TO.N,VBUS*%
G36*
X148350888Y-101170233D02*
G01*
X148873992Y-101421857D01*
X148879962Y-101428532D01*
X148879741Y-101436850D01*
X148752563Y-101746191D01*
X148746248Y-101752540D01*
X148746191Y-101752563D01*
X148436850Y-101879741D01*
X148427895Y-101879718D01*
X148421857Y-101873992D01*
X148363436Y-101752540D01*
X148170233Y-101350889D01*
X148169736Y-101341950D01*
X148172503Y-101337548D01*
X148337547Y-101172504D01*
X148345819Y-101169078D01*
X148350888Y-101170233D01*
G37*
%TD.AperFunction*%
%TD*%
%TA.AperFunction,Conductor*%
%TO.N,~{WRITE-PROTECT}*%
G36*
X138671779Y-96416047D02*
G01*
X138674000Y-96422905D01*
X138674000Y-96589463D01*
X138670573Y-96597736D01*
X138663521Y-96601099D01*
X138394230Y-96629364D01*
X138385645Y-96626820D01*
X138381373Y-96618949D01*
X138383917Y-96610364D01*
X138386149Y-96608250D01*
X138655442Y-96413425D01*
X138664154Y-96411353D01*
X138671779Y-96416047D01*
G37*
%TD.AperFunction*%
%TD*%
%TA.AperFunction,Conductor*%
%TO.N,I2C2-SDA*%
G36*
X146839585Y-98680790D02*
G01*
X146845311Y-98686828D01*
X146974119Y-98995494D01*
X146974142Y-99004449D01*
X146974119Y-99004506D01*
X146845311Y-99313171D01*
X146838962Y-99319486D01*
X146830644Y-99319707D01*
X146282831Y-99127744D01*
X146276156Y-99121774D01*
X146275000Y-99116702D01*
X146275000Y-98883297D01*
X146278427Y-98875024D01*
X146282827Y-98872256D01*
X146830644Y-98680292D01*
X146839585Y-98680790D01*
G37*
%TD.AperFunction*%
%TD*%
%TA.AperFunction,Conductor*%
%TO.N,D+CONN*%
G36*
X118179892Y-97940391D02*
G01*
X118310055Y-98070554D01*
X118313482Y-98078827D01*
X118312514Y-98083486D01*
X118077927Y-98623861D01*
X118071489Y-98630085D01*
X118062746Y-98630023D01*
X117753808Y-98503010D01*
X117747460Y-98496696D01*
X117620423Y-98187698D01*
X117620446Y-98178745D01*
X117626582Y-98172521D01*
X118166960Y-97937931D01*
X118175913Y-97937781D01*
X118179892Y-97940391D01*
G37*
%TD.AperFunction*%
%TD*%
%TA.AperFunction,Conductor*%
%TO.N,~{WRITE-PROTECT}*%
G36*
X154833039Y-92187485D02*
G01*
X155373415Y-92422073D01*
X155379638Y-92428510D01*
X155379576Y-92437253D01*
X155252563Y-92746191D01*
X155246248Y-92752540D01*
X155246191Y-92752563D01*
X154937253Y-92879576D01*
X154928298Y-92879553D01*
X154922073Y-92873415D01*
X154687485Y-92333039D01*
X154687334Y-92324086D01*
X154689942Y-92320109D01*
X154820108Y-92189943D01*
X154828380Y-92186517D01*
X154833039Y-92187485D01*
G37*
%TD.AperFunction*%
%TD*%
%TA.AperFunction,Conductor*%
%TO.N,SWDIO*%
G36*
X157754478Y-100500868D02*
G01*
X158062769Y-100629520D01*
X158069084Y-100635869D01*
X158069146Y-100644612D01*
X157852922Y-101192594D01*
X157846698Y-101199032D01*
X157842039Y-101200000D01*
X157657961Y-101200000D01*
X157649688Y-101196573D01*
X157647078Y-101192594D01*
X157430853Y-100644612D01*
X157431004Y-100635659D01*
X157437228Y-100629520D01*
X157745494Y-100500879D01*
X157754449Y-100500857D01*
X157754478Y-100500868D01*
G37*
%TD.AperFunction*%
%TD*%
%TA.AperFunction,Conductor*%
%TO.N,I2C2-SCL*%
G36*
X142822779Y-97666047D02*
G01*
X142825000Y-97672905D01*
X142825000Y-97839463D01*
X142821573Y-97847736D01*
X142814521Y-97851099D01*
X142545230Y-97879364D01*
X142536645Y-97876820D01*
X142532373Y-97868949D01*
X142534917Y-97860364D01*
X142537149Y-97858250D01*
X142806442Y-97663425D01*
X142815154Y-97661353D01*
X142822779Y-97666047D01*
G37*
%TD.AperFunction*%
%TD*%
%TA.AperFunction,Conductor*%
%TO.N,DISPLAY-D{slash}C*%
G36*
X149850312Y-113803427D02*
G01*
X149852922Y-113807406D01*
X150069146Y-114355387D01*
X150068995Y-114364340D01*
X150062769Y-114370479D01*
X149754506Y-114499119D01*
X149745551Y-114499142D01*
X149745494Y-114499119D01*
X149437230Y-114370479D01*
X149430915Y-114364130D01*
X149430853Y-114355388D01*
X149647078Y-113807406D01*
X149653302Y-113800968D01*
X149657961Y-113800000D01*
X149842039Y-113800000D01*
X149850312Y-113803427D01*
G37*
%TD.AperFunction*%
%TD*%
%TA.AperFunction,Conductor*%
%TO.N,~{WRITE-PROTECT}*%
G36*
X135867166Y-96397090D02*
G01*
X135873621Y-96403296D01*
X135874602Y-96407985D01*
X135874602Y-96592067D01*
X135871175Y-96600340D01*
X135867232Y-96602936D01*
X135319633Y-96821097D01*
X135310679Y-96820976D01*
X135304505Y-96814734D01*
X135175879Y-96506505D01*
X135175857Y-96497551D01*
X135175880Y-96497494D01*
X135304533Y-96189198D01*
X135310881Y-96182885D01*
X135319592Y-96182811D01*
X135867166Y-96397090D01*
G37*
%TD.AperFunction*%
%TD*%
%TA.AperFunction,Conductor*%
%TO.N,~{DISPLAY-CS}*%
G36*
X155254478Y-104250868D02*
G01*
X155562769Y-104379520D01*
X155569084Y-104385869D01*
X155569146Y-104394612D01*
X155352922Y-104942594D01*
X155346698Y-104949032D01*
X155342039Y-104950000D01*
X155157961Y-104950000D01*
X155149688Y-104946573D01*
X155147078Y-104942594D01*
X154930853Y-104394612D01*
X154931004Y-104385659D01*
X154937228Y-104379520D01*
X155245494Y-104250879D01*
X155254449Y-104250857D01*
X155254478Y-104250868D01*
G37*
%TD.AperFunction*%
%TD*%
%TA.AperFunction,Conductor*%
%TO.N,I2C2-SDA*%
G36*
X137192170Y-98872256D02*
G01*
X137198844Y-98878225D01*
X137200000Y-98883297D01*
X137200000Y-99116702D01*
X137196573Y-99124975D01*
X137192169Y-99127744D01*
X136644355Y-99319707D01*
X136635414Y-99319209D01*
X136629688Y-99313171D01*
X136500880Y-99004506D01*
X136500857Y-98995551D01*
X136500880Y-98995494D01*
X136547701Y-98883297D01*
X136629688Y-98686827D01*
X136636037Y-98680513D01*
X136644355Y-98680292D01*
X137192170Y-98872256D01*
G37*
%TD.AperFunction*%
%TD*%
%TA.AperFunction,Conductor*%
%TO.N,RST*%
G36*
X127692595Y-100147078D02*
G01*
X127699032Y-100153301D01*
X127700000Y-100157960D01*
X127700000Y-100342039D01*
X127696573Y-100350312D01*
X127692594Y-100352922D01*
X127144612Y-100569146D01*
X127135659Y-100568995D01*
X127129520Y-100562769D01*
X127041950Y-100352922D01*
X127000879Y-100254505D01*
X127000857Y-100245551D01*
X127000880Y-100245494D01*
X127129520Y-99937229D01*
X127135869Y-99930915D01*
X127144611Y-99930853D01*
X127692595Y-100147078D01*
G37*
%TD.AperFunction*%
%TD*%
%TA.AperFunction,Conductor*%
%TO.N,+3.3V*%
G36*
X161398848Y-101553427D02*
G01*
X161402007Y-101559209D01*
X161521280Y-102106529D01*
X161519693Y-102115342D01*
X161514354Y-102119818D01*
X161204506Y-102249119D01*
X161195551Y-102249142D01*
X161195494Y-102249119D01*
X160885645Y-102119818D01*
X160879330Y-102113469D01*
X160878719Y-102106529D01*
X160997993Y-101559209D01*
X161003103Y-101551855D01*
X161009425Y-101550000D01*
X161390575Y-101550000D01*
X161398848Y-101553427D01*
G37*
%TD.AperFunction*%
%TD*%
%TA.AperFunction,Conductor*%
%TO.N,~{WRITE-PROTECT}*%
G36*
X145672779Y-96416047D02*
G01*
X145675000Y-96422905D01*
X145675000Y-96589463D01*
X145671573Y-96597736D01*
X145664521Y-96601099D01*
X145395230Y-96629364D01*
X145386645Y-96626820D01*
X145382373Y-96618949D01*
X145384917Y-96610364D01*
X145387149Y-96608250D01*
X145656442Y-96413425D01*
X145665154Y-96411353D01*
X145672779Y-96416047D01*
G37*
%TD.AperFunction*%
%TD*%
%TA.AperFunction,Conductor*%
%TO.N,I2C2-SDA*%
G36*
X139972433Y-98892045D02*
G01*
X139975000Y-98899358D01*
X139975000Y-99113618D01*
X139971573Y-99121891D01*
X139963623Y-99125314D01*
X139686491Y-99132975D01*
X139678127Y-99129778D01*
X139674472Y-99121602D01*
X139677669Y-99113238D01*
X139678843Y-99112156D01*
X139955987Y-98890224D01*
X139964587Y-98887729D01*
X139972433Y-98892045D01*
G37*
%TD.AperFunction*%
%TD*%
%TA.AperFunction,Conductor*%
%TO.N,I2C2-SCL*%
G36*
X147614340Y-97431004D02*
G01*
X147620479Y-97437230D01*
X147749119Y-97745494D01*
X147749142Y-97754449D01*
X147749119Y-97754506D01*
X147620479Y-98062769D01*
X147614130Y-98069084D01*
X147605387Y-98069146D01*
X147057406Y-97852922D01*
X147050968Y-97846698D01*
X147050000Y-97842039D01*
X147050000Y-97657960D01*
X147053427Y-97649687D01*
X147057403Y-97647078D01*
X147605388Y-97430853D01*
X147614340Y-97431004D01*
G37*
%TD.AperFunction*%
%TD*%
%TA.AperFunction,Conductor*%
%TO.N,~{Enable-3.3V-Switched-1}*%
G36*
X149436850Y-103120258D02*
G01*
X149450834Y-103126007D01*
X149746191Y-103247436D01*
X149752540Y-103253751D01*
X149752563Y-103253808D01*
X149879741Y-103563149D01*
X149879718Y-103572104D01*
X149873992Y-103578142D01*
X149350891Y-103829765D01*
X149341950Y-103830263D01*
X149337546Y-103827494D01*
X149172505Y-103662453D01*
X149169078Y-103654180D01*
X149170233Y-103649112D01*
X149421858Y-103126005D01*
X149428532Y-103120037D01*
X149436850Y-103120258D01*
G37*
%TD.AperFunction*%
%TD*%
%TA.AperFunction,Conductor*%
%TO.N,SPI2-MOSI*%
G36*
X152754478Y-92750868D02*
G01*
X153062769Y-92879520D01*
X153069084Y-92885869D01*
X153069146Y-92894612D01*
X152852922Y-93442594D01*
X152846698Y-93449032D01*
X152842039Y-93450000D01*
X152657961Y-93450000D01*
X152649688Y-93446573D01*
X152647078Y-93442594D01*
X152430853Y-92894612D01*
X152431004Y-92885659D01*
X152437228Y-92879520D01*
X152745494Y-92750879D01*
X152754449Y-92750857D01*
X152754478Y-92750868D01*
G37*
%TD.AperFunction*%
%TD*%
%TA.AperFunction,Conductor*%
%TO.N,I2C2-SDA*%
G36*
X144192170Y-98872256D02*
G01*
X144198844Y-98878225D01*
X144200000Y-98883297D01*
X144200000Y-99116702D01*
X144196573Y-99124975D01*
X144192169Y-99127744D01*
X143644355Y-99319707D01*
X143635414Y-99319209D01*
X143629688Y-99313171D01*
X143500880Y-99004506D01*
X143500857Y-98995551D01*
X143500880Y-98995494D01*
X143547701Y-98883297D01*
X143629688Y-98686827D01*
X143636037Y-98680513D01*
X143644355Y-98680292D01*
X144192170Y-98872256D01*
G37*
%TD.AperFunction*%
%TD*%
%TA.AperFunction,Conductor*%
%TO.N,~{Enable-3.3V-Switched-1}*%
G36*
X136192170Y-104372256D02*
G01*
X136198844Y-104378225D01*
X136200000Y-104383297D01*
X136200000Y-104616702D01*
X136196573Y-104624975D01*
X136192169Y-104627744D01*
X135644355Y-104819707D01*
X135635414Y-104819209D01*
X135629688Y-104813171D01*
X135500880Y-104504506D01*
X135500857Y-104495551D01*
X135500880Y-104495494D01*
X135547701Y-104383297D01*
X135629688Y-104186827D01*
X135636037Y-104180513D01*
X135644355Y-104180292D01*
X136192170Y-104372256D01*
G37*
%TD.AperFunction*%
%TD*%
%TA.AperFunction,Conductor*%
%TO.N,+5V*%
G36*
X121760834Y-96761039D02*
G01*
X121762404Y-96762348D01*
X121999109Y-96997715D01*
X122001681Y-97001564D01*
X122129389Y-97312289D01*
X122129364Y-97321244D01*
X122123015Y-97327559D01*
X122122770Y-97327656D01*
X121556704Y-97545525D01*
X121547752Y-97545299D01*
X121543328Y-97541868D01*
X121367852Y-97320214D01*
X121365403Y-97311601D01*
X121367418Y-97306274D01*
X121744549Y-96763963D01*
X121752085Y-96759129D01*
X121760834Y-96761039D01*
G37*
%TD.AperFunction*%
%TD*%
%TA.AperFunction,Conductor*%
%TO.N,~{DISPLAY-RESET}*%
G36*
X152350312Y-114403427D02*
G01*
X152352922Y-114407406D01*
X152569146Y-114955387D01*
X152568995Y-114964340D01*
X152562769Y-114970479D01*
X152254506Y-115099119D01*
X152245551Y-115099142D01*
X152245494Y-115099119D01*
X151937230Y-114970479D01*
X151930915Y-114964130D01*
X151930853Y-114955388D01*
X152147078Y-114407406D01*
X152153302Y-114400968D01*
X152157961Y-114400000D01*
X152342039Y-114400000D01*
X152350312Y-114403427D01*
G37*
%TD.AperFunction*%
%TD*%
%TA.AperFunction,Conductor*%
%TO.N,VDD-Display*%
G36*
X147149620Y-113803427D02*
G01*
X147152534Y-113808274D01*
X147320252Y-114355920D01*
X147319398Y-114364834D01*
X147313571Y-114370144D01*
X147004506Y-114499119D01*
X146995551Y-114499142D01*
X146995494Y-114499119D01*
X146686428Y-114370144D01*
X146680113Y-114363795D01*
X146679747Y-114355922D01*
X146847466Y-113808273D01*
X146853165Y-113801367D01*
X146858653Y-113800000D01*
X147141347Y-113800000D01*
X147149620Y-113803427D01*
G37*
%TD.AperFunction*%
%TD*%
%TA.AperFunction,Conductor*%
%TO.N,SPI2-SCK*%
G36*
X149716513Y-115497174D02*
G01*
X149719285Y-115499227D01*
X149849444Y-115629386D01*
X149852871Y-115637659D01*
X149851350Y-115643428D01*
X149578444Y-116124964D01*
X149571383Y-116130472D01*
X149563816Y-116130016D01*
X149253808Y-116002563D01*
X149247460Y-115996249D01*
X149120950Y-115688533D01*
X149120973Y-115679578D01*
X149127322Y-115673263D01*
X149128342Y-115672897D01*
X149707600Y-115496308D01*
X149716513Y-115497174D01*
G37*
%TD.AperFunction*%
%TD*%
%TA.AperFunction,Conductor*%
%TO.N,I2C2-SCL*%
G36*
X154692595Y-97647078D02*
G01*
X154699032Y-97653301D01*
X154700000Y-97657960D01*
X154700000Y-97842039D01*
X154696573Y-97850312D01*
X154692594Y-97852922D01*
X154144612Y-98069146D01*
X154135659Y-98068995D01*
X154129520Y-98062769D01*
X154041950Y-97852922D01*
X154000879Y-97754505D01*
X154000857Y-97745551D01*
X154000880Y-97745494D01*
X154129520Y-97437229D01*
X154135869Y-97430915D01*
X154144611Y-97430853D01*
X154692595Y-97647078D01*
G37*
%TD.AperFunction*%
%TD*%
%TA.AperFunction,Conductor*%
%TO.N,~{DISPLAY-CS}*%
G36*
X154899893Y-113939944D02*
G01*
X155030056Y-114070107D01*
X155033483Y-114078380D01*
X155032515Y-114083039D01*
X154797928Y-114623414D01*
X154791490Y-114629638D01*
X154782747Y-114629576D01*
X154473809Y-114502563D01*
X154467461Y-114496249D01*
X154340424Y-114187251D01*
X154340447Y-114178298D01*
X154346583Y-114172074D01*
X154886961Y-113937484D01*
X154895914Y-113937334D01*
X154899893Y-113939944D01*
G37*
%TD.AperFunction*%
%TD*%
%TA.AperFunction,Conductor*%
%TO.N,D-CONN*%
G36*
X117333039Y-96937932D02*
G01*
X117873415Y-97172520D01*
X117879638Y-97178957D01*
X117879576Y-97187700D01*
X117752563Y-97496638D01*
X117746248Y-97502987D01*
X117746191Y-97503010D01*
X117437253Y-97630023D01*
X117428298Y-97630000D01*
X117422073Y-97623862D01*
X117187485Y-97083486D01*
X117187334Y-97074533D01*
X117189942Y-97070556D01*
X117320108Y-96940390D01*
X117328380Y-96936964D01*
X117333039Y-96937932D01*
G37*
%TD.AperFunction*%
%TD*%
%TA.AperFunction,Conductor*%
%TO.N,~{DISPLAY-RESET}*%
G36*
X157437251Y-92620422D02*
G01*
X157746191Y-92747436D01*
X157752540Y-92753751D01*
X157752563Y-92753808D01*
X157879576Y-93062746D01*
X157879553Y-93071701D01*
X157873414Y-93077927D01*
X157333039Y-93312514D01*
X157324086Y-93312665D01*
X157320107Y-93310055D01*
X157189944Y-93179892D01*
X157186517Y-93171619D01*
X157187485Y-93166960D01*
X157226136Y-93077927D01*
X157422074Y-92626582D01*
X157428510Y-92620361D01*
X157437251Y-92620422D01*
G37*
%TD.AperFunction*%
%TD*%
%TA.AperFunction,Conductor*%
%TO.N,I2C2-SCL*%
G36*
X146189340Y-97431004D02*
G01*
X146195479Y-97437230D01*
X146324119Y-97745494D01*
X146324142Y-97754449D01*
X146324119Y-97754506D01*
X146195479Y-98062769D01*
X146189130Y-98069084D01*
X146180387Y-98069146D01*
X145632406Y-97852922D01*
X145625968Y-97846698D01*
X145625000Y-97842039D01*
X145625000Y-97657960D01*
X145628427Y-97649687D01*
X145632403Y-97647078D01*
X146180388Y-97430853D01*
X146189340Y-97431004D01*
G37*
%TD.AperFunction*%
%TD*%
%TA.AperFunction,Conductor*%
%TO.N,SPI2-MOSI*%
G36*
X148429892Y-115439944D02*
G01*
X148560055Y-115570107D01*
X148563482Y-115578380D01*
X148562514Y-115583039D01*
X148327927Y-116123414D01*
X148321489Y-116129638D01*
X148312746Y-116129576D01*
X148003808Y-116002563D01*
X147997460Y-115996249D01*
X147870423Y-115687251D01*
X147870446Y-115678298D01*
X147876582Y-115672074D01*
X148416960Y-115437484D01*
X148425913Y-115437334D01*
X148429892Y-115439944D01*
G37*
%TD.AperFunction*%
%TD*%
%TA.AperFunction,Conductor*%
%TO.N,SWCLK*%
G36*
X157192595Y-98897078D02*
G01*
X157199032Y-98903301D01*
X157200000Y-98907960D01*
X157200000Y-99092039D01*
X157196573Y-99100312D01*
X157192594Y-99102922D01*
X156644612Y-99319146D01*
X156635659Y-99318995D01*
X156629520Y-99312769D01*
X156541950Y-99102922D01*
X156500879Y-99004505D01*
X156500857Y-98995551D01*
X156500880Y-98995494D01*
X156629520Y-98687229D01*
X156635869Y-98680915D01*
X156644611Y-98680853D01*
X157192595Y-98897078D01*
G37*
%TD.AperFunction*%
%TD*%
%TA.AperFunction,Conductor*%
%TO.N,D+CONN*%
G36*
X118071701Y-96370893D02*
G01*
X118077927Y-96377032D01*
X118312514Y-96917407D01*
X118312665Y-96926360D01*
X118310055Y-96930339D01*
X118179892Y-97060502D01*
X118171619Y-97063929D01*
X118166960Y-97062961D01*
X117809037Y-96907579D01*
X117626584Y-96828373D01*
X117620361Y-96821936D01*
X117620422Y-96813195D01*
X117747437Y-96504253D01*
X117753748Y-96497908D01*
X118062748Y-96370870D01*
X118071701Y-96370893D01*
G37*
%TD.AperFunction*%
%TD*%
%TA.AperFunction,Conductor*%
%TO.N,DISPLAY-D{slash}C*%
G36*
X154004478Y-92750868D02*
G01*
X154312769Y-92879520D01*
X154319084Y-92885869D01*
X154319146Y-92894612D01*
X154102922Y-93442594D01*
X154096698Y-93449032D01*
X154092039Y-93450000D01*
X153907961Y-93450000D01*
X153899688Y-93446573D01*
X153897078Y-93442594D01*
X153680853Y-92894612D01*
X153681004Y-92885659D01*
X153687228Y-92879520D01*
X153995494Y-92750879D01*
X154004449Y-92750857D01*
X154004478Y-92750868D01*
G37*
%TD.AperFunction*%
%TD*%
%TA.AperFunction,Conductor*%
%TO.N,VDD-SENSORS-EEPROM*%
G36*
X143364834Y-93680601D02*
G01*
X143370144Y-93686428D01*
X143499119Y-93995494D01*
X143499142Y-94004449D01*
X143499119Y-94004506D01*
X143370144Y-94313571D01*
X143363795Y-94319886D01*
X143355920Y-94320252D01*
X142808274Y-94152533D01*
X142801367Y-94146834D01*
X142800000Y-94141346D01*
X142800000Y-93858653D01*
X142803427Y-93850380D01*
X142808274Y-93847466D01*
X143355921Y-93679747D01*
X143364834Y-93680601D01*
G37*
%TD.AperFunction*%
%TD*%
%TA.AperFunction,Conductor*%
%TO.N,DISPLAY-BUSY*%
G36*
X152853312Y-112906461D02*
G01*
X153238123Y-113244292D01*
X153242079Y-113252325D01*
X153239196Y-113260803D01*
X153238694Y-113261340D01*
X153003444Y-113497542D01*
X152995178Y-113500986D01*
X152995121Y-113500986D01*
X152661667Y-113500033D01*
X152653403Y-113496582D01*
X152650000Y-113488333D01*
X152650000Y-112915253D01*
X152653427Y-112906980D01*
X152661700Y-112903553D01*
X152845593Y-112903553D01*
X152853312Y-112906461D01*
G37*
%TD.AperFunction*%
%TD*%
%TA.AperFunction,Conductor*%
%TO.N,~{WRITE-PROTECT}*%
G36*
X142172779Y-96416047D02*
G01*
X142175000Y-96422905D01*
X142175000Y-96589463D01*
X142171573Y-96597736D01*
X142164521Y-96601099D01*
X141895230Y-96629364D01*
X141886645Y-96626820D01*
X141882373Y-96618949D01*
X141884917Y-96610364D01*
X141887149Y-96608250D01*
X142156442Y-96413425D01*
X142165154Y-96411353D01*
X142172779Y-96416047D01*
G37*
%TD.AperFunction*%
%TD*%
%TA.AperFunction,Conductor*%
%TO.N,I2C2-SDA*%
G36*
X154692595Y-98897078D02*
G01*
X154699032Y-98903301D01*
X154700000Y-98907960D01*
X154700000Y-99092039D01*
X154696573Y-99100312D01*
X154692594Y-99102922D01*
X154144612Y-99319146D01*
X154135659Y-99318995D01*
X154129520Y-99312769D01*
X154041950Y-99102922D01*
X154000879Y-99004505D01*
X154000857Y-98995551D01*
X154000880Y-98995494D01*
X154129520Y-98687229D01*
X154135869Y-98680915D01*
X154144611Y-98680853D01*
X154692595Y-98897078D01*
G37*
%TD.AperFunction*%
%TD*%
%TA.AperFunction,Conductor*%
%TO.N,VDD-SENSORS-EEPROM*%
G36*
X141497092Y-93868124D02*
G01*
X141500000Y-93875844D01*
X141500000Y-94137704D01*
X141496573Y-94145977D01*
X141488300Y-94149404D01*
X141487720Y-94149390D01*
X141205472Y-94135370D01*
X141197379Y-94131537D01*
X141194366Y-94123104D01*
X141198199Y-94115011D01*
X141198264Y-94114952D01*
X141480581Y-93867051D01*
X141489058Y-93864169D01*
X141497092Y-93868124D01*
G37*
%TD.AperFunction*%
%TD*%
%TA.AperFunction,Conductor*%
%TO.N,D-CONN*%
G36*
X117437251Y-95370869D02*
G01*
X117746191Y-95497883D01*
X117752540Y-95504198D01*
X117752563Y-95504255D01*
X117879576Y-95813193D01*
X117879553Y-95822148D01*
X117873414Y-95828374D01*
X117333039Y-96062961D01*
X117324086Y-96063112D01*
X117320107Y-96060502D01*
X117189944Y-95930339D01*
X117186517Y-95922066D01*
X117187485Y-95917407D01*
X117226136Y-95828374D01*
X117422074Y-95377029D01*
X117428510Y-95370808D01*
X117437251Y-95370869D01*
G37*
%TD.AperFunction*%
%TD*%
%TA.AperFunction,Conductor*%
%TO.N,I2C2-SDA*%
G36*
X143364585Y-98680790D02*
G01*
X143370311Y-98686828D01*
X143499119Y-98995494D01*
X143499142Y-99004449D01*
X143499119Y-99004506D01*
X143370311Y-99313171D01*
X143363962Y-99319486D01*
X143355644Y-99319707D01*
X142807831Y-99127744D01*
X142801156Y-99121774D01*
X142800000Y-99116702D01*
X142800000Y-98883297D01*
X142803427Y-98875024D01*
X142807827Y-98872256D01*
X143355644Y-98680292D01*
X143364585Y-98680790D01*
G37*
%TD.AperFunction*%
%TD*%
M02*
