M48
; DRILL file {KiCad 8.0.8+1} date 2025-10-27T08:51:50+0000
; FORMAT={-:-/ absolute / metric / decimal}
; #@! TF.CreationDate,2025-10-27T08:51:50+00:00
; #@! TF.GenerationSoftware,Kicad,Pcbnew,8.0.8+1
; #@! TF.FileFunction,Plated,1,2,PTH
FMAT,2
METRIC
; #@! TA.AperFunction,Plated,PTH,ViaDrill
T1C0.300
; #@! TA.AperFunction,Plated,PTH,ComponentDrill
T2C0.600
; #@! TA.AperFunction,Plated,PTH,ComponentDrill
T3C0.800
; #@! TA.AperFunction,Plated,PTH,ComponentDrill
T4C1.000
; #@! TA.AperFunction,Plated,PTH,ComponentDrill
T5C1.200
; #@! TA.AperFunction,Plated,PTH,ComponentDrill
T6C1.500
%
G90
G05
T1
X115.0Y-77.0
X115.0Y-85.0
X115.0Y-94.25
X115.0Y-99.75
X115.0Y-107.0
X117.7Y-92.05
X117.75Y-95.5
X117.75Y-96.5
X117.75Y-97.5
X117.75Y-98.5
X118.0Y-104.25
X119.0Y-94.6
X119.0Y-99.375
X119.0Y-116.5
X119.0Y-118.0
X119.0Y-121.0
X121.0Y-73.0
X121.0Y-104.75
X121.75Y-109.0
X122.0Y-93.8
X122.0Y-97.0
X122.0Y-100.2
X122.0Y-101.5
X122.0Y-102.75
X123.25Y-117.75
X123.5Y-109.75
X124.25Y-107.0
X125.5Y-115.5
X126.0Y-94.5
X126.0Y-99.5
X127.0Y-100.25
X127.0Y-104.75
X128.0Y-110.5
X128.25Y-109.0
X128.25Y-115.5
X128.75Y-106.0
X128.75Y-107.75
X129.0Y-73.0
X129.0Y-104.75
X129.0Y-120.5
X129.2Y-96.475
X129.2Y-97.525
X130.3Y-96.475
X130.3Y-97.525
X130.75Y-100.25
X130.75Y-104.5
X131.75Y-104.5
X132.0Y-87.5
X132.0Y-88.5
X132.0Y-89.5
X132.0Y-92.0
X132.25Y-100.25
X133.5Y-107.0
X134.0Y-102.75
X134.0Y-114.0
X134.5Y-89.75
X134.5Y-94.0
X135.175Y-96.502
X135.5Y-104.5
X135.825Y-97.751
X136.0Y-89.75
X136.25Y-102.75
X136.5Y-99.0
X136.5Y-108.0
X137.0Y-73.0
X137.0Y-121.0
X138.025Y-94.0
X138.674Y-96.5
X139.325Y-97.75
X139.5Y-102.75
X139.5Y-108.0
X139.975Y-99.0
X141.5Y-94.0
X142.0Y-89.75
X142.175Y-96.5
X142.825Y-97.75
X143.0Y-102.75
X143.25Y-113.85
X143.5Y-89.75
X143.5Y-94.0
X143.5Y-99.0
X144.0Y-107.0
X145.0Y-73.0
X145.25Y-89.75
X145.675Y-96.5
X146.325Y-97.75
X146.975Y-99.0
X147.0Y-89.75
X147.0Y-94.0
X147.0Y-102.75
X147.0Y-114.5
X147.75Y-97.75
X148.0Y-116.0
X148.75Y-101.75
X148.75Y-108.25
X148.75Y-109.75
X149.25Y-90.5
X149.25Y-116.0
X149.75Y-103.25
X149.75Y-114.5
X150.0Y-111.0
X151.0Y-94.0
X151.5Y-113.25
X152.25Y-115.1
X152.75Y-92.75
X153.0Y-73.0
X153.0Y-113.5
X153.75Y-104.5
X153.75Y-107.0
X154.0Y-92.75
X154.0Y-97.75
X154.0Y-99.0
X154.0Y-100.5
X154.47Y-114.5
X155.25Y-92.75
X155.25Y-100.5
X155.25Y-104.25
X156.25Y-111.25
X156.5Y-92.75
X156.5Y-99.0
X157.25Y-111.5
X157.75Y-92.75
X157.75Y-94.0
X157.75Y-100.5
X159.0Y-88.5
X159.0Y-92.75
X159.0Y-104.25
X159.0Y-113.75
X159.25Y-97.75
X160.5Y-90.0
X161.0Y-73.0
X161.2Y-102.25
X161.5Y-107.0
X161.5Y-108.0
X161.5Y-109.5
X163.0Y-121.0
X163.176Y-99.148
X163.266Y-101.344
X164.37Y-98.575
X164.683Y-100.992
X165.75Y-103.0
X165.862Y-97.082
X165.888Y-100.168
X167.067Y-96.258
X167.38Y-98.675
X169.0Y-73.0
X171.0Y-121.0
X175.0Y-79.0
X175.0Y-87.0
X175.0Y-117.0
T3
X159.75Y-115.0
X161.75Y-115.0
X163.75Y-115.0
X165.75Y-115.0
X167.75Y-115.0
X169.75Y-115.0
T4
X115.75Y-112.96
X115.75Y-115.5
T5
X118.9Y-80.5
X169.36Y-94.46
X169.36Y-99.54
X171.1Y-80.5
X174.44Y-94.46
X174.44Y-99.54
T6
X171.9Y-97.0
T2
G00X116.18Y-92.68
M15
G01X114.98Y-92.68
M16
G05
G00X116.18Y-101.32
M15
G01X114.98Y-101.32
M16
G05
G00X119.98Y-92.68
M15
G01X119.18Y-92.68
M16
G05
G00X119.98Y-101.32
M15
G01X119.18Y-101.32
M16
G05
M30
