%TF.GenerationSoftware,KiCad,Pcbnew,8.0.8+1*%
%TF.CreationDate,Date%
%TF.ProjectId,LoRa-V3-PCB,4c6f5261-2d56-4332-9d50-43422e6b6963,rev?*%
%TF.SameCoordinates,Original*%
%TF.FileFunction,Plated,1,2,PTH,Mixed*%
%TF.FilePolarity,Positive*%
%FSLAX46Y46*%
G04 Gerber Fmt 4.6, Leading zero omitted, Abs format (unit mm)*
G04 Created by KiCad*
%MOMM*%
%LPD*%
G01*
G04 APERTURE LIST*
%TA.AperFunction,ViaDrill*%
%ADD10C,0.300000*%
%TD*%
G04 aperture for slot hole*
%TA.AperFunction,ComponentDrill*%
%ADD11C,0.600000*%
%TD*%
%TA.AperFunction,ComponentDrill*%
%ADD12C,0.800000*%
%TD*%
%TA.AperFunction,ComponentDrill*%
%ADD13C,1.000000*%
%TD*%
%TA.AperFunction,ComponentDrill*%
%ADD14C,1.200000*%
%TD*%
%TA.AperFunction,ComponentDrill*%
%ADD15C,1.500000*%
%TD*%
G04 APERTURE END LIST*
D10*
X115000000Y-77000000D03*
X115000000Y-85000000D03*
X115000000Y-94250000D03*
X115000000Y-99750000D03*
X115000000Y-107000000D03*
X117750000Y-95500447D03*
X117750000Y-96500447D03*
X117750000Y-97500447D03*
X117750000Y-98500447D03*
X118000000Y-91750000D03*
X118750000Y-105000000D03*
X118750000Y-109000000D03*
X119000000Y-116500000D03*
X119000000Y-118000000D03*
X119000000Y-121000000D03*
X119350000Y-94600000D03*
X119350000Y-99375000D03*
X121000000Y-73000000D03*
X121000000Y-104750000D03*
X121750000Y-109000000D03*
X122000000Y-93800000D03*
X122000000Y-97000000D03*
X122000000Y-100200000D03*
X122000000Y-101500000D03*
X122000000Y-102750000D03*
X123250000Y-117750000D03*
X123500000Y-109750000D03*
X124250000Y-107000000D03*
X125500000Y-115500000D03*
X126000000Y-94500000D03*
X126000000Y-99500000D03*
X127000000Y-100250000D03*
X127000000Y-104750000D03*
X128000000Y-110500000D03*
X128250000Y-109000000D03*
X128250000Y-115500000D03*
X128750000Y-107750000D03*
X129000000Y-73000000D03*
X129000000Y-104750000D03*
X129000000Y-120500000D03*
X129200000Y-96475000D03*
X129200000Y-97525000D03*
X130300000Y-96475000D03*
X130300000Y-97525000D03*
X130750000Y-100250000D03*
X130750000Y-104500000D03*
X131250000Y-106000000D03*
X132000000Y-87500000D03*
X132000000Y-93500000D03*
X132250000Y-100250000D03*
X132250000Y-104250000D03*
X134000000Y-114000000D03*
X134500000Y-88750000D03*
X134500000Y-92750000D03*
X134500000Y-102250000D03*
X135000000Y-96000000D03*
X135500000Y-103250000D03*
X135500000Y-107000000D03*
X135750000Y-97000000D03*
X136000000Y-88750000D03*
X136000000Y-92750000D03*
X136250000Y-101250000D03*
X136500000Y-98000000D03*
X136500000Y-108000000D03*
X137000000Y-73000000D03*
X137000000Y-121000000D03*
X138500000Y-96000000D03*
X138500000Y-101250000D03*
X139250000Y-97000000D03*
X139500000Y-108000000D03*
X140000000Y-98000000D03*
X141500000Y-92750000D03*
X142000000Y-88750000D03*
X142000000Y-96000000D03*
X142750000Y-97000000D03*
X143000000Y-101250000D03*
X143250000Y-113850000D03*
X143500000Y-88750000D03*
X143500000Y-98000000D03*
X144000000Y-107000000D03*
X145000000Y-73000000D03*
X145000000Y-96000000D03*
X145250000Y-88500000D03*
X145750000Y-97000000D03*
X146000000Y-102500000D03*
X146500000Y-98000000D03*
X147000000Y-88750000D03*
X147000000Y-92750000D03*
X147000000Y-101250000D03*
X147000000Y-114500000D03*
X147500000Y-97000000D03*
X148000000Y-116000000D03*
X148750000Y-101750000D03*
X148750000Y-108250000D03*
X148750000Y-109750000D03*
X149250000Y-90500000D03*
X149250000Y-116000000D03*
X149750000Y-114500000D03*
X150000000Y-111000000D03*
X151000000Y-94000000D03*
X151500000Y-113250000D03*
X152250000Y-115100000D03*
X152750000Y-92750000D03*
X153000000Y-73000000D03*
X153000000Y-113500000D03*
X153750000Y-104500000D03*
X153750000Y-107000000D03*
X154000000Y-92750000D03*
X154000000Y-97750000D03*
X154000000Y-99000000D03*
X154000000Y-100500000D03*
X154470001Y-114500000D03*
X155250000Y-92750000D03*
X155250000Y-100500000D03*
X155250000Y-104250000D03*
X156250000Y-111250000D03*
X156500000Y-92750000D03*
X156500000Y-99000000D03*
X157250000Y-111500000D03*
X157750000Y-92750000D03*
X157750000Y-94000000D03*
X157750000Y-100500000D03*
X159000000Y-88500000D03*
X159000000Y-92750000D03*
X159000000Y-104250000D03*
X159000000Y-113750000D03*
X159250000Y-97750000D03*
X160500000Y-90000000D03*
X161000000Y-73000000D03*
X161200000Y-102250000D03*
X161500000Y-107000000D03*
X161500000Y-108000000D03*
X161500000Y-109500000D03*
X163000000Y-121000000D03*
X163175732Y-99148137D03*
X163266473Y-101344388D03*
X164369744Y-98575069D03*
X164682986Y-100991946D03*
X165750000Y-103000000D03*
X165862368Y-97082444D03*
X165887616Y-100167571D03*
X167067018Y-96258049D03*
X167380274Y-98674914D03*
X169000000Y-73000000D03*
X171000000Y-121000000D03*
X175000000Y-79000000D03*
X175000000Y-87000000D03*
X175000000Y-117000000D03*
D11*
%TO.C,CONN1*%
X115330000Y-92680000D02*
X116530000Y-92680000D01*
X115330000Y-101320000D02*
X116530000Y-101320000D01*
X119530000Y-92680000D02*
X120330000Y-92680000D01*
X119530000Y-101320000D02*
X120330000Y-101320000D01*
D12*
%TO.C,CONN8*%
X159750000Y-115000000D03*
X161750000Y-115000000D03*
X163750000Y-115000000D03*
X165750000Y-115000000D03*
X167750000Y-115000000D03*
X169750000Y-115000000D03*
D13*
%TO.C,CONN4*%
X115750000Y-112960000D03*
X115750000Y-115500000D03*
D14*
%TO.C,CONN2*%
X118900000Y-80500000D03*
%TO.C,CONN5*%
X169360000Y-94460000D03*
X169360000Y-99540000D03*
%TO.C,CONN2*%
X171100000Y-80500000D03*
%TO.C,CONN5*%
X174440000Y-94460000D03*
X174440000Y-99540000D03*
D15*
X171900000Y-97000000D03*
M02*
